{
.appVersion = "3134";
.formatVersion = 3;
axes = (
{
name = Weight;
tag = wght;
}
);
customParameters = (
{
name = vendorID;
value = " ";
},
{
name = panose;
value = (
0,
0,
0,
0,
0,
0,
0,
0,
0,
0
);
},
{
name = unicodeRanges;
value = (
0,
1,
2,
5,
6,
7,
31,
32
);
},
{
name = codePageRanges;
value = (
"1252",
"1250",
"1253",
"1254",
"1257"
);
},
{
name = fsType;
value = (
);
},
{
name = glyphOrder;
value = (
.notdef,
.null,
uni000D,
space,
exclam,
quotedbl,
numbersign,
dollar,
percent,
ampersand,
quotesingle,
parenleft,
parenright,
asterisk,
plus,
comma,
hyphen,
period,
slash,
zero,
one,
two,
three,
four,
five,
six,
seven,
eight,
nine,
colon,
semicolon,
less,
equal,
greater,
question,
at,
A,
B,
C,
D,
E,
F,
G,
H,
J,
K,
L,
M,
N,
O,
P,
Q,
R,
S,
T,
U,
V,
W,
X,
Y,
Z,
bracketleft,
backslash,
bracketright,
asciicircum,
underscore,
grave,
a,
b,
c,
d,
e,
f,
g,
h,
i,
j,
k,
l,
m,
n,
o,
p,
q,
r,
s,
t,
u,
v,
w,
x,
y,
z,
braceleft,
bar,
braceright,
asciitilde,
uni00A0,
exclamdown,
cent,
sterling,
currency,
yen,
brokenbar,
section,
dieresis,
copyright,
ordfeminine,
guillemotleft,
logicalnot,
uni00AD,
registered,
degree,
plusminus,
twosuperior,
threesuperior,
acute,
uni03BC,
paragraph,
periodcentered,
cedilla,
onesuperior,
ordmasculine,
guillemotright,
onequarter,
onehalf,
threequarters,
questiondown,
Agrave,
Aacute,
Acircumflex,
Atilde,
Adieresis,
Aring,
AE,
Egrave,
Eacute,
Ecircumflex,
Edieresis,
Eth,
Ntilde,
Ograve,
Oacute,
Ocircumflex,
Otilde,
Odieresis,
multiply,
Oslash,
Ugrave,
Uacute,
Ucircumflex,
Udieresis,
Yacute,
Thorn,
germandbls,
agrave,
aacute,
acircumflex,
atilde,
adieresis,
aring,
ae,
ccedilla,
egrave,
eacute,
ecircumflex,
edieresis,
igrave,
iacute,
idieresis,
eth,
ntilde,
ograve,
oacute,
ocircumflex,
otilde,
odieresis,
divide,
oslash,
ugrave,
uacute,
ucircumflex,
udieresis,
yacute,
thorn,
ydieresis,
Amacron,
amacron,
Abreve,
abreve,
Aogonek,
aogonek,
Cacute,
cacute,
Ccircumflex,
ccircumflex,
cdotaccent,
Ccaron,
ccaron,
Dcaron,
dcaron,
Dcroat,
dcroat,
Emacron,

glyphs = (
{
glyphname = .notdef;
lastChange = "2024-01-25 14:19:30 +0000";
layers = (
{
layerId = "F6364453-91B0-4CE2-A857-F52B6F68B874";
shapes = (
{
closed = 1;
nodes = (
(565,720,l),
(565,0,l),
(36,0,l),
(36,720,l)
);
},
{
closed = 1;
nodes = (
(138,663,l),
(301,421,l),
(462,663,l)
);
},
{
closed = 1;
nodes = (
(495,593,l),
(340,360,l),
(495,128,l)
);
},
{
closed = 1;
nodes = (
(301,300,l),
(138,57,l),
(462,57,l)
);
},
{
closed = 1;
nodes = (
(261,360,l),
(106,594,l),
(106,128,l)
);
}
);
width = 600;
},
{
layerId = "8AF3DB8E-7EC5-4D7D-A87A-6DF3FCB8CADF";
shapes = (
{
closed = 1;
nodes = (
(528,720,l),
(528,0,l),
(2,0,l),
(2,720,l)
);
},
{
closed = 1;
nodes = (
(100,663,l),
(265,419,l),
(429,663,l)
);
},
{
closed = 1;
nodes = (
(462,598,l),
(303,360,l),
(462,124,l)
);
},
{
closed = 1;
nodes = (
(265,303,l),
(100,57,l),
(429,57,l)
);
},
{
closed = 1;
nodes = (
(227,360,l),
(68,599,l),
(68,124,l)
);
}
);
width = 529;
},
{
layerId = "F1A19D98-9E48-4F05-B6A0-CD51606DBCB8";
shapes = (
{
closed = 1;
nodes = (
(519,720,l),
(519,0,l),
(-6,0,l),
(-6,720,l)
);
},
{
closed = 1;
nodes = (
(91,663,l),
(256,419,l),
(421,663,l)
);
},
{
closed = 1;
nodes = (
(454,599,l),
(294,360,l),
(454,123,l)
);
},
{
closed = 1;
nodes = (
(256,303,l),
(91,57,l),
(421,57,l)
);
},
{
closed = 1;
nodes = (
(219,360,l),
(59,600,l),
(59,123,l)
);
}
);
width = 515;
}
);
},
{
glyphname = exclam;
lastChange = "2024-01-25 14:19:30 +0000";
layers = (
{
layerId = "F6364453-91B0-4CE2-A857-F52B6F68B874";
shapes = (
{
closed = 1;
nodes = (
(278,615,l),
(220,228,l),
(120,228,l),
(62,615,l),
(62,700,l),
(278,700,l)
);
},
{
closed = 1;
nodes = (
(229,180,o),
(277,148,o),
(277,84,cs),
(277,20,o),
(229,-13,o),
(169,-13,cs),
(109,-13,o),
(62,20,o),
(62,84,cs),
(62,148,o),
(109,180,o),
(169,180,cs)
);
}
);
width = 341;
},
{
layerId = "8AF3DB8E-7EC5-4D7D-A87A-6DF3FCB8CADF";
shapes = (
{
closed = 1;
nodes = (
(206,620,l),
(182,207,l),
(120,207,l),
(95,620,l),
(92,704,l),
(209,704,l)
);
},
{
closed = 1;
nodes = (
(190,121,o),
(218,92,o),
(218,56,cs),
(218,15,o),
(190,-11,o),
(151,-11,cs),
(114,-11,o),
(83,15,o),
(83,56,cs),
(83,93,o),
(115,121,o),
(151,121,cs)
);
}
);
width = 299;
},
{
layerId = "F1A19D98-9E48-4F05-B6A0-CD51606DBCB8";
shapes = (
{
closed = 1;
nodes = (
(189,621,l),
(172,203,l),
(117,203,l),
(99,621,l),
(95,705,l),
(193,705,l)
);
},
{
closed = 1;
nodes = (
(178,109,o),
(204,81,o),
(204,50,cs),
(204,14,o),
(178,-10,o),
(145,-10,cs),
(112,-10,o),
(85,14,o),
(85,50,cs),
(85,82,o),
(114,109,o),
(145,109,cs)
);
}
);
width = 290;
}
);
unicode = 33;
},
{
glyphname = quotedbl;
lastChange = "2024-01-25 14:19:30 +0000";
layers = (
{
layerId = "F6364453-91B0-4CE2-A857-F52B6F68B874";
shapes = (
{
closed = 1;
nodes = (
(111,700,l),
(315,700,l),
(315,699,l),
(315,697,l),
(188,341,l),
(89,341,l)
);
},
{
closed = 1;
nodes = (
(572,700,l),
(572,699,l),
(572,697,l),
(445,341,l),
(345,341,l),
(368,700,l)
);
}
);
width = 660;
},
{
layerId = "8AF3DB8E-7EC5-4D7D-A87A-6DF3FCB8CADF";
shapes = (
{
closed = 1;
nodes = (
(99,707,l),
(209,707,l),
(209,707,l),
(199,662,l),
(136,426,l),
(74,426,l)
);
},
{
closed = 1;
nodes = (
(401,707,l),
(401,707,l),
(391,662,l),
(328,426,l),
(266,426,l),
(291,707,l)
);
}
);
width = 474;
},
{
layerId = "F1A19D98-9E48-4F05-B6A0-CD51606DBCB8";
shapes = (
{
closed = 1;
nodes = (
(97,708,l),
(188,708,l),
(188,708,l),
(176,655,l),
(126,443,l),
(71,443,l)
);
},
{
closed = 1;
nodes = (
(367,708,l),
(367,708,l),
(355,655,l),
(305,443,l),
(250,443,l),
(276,708,l)
);
}
);
width = 437;
}
);
unicode = 34;
},
{
glyphname = numbersign;
lastChange = "2024-01-25 14:19:30 +0000";
layers = (
{
layerId = "F6364453-91B0-4CE2-A857-F52B6F68B874";
shapes = (
{
closed = 1;
nodes = (
(33,135,l),
(33,296,l),
(139,296,l),
(158,408,l),
(66,408,l),
(66,569,l),
(186,569,l),
(208,700,l),
(353,700,l),
(330,569,l),
(457,569,l),
(479,700,l),
(624,700,l),
(602,569,l),
(680,569,l),
(680,408,l),
(574,408,l),
(555,296,l),
(647,296,l),
(647,135,l),
(528,135,l),
(504,0,l),
(359,0,l),
(383,135,l),
(256,135,l),
(233,0,l),
(88,0,l),
(111,135,l)
);
},
{
closed = 1;
nodes = (
(279,292,l),
(413,292,l),
(433,412,l),
(300,412,l)
);
}
);
width = 712;
},
{
layerId = "8AF3DB8E-7EC5-4D7D-A87A-6DF3FCB8CADF";
shapes = (
{
closed = 1;
nodes = (
(25,185,l),
(25,271,l),
(139,271,l),
(166,440,l),
(58,440,l),
(58,527,l),
(179,527,l),
(206,705,l),
(291,705,l),
(264,527,l),
(421,527,l),
(447,705,l),
(532,705,l),
(506,527,l),
(602,527,l),
(602,440,l),
(492,440,l),
(465,271,l),
(569,271,l),
(569,184,l),
(451,184,l),
(424,0,l),
(339,0,l),
(366,184,l),
(209,184,l),
(181,0,l),
(96,0,l),
(125,185,l)
);
},
{
closed = 1;
nodes = (
(222,270,l),
(381,270,l),
(408,440,l),
(249,440,l)
);
}
);
width = 625;
},
{
layerId = "F1A19D98-9E48-4F05-B6A0-CD51606DBCB8";
shapes = (
{
closed = 1;
nodes = (
(23,195,l),
(23,266,l),
(139,266,l),
(167,446,l),
(56,446,l),
(56,518,l),
(177,518,l),
(206,706,l),
(278,706,l),
(251,518,l),
(414,518,l),
(441,706,l),
(513,706,l),
(487,518,l),
(586,518,l),
(586,446,l),
(476,446,l),
(447,266,l),
(553,266,l),
(553,194,l),
(436,194,l),
(408,0,l),
(335,0,l),
(363,194,l),
(200,194,l),
(171,0,l),
(98,0,l),
(128,195,l)
);
},
{
closed = 1;
nodes = (
(211,266,l),
(374,266,l),
(403,446,l),
(239,446,l)
);
}
);
width = 608;
}
);
unicode = 35;
},
{
glyphname = dollar;
lastChange = "2024-01-25 14:19:30 +0000";
layers = (
{
layerId = "F6364453-91B0-4CE2-A857-F52B6F68B874";
shapes = (
{
closed = 1;
nodes = (
(278,2,l),
(189,2,o),
(94,39,o),
(18,115,c),
(129,234,l),
(168,186,o),
(228,152,o),
(284,145,c),
(284,272,l),
(124,309,o),
(41,366,o),
(41,490,cs),
(41,607,o),
(128,690,o),
(280,701,c),
(280,758,l),
(384,758,l),
(384,698,l),
(468,689,o),
(541,652,o),
(589,599,c),
(492,491,l),
(460,530,o),
(423,547,o),
(379,555,c),
(379,430,l),
(538,393,o),
(618,335,o),
(618,212,cs),
(618,89,o),
(523,13,o),
(382,0,c),
(382,-98,l),
(278,-98,l)
);
},
{
closed = 1;
nodes = (
(378,146,l),
(425,151,o),
(445,172,o),
(445,199,cs),
(445,234,o),
(406,247,o),
(378,256,c)
);
},
{
closed = 1;
nodes = (
(285,555,l),
(236,551,o),
(217,530,o),
(217,505,cs),
(217,468,o),
(255,454,o),
(285,447,c)
);
}
);
width = 646;
},
{
layerId = "8AF3DB8E-7EC5-4D7D-A87A-6DF3FCB8CADF";
shapes = (
{
closed = 1;
nodes = (
(258,-3,l),
(162,-3,o),
(85,41,o),
(29,101,c),
(87,165,l),
(130,120,o),
(187,83,o),
(259,78,c),
(259,314,l),
(131,357,o),
(57,414,o),
(57,519,cs),
(57,625,o),
(142,698,o),
(258,709,c),
(258,774,l),
(330,774,l),
(330,709,l),
(418,701,o),
(470,661,o),
(502,620,c),
(443,559,l),
(418,594,o),
(376,619,o),
(328,624,c),
(328,396,l),
(471,349,o),
(536,292,o),
(536,195,cs),
(536,87,o),
(450,10,o),
(330,-3,c),
(330,-96,l),
(258,-96,l)
);
},
{
closed = 1;
nodes = (
(329,79,l),
(405,90,o),
(438,130,o),
(438,182,cs),
(438,246,o),
(385,276,o),
(329,294,c)
);
},
{
closed = 1;
nodes = (
(259,626,l),
(190,619,o),
(155,581,o),
(155,529,cs),
(155,467,o),
(209,439,o),
(259,418,c)
);
}
);
width = 578;
},
{
layerId = "F1A19D98-9E48-4F05-B6A0-CD51606DBCB8";
shapes = (
{
closed = 1;
nodes = (
(254,-4,l),
(158,-4,o),
(82,42,o),
(31,98,c),
(79,151,l),
(122,107,o),
(178,69,o),
(254,65,c),
(254,322,l),
(134,365,o),
(60,424,o),
(60,525,cs),
(60,628,o),
(145,699,o),
(254,710,c),
(254,777,l),
(319,777,l),
(319,711,l),
(407,703,o),
(456,663,o),
(484,624,c),
(433,572,l),
(409,607,o),
(366,633,o),
(318,638,c),
(318,389,l),
(457,340,o),
(519,283,o),
(519,192,cs),
(519,86,o),
(435,9,o),
(319,-4,c),
(319,-95,l),
(254,-95,l)
);
},
{
closed = 1;
nodes = (
(319,66,l),
(400,78,o),
(437,122,o),
(437,179,cs),
(437,248,o),
(379,282,o),
(319,302,c)
);
},
{
closed = 1;
nodes = (
(254,640,l),
(181,632,o),
(142,591,o),
(142,534,cs),
(142,468,o),
(200,436,o),
(254,412,c)
);
}
);
width = 564;
}
);
unicode = 36;
},
{
glyphname = percent;
lastChange = "2024-01-25 14:19:30 +0000";
layers = (
{
layerId = "F6364453-91B0-4CE2-A857-F52B6F68B874";
shapes = (
{
closed = 1;
nodes = (
(110,333,o),
(38,419,o),
(38,522,cs),
(38,625,o),
(110,710,o),
(219,710,cs),
(327,710,o),
(399,624,o),
(399,523,cs),
(399,420,o),
(327,333,o),
(218,333,cs)
);
},
{
closed = 1;
nodes = (
(183,600,o),
(160,567,o),
(160,523,cs),
(160,478,o),
(186,443,o),
(219,443,cs),
(254,443,o),
(277,478,o),
(277,522,cs),
(277,558,o),
(260,600,o),
(218,600,cs)
);
},
{
closed = 1;
nodes = (
(578,-10,o),
(506,77,o),
(506,179,cs),
(506,282,o),
(578,367,o),
(687,367,cs),
(795,367,o),
(867,284,o),
(867,180,cs),
(867,79,o),
(794,-10,o),
(687,-10,cs)
);
},
{
closed = 1;
nodes = (
(650,257,o),
(628,225,o),
(628,180,cs),
(628,136,o),
(654,100,o),
(687,100,cs),
(722,100,o),
(745,135,o),
(745,179,cs),
(745,215,o),
(728,257,o),
(686,257,cs)
);
},
{
closed = 1;
nodes = (
(115,0,l),
(655,700,l),
(790,700,l),
(250,0,l)
);
}
);
width = 904;
},
{
layerId = "8AF3DB8E-7EC5-4D7D-A87A-6DF3FCB8CADF";
shapes = (
{
closed = 1;
nodes = (
(111,356,o),
(43,437,o),
(43,540,cs),
(43,640,o),
(113,721,o),
(212,721,cs),
(313,721,o),
(379,641,o),
(379,541,cs),
(379,444,o),
(316,356,o),
(211,356,cs)
);
},
{
closed = 1;
nodes = (
(155,653,o),
(119,605,o),
(119,540,cs),
(119,471,o),
(156,425,o),
(212,425,cs),
(271,425,o),
(303,472,o),
(303,536,cs),
(303,593,o),
(276,653,o),
(211,653,cs)
);
},
{
closed = 1;
nodes = (
(537,-11,o),
(471,70,o),
(471,170,cs),
(471,271,o),
(541,351,o),
(639,351,cs),
(739,351,o),
(806,272,o),
(806,171,cs),
(806,74,o),
(742,-11,o),
(638,-11,cs)
);
},
{
closed = 1;
nodes = (
(582,283,o),
(547,238,o),
(547,170,cs),
(547,99,o),
(587,58,o),
(639,58,cs),
(695,58,o),
(730,106,o),
(730,170,cs),
(730,228,o),
(702,283,o),
(638,283,cs)
);
},
{
closed = 1;
nodes = (
(138,-3,l),
(629,719,l),
(707,708,l),
(215,-16,l)
);
}
);
width = 849;
},
{
layerId = "F1A19D98-9E48-4F05-B6A0-CD51606DBCB8";
shapes = (
{
closed = 1;
nodes = (
(111,361,o),
(44,441,o),
(44,543,cs),
(44,643,o),
(114,723,o),
(210,723,cs),
(310,723,o),
(375,644,o),
(375,544,cs),
(375,448,o),
(313,361,o),
(209,361,cs)
);
},
{
closed = 1;
nodes = (
(149,663,o),
(111,612,o),
(111,543,cs),
(111,470,o),
(150,421,o),
(210,421,cs),
(274,421,o),
(308,471,o),
(308,539,cs),
(308,600,o),
(278,663,o),
(209,663,cs)
);
},
{
closed = 1;
nodes = (
(528,-11,o),
(464,69,o),
(464,168,cs),
(464,269,o),
(534,348,o),
(629,348,cs),
(728,348,o),
(794,269,o),
(794,169,cs),
(794,74,o),
(730,-11,o),
(628,-11,cs)
);
},
{
closed = 1;
nodes = (
(568,288,o),
(531,240,o),
(531,168,cs),
(531,92,o),
(573,49,o),
(629,49,cs),
(690,49,o),
(727,100,o),
(727,168,cs),
(727,230,o),
(696,288,o),
(628,288,cs)
);
},
{
closed = 1;
nodes = (
(142,-4,l),
(624,723,l),
(690,709,l),
(208,-19,l)
);
}
);
width = 838;
}
);
unicode = 37;
},
{
glyphname = ampersand;
lastChange = "2024-01-25 14:19:30 +0000";
layers = (
{
layerId = "F6364453-91B0-4CE2-A857-F52B6F68B874";
shapes = (
{
closed = 1;
nodes = (
(286,278,l),
(251,257,o),
(236,231,o),
(236,200,cs),
(236,159,o),
(270,131,o),
(318,131,cs),
(346,131,o),
(374,142,o),
(401,161,c)
);
},
{
closed = 1;
nodes = (
(708,341,l),
(679,288,o),
(642,218,o),
(609,173,c),
(735,34,l),
(560,-5,l),
(500,59,l),
(440,14,o),
(373,-12,o),
(292,-12,cs),
(149,-12,o),
(42,63,o),
(42,192,cs),
(42,280,o),
(88,345,o),
(184,388,c),
(152,435,o),
(138,482,o),
(138,529,cs),
(138,630,o),
(221,719,o),
(358,719,cs),
(486,719,o),
(566,641,o),
(566,537,cs),
(566,452,o),
(512,394,o),
(429,355,c),
(507,274,l),
(530,307,o),
(552,345,o),
(573,385,c)
);
},
{
closed = 1;
nodes = (
(302,495,o),
(314,473,o),
(338,442,c),
(389,467,o),
(412,495,o),
(412,530,cs),
(412,565,o),
(390,586,o),
(358,586,cs),
(321,586,o),
(302,556,o),
(302,522,cs)
);
}
);
width = 748;
},
{
layerId = "8AF3DB8E-7EC5-4D7D-A87A-6DF3FCB8CADF";
shapes = (
{
closed = 1;
nodes = (
(270,340,l),
(198,307,o),
(158,262,o),
(158,197,cs),
(158,126,o),
(211,69,o),
(288,69,cs),
(349,69,o),
(397,105,o),
(438,152,c)
);
},
{
closed = 1;
nodes = (
(662,346,l),
(631,281,o),
(595,217,o),
(556,161,c),
(688,16,l),
(582,-5,l),
(494,86,l),
(433,25,o),
(368,-11,o),
(280,-11,cs),
(152,-11,o),
(53,67,o),
(53,192,cs),
(53,293,o),
(113,363,o),
(218,403,c),
(179,454,o),
(153,500,o),
(153,556,cs),
(153,652,o),
(228,719,o),
(335,719,cs),
(439,719,o),
(511,648,o),
(511,563,cs),
(511,475,o),
(449,422,o),
(357,383,c),
(499,227,l),
(530,275,o),
(555,320,o),
(579,373,c)
);
},
{
closed = 1;
nodes = (
(247,518,o),
(270,483,o),
(307,439,c),
(372,464,o),
(419,506,o),
(419,558,cs),
(419,609,o),
(382,640,o),
(334,640,cs),
(283,640,o),
(247,606,o),
(247,555,cs)
);
}
);
width = 695;
},
{
layerId = "F1A19D98-9E48-4F05-B6A0-CD51606DBCB8";
shapes = (
{
closed = 1;
nodes = (
(267,352,l),
(187,317,o),
(142,268,o),
(142,196,cs),
(142,119,o),
(198,57,o),
(282,57,cs),
(350,57,o),
(402,97,o),
(445,150,c)
);
},
{
closed = 1;
nodes = (
(653,347,l),
(621,279,o),
(585,218,o),
(545,158,c),
(678,12,l),
(586,-5,l),
(493,91,l),
(432,27,o),
(366,-11,o),
(277,-11,cs),
(152,-11,o),
(55,68,o),
(55,192,cs),
(55,296,o),
(117,366,o),
(225,406,c),
(184,457,o),
(156,505,o),
(156,561,cs),
(156,656,o),
(231,719,o),
(330,719,cs),
(430,719,o),
(500,651,o),
(500,568,cs),
(500,479,o),
(436,427,o),
(343,388,c),
(497,217,l),
(530,268,o),
(556,315,o),
(580,371,c)
);
},
{
closed = 1;
nodes = (
(236,523,o),
(261,485,o),
(301,438,c),
(369,463,o),
(420,507,o),
(420,563,cs),
(420,616,o),
(380,651,o),
(329,651,cs),
(276,651,o),
(236,616,o),
(236,562,cs)
);
}
);
width = 684;
}
);
unicode = 38;
},
{
glyphname = quotesingle;
lastChange = "2024-01-25 14:19:30 +0000";
layers = (
{
layerId = "F6364453-91B0-4CE2-A857-F52B6F68B874";
shapes = (
{
closed = 1;
nodes = (
(366,700,l),
(366,699,l),
(366,697,l),
(239,341,l),
(136,341,l),
(158,700,l)
);
}
);
width = 408;
},
{
layerId = "8AF3DB8E-7EC5-4D7D-A87A-6DF3FCB8CADF";
shapes = (
{
closed = 1;
nodes = (
(210,707,l),
(210,707,l),
(200,662,l),
(137,426,l),
(74,426,l),
(99,707,l)
);
}
);
width = 284;
},
{
layerId = "F1A19D98-9E48-4F05-B6A0-CD51606DBCB8";
shapes = (
{
closed = 1;
nodes = (
(188,708,l),
(188,708,l),
(176,655,l),
(126,443,l),
(71,443,l),
(96,708,l)
);
}
);
width = 259;
}
);
unicode = 39;
},
{
glyphname = parenleft;
lastChange = "2024-01-25 14:19:30 +0000";
layers = (
{
layerId = "F6364453-91B0-4CE2-A857-F52B6F68B874";
shapes = (
{
closed = 1;
nodes = (
(342,-130,l),
(171,-42,o),
(70,83,o),
(70,287,cs),
(70,491,o),
(181,613,o),
(346,706,c),
(441,597,l),
(312,508,o),
(256,418,o),
(256,287,cs),
(256,143,o),
(327,56,o),
(441,-23,c)
);
}
);
width = 474;
},
{
layerId = "8AF3DB8E-7EC5-4D7D-A87A-6DF3FCB8CADF";
shapes = (
{
closed = 1;
nodes = (
(310,-158,l),
(163,-49,o),
(75,98,o),
(75,285,cs),
(75,470,o),
(160,609,o),
(309,732,c),
(361,671,l),
(236,556,o),
(174,440,o),
(174,285,cs),
(174,123,o),
(244,8,o),
(360,-99,c)
);
}
);
width = 409;
},
{
layerId = "F1A19D98-9E48-4F05-B6A0-CD51606DBCB8";
shapes = (
{
closed = 1;
nodes = (
(303,-164,l),
(162,-49,o),
(76,101,o),
(76,284,cs),
(76,464,o),
(154,609,o),
(301,737,c),
(345,686,l),
(220,565,o),
(158,443,o),
(158,284,cs),
(158,119,o),
(228,-1,o),
(344,-114,c)
);
}
);
width = 396;
}
);
unicode = 40;
},
{
glyphname = parenright;
lastChange = "2024-01-25 14:19:30 +0000";
layers = (
{
layerId = "F6364453-91B0-4CE2-A857-F52B6F68B874";
shapes = (
{
closed = 1;
nodes = (
(129,706,l),
(304,613,o),
(405,488,o),
(405,287,cs),
(405,84,o),
(308,-40,o),
(133,-130,c),
(34,-23,l),
(163,66,o),
(219,156,o),
(219,287,cs),
(219,431,o),
(148,518,o),
(34,597,c)
);
}
);
width = 474;
},
{
layerId = "8AF3DB8E-7EC5-4D7D-A87A-6DF3FCB8CADF";
shapes = (
{
closed = 1;
nodes = (
(102,732,l),
(253,607,o),
(336,467,o),
(336,285,cs),
(336,101,o),
(249,-44,o),
(101,-158,c),
(49,-99,l),
(180,17,o),
(237,136,o),
(237,285,cs),
(237,448,o),
(171,566,o),
(48,671,c)
);
}
);
width = 411;
},
{
layerId = "F1A19D98-9E48-4F05-B6A0-CD51606DBCB8";
shapes = (
{
closed = 1;
nodes = (
(96,737,l),
(244,606,o),
(322,462,o),
(322,284,cs),
(322,103,o),
(237,-43,o),
(95,-164,c),
(52,-114,l),
(183,7,o),
(240,131,o),
(240,284,cs),
(240,453,o),
(174,574,o),
(51,686,c)
);
}
);
width = 398;
}
);
unicode = 41;
},
{
glyphname = asterisk;
lastChange = "2024-01-25 14:19:30 +0000";
layers = (
{
layerId = "F6364453-91B0-4CE2-A857-F52B6F68B874";
shapes = (
{
closed = 1;
nodes = (
(132,710,l),
(209,602,l),
(286,710,l),
(352,663,l),
(277,552,l),
(400,510,l),
(375,435,l),
(251,476,l),
(251,340,l),
(169,340,l),
(169,478,l),
(42,435,l),
(18,510,l),
(144,554,l),
(66,663,l)
);
}
);
width = 417;
},
{
layerId = "8AF3DB8E-7EC5-4D7D-A87A-6DF3FCB8CADF";
shapes = (
{
closed = 1;
nodes = (
(118,723,l),
(183,637,l),
(247,723,l),
(300,688,l),
(236,598,l),
(338,563,l),
(318,502,l),
(215,536,l),
(215,423,l),
(151,423,l),
(151,537,l),
(47,502,l),
(26,563,l),
(131,599,l),
(65,686,l)
);
}
);
width = 364;
},
{
layerId = "F1A19D98-9E48-4F05-B6A0-CD51606DBCB8";
shapes = (
{
closed = 1;
nodes = (
(115,725,l),
(178,644,l),
(239,725,l),
(289,693,l),
(228,607,l),
(325,573,l),
(306,515,l),
(208,548,l),
(208,440,l),
(147,440,l),
(147,549,l),
(48,515,l),
(28,573,l),
(128,608,l),
(65,690,l)
);
}
);
width = 353;
}
);
unicode = 42;
},
{
glyphname = plus;
lastChange = "2024-01-25 14:19:30 +0000";
layers = (
{
layerId = "F6364453-91B0-4CE2-A857-F52B6F68B874";
shapes = (
{
closed = 1;
nodes = (
(593,436,l),
(593,268,l),
(424,268,l),
(424,96,l),
(250,96,l),
(250,268,l),
(81,268,l),
(81,436,l),
(250,436,l),
(250,608,l),
(424,608,l),
(424,436,l)
);
}
);
width = 674;
},
{
layerId = "8AF3DB8E-7EC5-4D7D-A87A-6DF3FCB8CADF";
shapes = (
{
closed = 1;
nodes = (
(547,391,l),
(547,301,l),
(346,301,l),
(346,99,l),
(253,99,l),
(253,301,l),
(53,301,l),
(53,391,l),
(253,391,l),
(253,592,l),
(346,592,l),
(346,391,l)
);
}
);
width = 600;
},
{
layerId = "F1A19D98-9E48-4F05-B6A0-CD51606DBCB8";
shapes = (
{
closed = 1;
nodes = (
(538,382,l),
(538,308,l),
(330,308,l),
(330,100,l),
(253,100,l),
(253,308,l),
(47,308,l),
(47,382,l),
(253,382,l),
(253,589,l),
(330,589,l),
(330,382,l)
);
}
);
width = 585;
}
);
unicode = 43;
},
{
glyphname = comma;
lastChange = "2024-01-25 14:19:30 +0000";
layers = (
{
layerId = "F6364453-91B0-4CE2-A857-F52B6F68B874";
shapes = (
{
closed = 1;
nodes = (
(7,-164,l),
(69,197,l),
(240,197,l),
(137,-164,l)
);
}
);
width = 280;
},
{
layerId = "8AF3DB8E-7EC5-4D7D-A87A-6DF3FCB8CADF";
shapes = (
{
closed = 1;
nodes = (
(30,-143,l),
(77,133,l),
(188,133,l),
(110,-143,l)
);
}
);
width = 257;
},
{
layerId = "F1A19D98-9E48-4F05-B6A0-CD51606DBCB8";
shapes = (
{
closed = 1;
nodes = (
(35,-139,l),
(79,120,l),
(178,120,l),
(104,-139,l)
);
}
);
width = 252;
}
);
unicode = 44;
},
{
glyphname = hyphen;
lastChange = "2024-01-25 14:19:30 +0000";
layers = (
{
layerId = "F6364453-91B0-4CE2-A857-F52B6F68B874";
shapes = (
{
closed = 1;
nodes = (
(22,189,l),
(22,356,l),
(350,356,l),
(350,189,l)
);
}
);
width = 371;
},
{
layerId = "8AF3DB8E-7EC5-4D7D-A87A-6DF3FCB8CADF";
shapes = (
{
closed = 1;
nodes = (
(30,227,l),
(30,319,l),
(310,319,l),
(310,227,l)
);
}
);
width = 339;
},
{
layerId = "F1A19D98-9E48-4F05-B6A0-CD51606DBCB8";
shapes = (
{
closed = 1;
nodes = (
(31,234,l),
(31,311,l),
(302,311,l),
(302,234,l)
);
}
);
width = 333;
}
);
unicode = 45;
},
{
glyphname = period;
lastChange = "2024-01-25 14:19:30 +0000";
layers = (
{
layerId = "F6364453-91B0-4CE2-A857-F52B6F68B874";
shapes = (
{
closed = 1;
nodes = (
(238,206,o),
(287,169,o),
(287,97,cs),
(287,25,o),
(238,-13,o),
(174,-13,cs),
(110,-13,o),
(62,25,o),
(62,97,cs),
(62,166,o),
(106,206,o),
(174,206,cs)
);
}
);
width = 350;
},
{
layerId = "8AF3DB8E-7EC5-4D7D-A87A-6DF3FCB8CADF";
shapes = (
{
closed = 1;
nodes = (
(187,126,o),
(218,97,o),
(218,58,cs),
(218,19,o),
(187,-11,o),
(150,-11,cs),
(111,-11,o),
(81,19,o),
(81,58,cs),
(81,98,o),
(111,126,o),
(150,126,cs)
);
}
);
width = 300;
},
{
layerId = "F1A19D98-9E48-4F05-B6A0-CD51606DBCB8";
shapes = (
{
closed = 1;
nodes = (
(177,110,o),
(204,83,o),
(204,51,cs),
(204,18,o),
(177,-10,o),
(145,-10,cs),
(112,-10,o),
(85,18,o),
(85,51,cs),
(85,84,o),
(112,110,o),
(145,110,cs)
);
}
);
width = 290;
}
);
unicode = 46;
},
{
glyphname = slash;
lastChange = "2024-01-25 14:19:30 +0000";
layers = (
{
layerId = "F6364453-91B0-4CE2-A857-F52B6F68B874";
shapes = (
{
closed = 1;
nodes = (
(-1,-128,l),
(442,798,l),
(596,798,l),
(153,-128,l)
);
}
);
width = 595;
},
{
layerId = "8AF3DB8E-7EC5-4D7D-A87A-6DF3FCB8CADF";
shapes = (
{
closed = 1;
nodes = (
(2,-86,l),
(433,786,l),
(523,786,l),
(89,-86,l)
);
}
);
width = 518;
},
{
layerId = "F1A19D98-9E48-4F05-B6A0-CD51606DBCB8";
shapes = (
{
closed = 1;
nodes = (
(2,-77,l),
(431,783,l),
(508,783,l),
(77,-77,l)
);
}
);
width = 502;
}
);
unicode = 47;
},
{
glyphname = zero;
lastChange = "2024-01-25 14:19:30 +0000";
layers = (
{
layerId = "F6364453-91B0-4CE2-A857-F52B6F68B874";
shapes = (
{
closed = 1;
nodes = (
(233,240,o),
(286,158,o),
(363,158,cs),
(441,158,o),
(491,239,o),
(491,350,cs),
(491,461,o),
(438,542,o),
(361,542,cs),
(265,542,o),
(233,431,o),
(233,352,cs)
);
},
{
closed = 1;
nodes = (
(686,155,o),
(561,-14,o),
(361,-14,cs),
(161,-14,o),
(38,152,o),
(38,350,cs),
(38,548,o),
(164,714,o),
(363,714,cs),
(564,714,o),
(686,547,o),
(686,352,cs)
);
}
);
width = 723;
},
{
layerId = "8AF3DB8E-7EC5-4D7D-A87A-6DF3FCB8CADF";
shapes = (
{
closed = 1;
nodes = (
(148,188,o),
(209,78,o),
(320,78,cs),
(428,78,o),
(489,193,o),
(489,352,cs),
(489,515,o),
(426,626,o),
(318,626,cs),
(184,626,o),
(148,463,o),
(148,356,cs)
);
},
{
closed = 1;
nodes = (
(594,141,o),
(498,-14,o),
(318,-14,cs),
(140,-14,o),
(43,134,o),
(43,353,cs),
(43,564,o),
(140,718,o),
(319,718,cs),
(521,718,o),
(594,531,o),
(594,352,cs)
);
}
);
width = 636;
},
{
layerId = "F1A19D98-9E48-4F05-B6A0-CD51606DBCB8";
shapes = (
{
closed = 1;
nodes = (
(131,178,o),
(194,62,o),
(311,62,cs),
(425,62,o),
(489,184,o),
(489,352,cs),
(489,527,o),
(424,636,o),
(310,640,cs),
(168,646,o),
(131,464,o),
(131,357,cs)
);
},
{
closed = 1;
nodes = (
(576,139,o),
(485,-14,o),
(309,-14,cs),
(136,-14,o),
(44,130,o),
(44,354,cs),
(44,567,o),
(136,719,o),
(310,719,cs),
(512,719,o),
(576,527,o),
(576,352,cs)
);
}
);
width = 619;
}
);
unicode = 48;
},
{
glyphname = one;
lastChange = "2024-01-25 14:19:30 +0000";
layers = (
{
layerId = "F6364453-91B0-4CE2-A857-F52B6F68B874";
shapes = (
{
closed = 1;
nodes = (
(169,0,l),
(169,524,l),
(14,524,l),
(14,705,l),
(360,705,l),
(360,0,l)
);
}
);
width = 435;
},
{
layerId = "8AF3DB8E-7EC5-4D7D-A87A-6DF3FCB8CADF";
shapes = (
{
closed = 1;
nodes = (
(125,0,l),
(125,612,l),
(9,612,l),
(9,708,l),
(227,708,l),
(227,0,l)
);
}
);
width = 330;
},
{
layerId = "F1A19D98-9E48-4F05-B6A0-CD51606DBCB8";
shapes = (
{
closed = 1;
nodes = (
(116,0,l),
(116,630,l),
(8,630,l),
(8,708,l),
(200,708,l),
(200,0,l)
);
}
);
width = 309;
}
);
unicode = 49;
},
{
glyphname = two;
lastChange = "2024-01-25 14:19:30 +0000";
layers = (
{
layerId = "F6364453-91B0-4CE2-A857-F52B6F68B874";
shapes = (
{
closed = 1;
nodes = (
(547,406,o),
(506,343,o),
(429,242,cs),
(366,158,l),
(554,158,l),
(554,0,l),
(0,0,l),
(280,328,ls),
(332,389,o),
(352,437,o),
(352,472,cs),
(352,516,o),
(320,543,o),
(274,543,cs),
(229,543,o),
(181,517,o),
(181,453,c),
(4,453,l),
(4,622,o),
(133,712,o),
(279,712,cs),
(414,712,o),
(547,643,o),
(547,489,cs)
);
}
);
width = 595;
},
{
layerId = "8AF3DB8E-7EC5-4D7D-A87A-6DF3FCB8CADF";
shapes = (
{
closed = 1;
nodes = (
(506,448,o),
(464,379,o),
(367,262,cs),
(224,90,l),
(519,90,l),
(519,0,l),
(29,0,l),
(288,313,ls),
(368,409,o),
(400,473,o),
(400,525,cs),
(400,577,o),
(367,626,o),
(283,626,cs),
(206,626,o),
(158,577,o),
(147,503,c),
(40,503,l),
(61,650,o),
(149,717,o),
(283,717,cs),
(397,717,o),
(506,648,o),
(506,522,cs)
);
}
);
width = 586;
},
{
layerId = "F1A19D98-9E48-4F05-B6A0-CD51606DBCB8";
shapes = (
{
closed = 1;
nodes = (
(498,458,o),
(456,386,o),
(355,266,cs),
(196,76,l),
(512,76,l),
(512,0,l),
(35,0,l),
(289,310,ls),
(373,414,o),
(409,480,o),
(409,536,cs),
(409,589,o),
(377,642,o),
(285,642,cs),
(201,642,o),
(153,589,o),
(140,513,c),
(47,513,l),
(71,654,o),
(153,720,o),
(283,720,cs),
(392,720,o),
(498,649,o),
(498,528,cs)
);
}
);
width = 584;
}
);
unicode = 50;
},
{
glyphname = three;
lastChange = "2024-01-25 14:19:30 +0000";
layers = (
{
layerId = "F6364453-91B0-4CE2-A857-F52B6F68B874";
shapes = (
{
closed = 1;
nodes = (
(420,418,l),
(520,397,o),
(601,340,o),
(601,221,cs),
(601,80,o),
(493,-14,o),
(328,-14,cs),
(200,-14,o),
(101,34,o),
(33,110,c),
(168,219,l),
(213,175,o),
(266,152,o),
(317,152,cs),
(376,152,o),
(412,182,o),
(412,225,cs),
(412,270,o),
(371,297,o),
(298,297,cs),
(285,297,o),
(231,297,o),
(216,297,c),
(188,398,l),
(349,543,l),
(81,543,l),
(81,700,l),
(587,700,l),
(587,561,l)
);
}
);
width = 642;
},
{
layerId = "8AF3DB8E-7EC5-4D7D-A87A-6DF3FCB8CADF";
shapes = (
{
closed = 1;
nodes = (
(331,438,l),
(454,433,o),
(548,357,o),
(548,224,cs),
(548,92,o),
(444,-13,o),
(301,-13,cs),
(178,-13,o),
(94,52,o),
(51,148,c),
(131,208,l),
(166,124,o),
(216,78,o),
(300,78,cs),
(383,78,o),
(445,133,o),
(445,222,cs),
(445,323,o),
(374,364,o),
(277,364,cs),
(256,364,o),
(225,363,o),
(204,358,c),
(190,412,l),
(393,626,l),
(94,626,l),
(94,715,l),
(521,715,l),
(521,630,l)
);
}
);
width = 615;
},
{
layerId = "F1A19D98-9E48-4F05-B6A0-CD51606DBCB8";
shapes = (
{
closed = 1;
nodes = (
(313,442,l),
(441,439,o),
(537,360,o),
(537,225,cs),
(537,93,o),
(434,-13,o),
(295,-13,cs),
(174,-13,o),
(91,56,o),
(55,156,c),
(124,206,l),
(155,114,o),
(207,63,o),
(296,63,cs),
(384,63,o),
(452,123,o),
(452,221,cs),
(452,334,o),
(373,377,o),
(273,377,cs),
(249,377,o),
(225,375,o),
(201,370,c),
(190,415,l),
(402,642,l),
(96,642,l),
(96,718,l),
(508,718,l),
(508,644,l)
);
}
);
width = 609;
}
);
unicode = 51;
},
{
glyphname = four;
lastChange = "2024-01-25 14:19:30 +0000";
layers = (
{
layerId = "F6364453-91B0-4CE2-A857-F52B6F68B874";
shapes = (
{
closed = 1;
nodes = (
(581,281,l),
(670,281,l),
(670,136,l),
(581,136,l),
(581,0,l),
(393,0,l),
(393,136,l),
(54,136,l),
(22,274,l),
(385,705,l),
(581,705,l)
);
},
{
closed = 1;
nodes = (
(226,281,l),
(393,281,l),
(393,481,l)
);
}
);
width = 695;
},
{
layerId = "8AF3DB8E-7EC5-4D7D-A87A-6DF3FCB8CADF";
shapes = (
{
closed = 1;
nodes = (
(501,235,l),
(598,235,l),
(598,150,l),
(501,150,l),
(501,0,l),
(401,0,l),
(401,150,l),
(33,150,l),
(15,237,l),
(363,711,l),
(501,711,l)
);
},
{
closed = 1;
nodes = (
(129,235,l),
(401,235,l),
(401,609,l)
);
}
);
width = 632;
},
{
layerId = "F1A19D98-9E48-4F05-B6A0-CD51606DBCB8";
shapes = (
{
closed = 1;
nodes = (
(485,226,l),
(583,226,l),
(583,153,l),
(485,153,l),
(485,0,l),
(403,0,l),
(403,153,l),
(29,153,l),
(13,229,l),
(358,712,l),
(485,712,l)
);
},
{
closed = 1;
nodes = (
(110,226,l),
(403,226,l),
(403,635,l)
);
}
);
width = 619;
}
);
unicode = 52;
},
{
glyphname = five;
lastChange = "2024-01-25 14:19:30 +0000";
layers = (
{
layerId = "F6364453-91B0-4CE2-A857-F52B6F68B874";
shapes = (
{
closed = 1;
nodes = (
(99,700,l),
(567,700,l),
(567,540,l),
(252,540,l),
(246,434,l),
(278,449,o),
(311,459,o),
(358,459,cs),
(483,459,o),
(598,389,o),
(598,237,cs),
(598,81,o),
(480,-14,o),
(309,-14,cs),
(184,-14,o),
(98,29,o),
(25,97,c),
(136,227,l),
(193,179,o),
(246,151,o),
(306,151,cs),
(370,151,o),
(409,184,o),
(409,235,cs),
(409,286,o),
(367,316,o),
(306,316,cs),
(263,316,o),
(227,301,o),
(194,281,c),
(79,345,l)
);
}
);
width = 635;
},
{
layerId = "8AF3DB8E-7EC5-4D7D-A87A-6DF3FCB8CADF";
shapes = (
{
closed = 1;
nodes = (
(102,704,l),
(490,704,l),
(484,615,l),
(185,615,l),
(165,426,l),
(204,438,o),
(234,447,o),
(273,447,cs),
(405,447,o),
(514,363,o),
(514,225,cs),
(514,81,o),
(411,-13,o),
(256,-13,cs),
(155,-13,o),
(90,24,o),
(23,85,c),
(83,154,l),
(134,106,o),
(188,77,o),
(255,77,cs),
(354,77,o),
(412,136,o),
(412,221,cs),
(412,304,o),
(340,360,o),
(246,360,cs),
(210,360,o),
(178,352,o),
(146,339,c),
(72,375,l)
);
}
);
width = 574;
},
{
layerId = "F1A19D98-9E48-4F05-B6A0-CD51606DBCB8";
shapes = (
{
closed = 1;
nodes = (
(103,705,l),
(474,705,l),
(467,630,l),
(171,630,l),
(149,424,l),
(188,436,o),
(219,444,o),
(256,444,cs),
(389,444,o),
(497,358,o),
(497,222,cs),
(497,81,o),
(397,-13,o),
(245,-13,cs),
(149,-13,o),
(87,23,o),
(23,83,c),
(72,139,l),
(121,91,o),
(177,62,o),
(245,62,cs),
(349,62,o),
(412,126,o),
(412,218,cs),
(412,306,o),
(335,369,o),
(234,369,cs),
(199,369,o),
(168,362,o),
(136,350,c),
(71,381,l)
);
}
);
width = 562;
}
);
unicode = 53;
},
{
glyphname = six;
lastChange = "2024-01-25 14:19:30 +0000";
layers = (
{
layerId = "F6364453-91B0-4CE2-A857-F52B6F68B874";
shapes = (
{
closed = 1;
nodes = (
(285,414,l),
(320,441,o),
(345,458,o),
(414,458,cs),
(537,458,o),
(615,380,o),
(615,240,cs),
(615,83,o),
(493,-14,o),
(333,-14,cs),
(148,-14,o),
(34,84,o),
(34,222,cs),
(34,297,o),
(63,363,o),
(164,515,cs),
(292,706,l),
(495,706,l)
);
},
{
closed = 1;
nodes = (
(390,137,o),
(426,177,o),
(426,229,cs),
(426,280,o),
(388,319,o),
(327,319,cs),
(266,319,o),
(230,280,o),
(230,230,cs),
(230,174,o),
(273,137,o),
(329,137,cs)
);
}
);
width = 649;
},
{
layerId = "8AF3DB8E-7EC5-4D7D-A87A-6DF3FCB8CADF";
shapes = (
{
closed = 1;
nodes = (
(219,402,l),
(256,429,o),
(287,433,o),
(332,433,cs),
(455,433,o),
(551,352,o),
(551,219,cs),
(551,82,o),
(443,-14,o),
(302,-14,cs),
(158,-14,o),
(47,77,o),
(47,224,cs),
(47,295,o),
(80,354,o),
(149,458,cs),
(313,706,l),
(426,706,l)
);
},
{
closed = 1;
nodes = (
(389,71,o),
(448,131,o),
(448,216,cs),
(448,295,o),
(389,353,o),
(300,353,cs),
(209,353,o),
(151,290,o),
(151,213,cs),
(151,131,o),
(220,71,o),
(301,71,cs)
);
}
);
width = 600;
},
{
layerId = "F1A19D98-9E48-4F05-B6A0-CD51606DBCB8";
shapes = (
{
closed = 1;
nodes = (
(206,399,l),
(244,426,o),
(275,428,o),
(315,428,cs),
(438,428,o),
(538,346,o),
(538,215,cs),
(538,82,o),
(433,-14,o),
(296,-14,cs),
(160,-14,o),
(49,75,o),
(49,224,cs),
(49,295,o),
(83,352,o),
(146,447,cs),
(317,706,l),
(412,706,l)
);
},
{
closed = 1;
nodes = (
(387,58,o),
(452,122,o),
(452,213,cs),
(452,298,o),
(388,360,o),
(295,360,cs),
(199,360,o),
(135,292,o),
(135,209,cs),
(135,123,o),
(209,58,o),
(295,58,cs)
);
}
);
width = 590;
}
);
unicode = 54;
},
{
glyphname = seven;
lastChange = "2024-01-25 14:19:30 +0000";
layers = (
{
layerId = "F6364453-91B0-4CE2-A857-F52B6F68B874";
shapes = (
{
closed = 1;
nodes = (
(45,0,l),
(353,537,l),
(29,537,l),
(29,700,l),
(568,700,l),
(568,554,l),
(259,0,l)
);
}
);
width = 558;
},
{
layerId = "8AF3DB8E-7EC5-4D7D-A87A-6DF3FCB8CADF";
shapes = (
{
closed = 1;
nodes = (
(78,0,l),
(416,615,l),
(37,615,l),
(37,704,l),
(526,704,l),
(526,617,l),
(191,0,l)
);
}
);
width = 521;
},
{
layerId = "F1A19D98-9E48-4F05-B6A0-CD51606DBCB8";
shapes = (
{
closed = 1;
nodes = (
(84,0,l),
(428,630,l),
(38,630,l),
(38,705,l),
(517,705,l),
(517,629,l),
(177,0,l)
);
}
);
width = 513;
}
);
unicode = 55;
},
{
glyphname = eight;
lastChange = "2024-01-25 14:19:30 +0000";
layers = (
{
layerId = "F6364453-91B0-4CE2-A857-F52B6F68B874";
shapes = (
{
closed = 1;
nodes = (
(569,330,o),
(617,272,o),
(617,196,cs),
(617,71,o),
(497,-12,o),
(329,-12,cs),
(161,-12,o),
(41,72,o),
(41,195,cs),
(41,275,o),
(85,331,o),
(161,363,c),
(105,394,o),
(65,440,o),
(65,516,cs),
(65,628,o),
(172,712,o),
(329,712,cs),
(486,712,o),
(593,628,o),
(593,516,cs),
(593,446,o),
(558,396,o),
(497,363,c)
);
},
{
closed = 1;
nodes = (
(381,416,o),
(415,453,o),
(415,493,cs),
(415,533,o),
(382,567,o),
(329,567,cs),
(276,567,o),
(243,534,o),
(243,494,cs),
(243,448,o),
(284,416,o),
(329,416,cs)
);
},
{
closed = 1;
nodes = (
(394,133,o),
(430,172,o),
(430,214,cs),
(430,259,o),
(388,290,o),
(329,290,cs),
(270,290,o),
(228,259,o),
(228,214,cs),
(228,160,o),
(280,133,o),
(329,133,cs)
);
}
);
width = 658;
},
{
layerId = "8AF3DB8E-7EC5-4D7D-A87A-6DF3FCB8CADF";
shapes = (
{
closed = 1;
nodes = (
(525,335,o),
(575,276,o),
(575,193,cs),
(575,69,o),
(465,-12,o),
(321,-12,cs),
(177,-12,o),
(67,75,o),
(67,191,cs),
(67,275,o),
(116,333,o),
(201,369,c),
(133,401,o),
(93,456,o),
(93,529,cs),
(93,638,o),
(196,717,o),
(321,717,cs),
(445,717,o),
(550,638,o),
(550,526,cs),
(550,451,o),
(504,401,o),
(440,368,c)
);
},
{
closed = 1;
nodes = (
(394,405,o),
(451,453,o),
(451,521,cs),
(451,585,o),
(395,633,o),
(321,633,cs),
(248,633,o),
(192,585,o),
(192,520,cs),
(192,450,o),
(253,405,o),
(321,405,cs)
);
},
{
closed = 1;
nodes = (
(412,72,o),
(473,130,o),
(473,199,cs),
(473,271,o),
(409,324,o),
(321,324,cs),
(233,324,o),
(170,271,o),
(170,199,cs),
(170,117,o),
(244,72,o),
(321,72,cs)
);
}
);
width = 642;
},
{
layerId = "F1A19D98-9E48-4F05-B6A0-CD51606DBCB8";
shapes = (
{
closed = 1;
nodes = (
(517,336,o),
(567,276,o),
(567,192,cs),
(567,69,o),
(459,-12,o),
(319,-12,cs),
(179,-12,o),
(72,75,o),
(72,190,cs),
(72,274,o),
(121,333,o),
(209,370,c),
(137,402,o),
(99,459,o),
(99,531,cs),
(99,640,o),
(199,718,o),
(319,718,cs),
(437,718,o),
(541,640,o),
(541,528,cs),
(541,453,o),
(493,401,o),
(429,369,c)
);
},
{
closed = 1;
nodes = (
(396,403,o),
(458,453,o),
(458,526,cs),
(458,595,o),
(397,646,o),
(319,646,cs),
(240,646,o),
(192,604,o),
(192,526,cs),
(192,449,o),
(258,403,o),
(319,403,cs)
);
},
{
closed = 1;
nodes = (
(415,60,o),
(481,120,o),
(481,196,cs),
(481,275,o),
(413,331,o),
(319,331,cs),
(226,331,o),
(158,274,o),
(158,196,cs),
(158,108,o),
(237,60,o),
(319,60,cs)
);
}
);
width = 639;
}
);
unicode = 56;
},
{
glyphname = nine;
lastChange = "2024-01-25 14:19:30 +0000";
layers = (
{
layerId = "F6364453-91B0-4CE2-A857-F52B6F68B874";
shapes = (
{
closed = 1;
nodes = (
(364,292,l),
(327,264,o),
(295,248,o),
(235,248,cs),
(112,248,o),
(34,328,o),
(34,468,cs),
(34,624,o),
(159,720,o),
(312,720,cs),
(503,720,o),
(615,622,o),
(615,484,cs),
(615,433,o),
(599,378,o),
(535,277,cs),
(357,0,l),
(154,0,l)
);
},
{
closed = 1;
nodes = (
(259,569,o),
(223,530,o),
(223,479,cs),
(223,429,o),
(261,387,o),
(322,387,cs),
(383,387,o),
(419,427,o),
(419,478,cs),
(419,534,o),
(375,569,o),
(320,569,cs)
);
}
);
width = 649;
},
{
layerId = "8AF3DB8E-7EC5-4D7D-A87A-6DF3FCB8CADF";
shapes = (
{
closed = 1;
nodes = (
(377,304,l),
(341,277,o),
(313,268,o),
(268,268,cs),
(144,268,o),
(47,356,o),
(47,486,cs),
(47,622,o),
(155,720,o),
(294,720,cs),
(442,720,o),
(550,626,o),
(550,480,cs),
(550,396,o),
(506,329,o),
(455,253,cs),
(284,-2,l),
(172,-2,l)
);
},
{
closed = 1;
nodes = (
(209,634,o),
(150,571,o),
(150,492,cs),
(150,412,o),
(209,352,o),
(297,352,cs),
(384,352,o),
(446,415,o),
(446,492,cs),
(446,573,o),
(376,634,o),
(296,634,cs)
);
}
);
width = 597;
},
{
layerId = "F1A19D98-9E48-4F05-B6A0-CD51606DBCB8";
shapes = (
{
closed = 1;
nodes = (
(380,306,l),
(344,279,o),
(316,272,o),
(275,272,cs),
(152,272,o),
(49,361,o),
(49,490,cs),
(49,621,o),
(154,720,o),
(290,720,cs),
(430,720,o),
(537,627,o),
(537,479,cs),
(537,391,o),
(487,317,o),
(439,248,cs),
(269,-2,l),
(176,-2,l)
);
},
{
closed = 1;
nodes = (
(199,647,o),
(135,579,o),
(135,494,cs),
(135,408,o),
(200,345,o),
(292,345,cs),
(384,345,o),
(451,413,o),
(451,495,cs),
(451,581,o),
(377,647,o),
(291,647,cs)
);
}
);
width = 586;
}
);
unicode = 57;
},
{
glyphname = colon;
lastChange = "2024-01-25 14:19:30 +0000";
layers = (
{
layerId = "F6364453-91B0-4CE2-A857-F52B6F68B874";
shapes = (
{
closed = 1;
nodes = (
(238,206,o),
(287,169,o),
(287,97,cs),
(287,25,o),
(238,-13,o),
(174,-13,cs),
(110,-13,o),
(62,25,o),
(62,97,cs),
(62,166,o),
(106,206,o),
(174,206,cs)
);
},
{
closed = 1;
nodes = (
(238,552,o),
(287,515,o),
(287,443,cs),
(287,371,o),
(238,333,o),
(174,333,cs),
(110,333,o),
(62,371,o),
(62,443,cs),
(62,512,o),
(106,552,o),
(174,552,cs)
);
}
);
width = 350;
},
{
layerId = "8AF3DB8E-7EC5-4D7D-A87A-6DF3FCB8CADF";
shapes = (
{
closed = 1;
nodes = (
(187,127,o),
(219,98,o),
(219,59,cs),
(219,19,o),
(187,-11,o),
(151,-11,cs),
(108,-11,o),
(81,19,o),
(81,59,cs),
(81,101,o),
(110,127,o),
(151,127,cs)
);
},
{
closed = 1;
nodes = (
(187,501,o),
(219,473,o),
(219,433,cs),
(219,392,o),
(187,364,o),
(151,364,cs),
(108,364,o),
(81,392,o),
(81,433,cs),
(81,475,o),
(110,501,o),
(151,501,cs)
);
}
);
width = 301;
},
{
layerId = "F1A19D98-9E48-4F05-B6A0-CD51606DBCB8";
shapes = (
{
closed = 1;
nodes = (
(177,111,o),
(205,84,o),
(205,51,cs),
(205,18,o),
(177,-10,o),
(146,-10,cs),
(109,-10,o),
(85,17,o),
(85,52,cs),
(85,87,o),
(112,111,o),
(146,111,cs)
);
},
{
closed = 1;
nodes = (
(177,491,o),
(205,464,o),
(205,431,cs),
(205,396,o),
(177,370,o),
(146,370,cs),
(109,370,o),
(85,396,o),
(85,432,cs),
(85,467,o),
(112,491,o),
(146,491,cs)
);
}
);
width = 291;
}
);
unicode = 58;
},
{
glyphname = semicolon;
lastChange = "2024-01-25 14:19:30 +0000";
layers = (
{
layerId = "F6364453-91B0-4CE2-A857-F52B6F68B874";
shapes = (
{
closed = 1;
nodes = (
(207,552,o),
(256,515,o),
(256,443,cs),
(256,371,o),
(207,333,o),
(143,333,cs),
(79,333,o),
(31,371,o),
(31,443,cs),
(31,512,o),
(75,552,o),
(143,552,cs)
);
},
{
closed = 1;
nodes = (
(7,-164,l),
(69,197,l),
(240,197,l),
(137,-164,l)
);
}
);
width = 297;
},
{
layerId = "8AF3DB8E-7EC5-4D7D-A87A-6DF3FCB8CADF";
shapes = (
{
closed = 1;
nodes = (
(164,501,o),
(196,473,o),
(196,433,cs),
(196,392,o),
(164,364,o),
(127,364,cs),
(87,364,o),
(58,392,o),
(58,433,cs),
(58,473,o),
(88,501,o),
(127,501,cs)
);
},
{
closed = 1;
nodes = (
(30,-143,l),
(77,133,l),
(189,133,l),
(110,-143,l)
);
}
);
width = 261;
},
{
layerId = "F1A19D98-9E48-4F05-B6A0-CD51606DBCB8";
shapes = (
{
closed = 1;
nodes = (
(155,491,o),
(184,464,o),
(184,431,cs),
(184,396,o),
(155,370,o),
(124,370,cs),
(88,370,o),
(63,396,o),
(63,431,cs),
(63,466,o),
(89,491,o),
(124,491,cs)
);
},
{
closed = 1;
nodes = (
(35,-139,l),
(78,120,l),
(179,120,l),
(105,-139,l)
);
}
);
width = 254;
}
);
unicode = 59;
},
{
glyphname = less;
lastChange = "2024-01-25 14:19:30 +0000";
layers = (
{
layerId = "F6364453-91B0-4CE2-A857-F52B6F68B874";
shapes = (
{
closed = 1;
nodes = (
(255,352,l),
(582,243,l),
(582,65,l),
(85,263,l),
(85,440,l),
(582,638,l),
(582,461,l)
);
}
);
width = 666;
},
{
layerId = "8AF3DB8E-7EC5-4D7D-A87A-6DF3FCB8CADF";
shapes = (
{
closed = 1;
nodes = (
(167,345,l),
(544,172,l),
(544,77,l),
(63,300,l),
(63,388,l),
(544,611,l),
(544,515,l)
);
}
);
width = 606;
},
{
layerId = "F1A19D98-9E48-4F05-B6A0-CD51606DBCB8";
shapes = (
{
closed = 1;
nodes = (
(149,343,l),
(536,158,l),
(536,79,l),
(58,307,l),
(58,378,l),
(536,606,l),
(536,526,l)
);
}
);
width = 594;
}
);
unicode = 60;
},
{
glyphname = equal;
lastChange = "2024-01-25 14:19:30 +0000";
layers = (
{
layerId = "F6364453-91B0-4CE2-A857-F52B6F68B874";
shapes = (
{
closed = 1;
nodes = (
(572,403,l),
(81,403,l),
(81,570,l),
(572,570,l)
);
},
{
closed = 1;
nodes = (
(572,134,l),
(81,134,l),
(81,301,l),
(572,301,l)
);
}
);
width = 653;
},
{
layerId = "8AF3DB8E-7EC5-4D7D-A87A-6DF3FCB8CADF";
shapes = (
{
closed = 1;
nodes = (
(530,432,l),
(53,432,l),
(53,523,l),
(530,523,l)
);
},
{
closed = 1;
nodes = (
(530,186,l),
(53,186,l),
(53,276,l),
(530,276,l)
);
}
);
width = 582;
},
{
layerId = "F1A19D98-9E48-4F05-B6A0-CD51606DBCB8";
shapes = (
{
closed = 1;
nodes = (
(524,438,l),
(47,438,l),
(47,513,l),
(521,513,l)
);
},
{
closed = 1;
nodes = (
(521,196,l),
(47,196,l),
(47,271,l),
(521,271,l)
);
}
);
width = 568;
}
);
unicode = 61;
},
{
glyphname = greater;
lastChange = "2024-01-25 14:19:30 +0000";
layers = (
{
layerId = "F6364453-91B0-4CE2-A857-F52B6F68B874";
shapes = (
{
closed = 1;
nodes = (
(582,440,l),
(582,263,l),
(85,65,l),
(85,242,l),
(412,351,l),
(85,460,l),
(85,638,l)
);
}
);
width = 667;
},
{
layerId = "8AF3DB8E-7EC5-4D7D-A87A-6DF3FCB8CADF";
shapes = (
{
closed = 1;
nodes = (
(543,389,l),
(543,299,l),
(63,78,l),
(63,174,l),
(439,344,l),
(63,514,l),
(63,611,l)
);
}
);
width = 605;
},
{
layerId = "F1A19D98-9E48-4F05-B6A0-CD51606DBCB8";
shapes = (
{
closed = 1;
nodes = (
(535,379,l),
(535,306,l),
(58,80,l),
(58,160,l),
(444,342,l),
(58,525,l),
(58,606,l)
);
}
);
width = 593;
}
);
unicode = 62;
},
{
glyphname = question;
lastChange = "2024-01-25 14:19:30 +0000";
layers = (
{
layerId = "F6364453-91B0-4CE2-A857-F52B6F68B874";
shapes = (
{
closed = 1;
nodes = (
(37,613,l),
(89,681,o),
(167,709,o),
(251,709,cs),
(374,709,o),
(487,637,o),
(487,506,cs),
(487,416,o),
(440,375,o),
(374,325,c),
(341,298,o),
(330,287,o),
(330,249,cs),
(330,218,l),
(156,218,l),
(156,261,ls),
(156,342,o),
(201,383,o),
(243,417,c),
(270,437,o),
(296,465,o),
(296,494,cs),
(296,531,o),
(254,547,o),
(216,547,cs),
(148,547,o),
(84,499,o),
(37,455,c)
);
},
{
closed = 1;
nodes = (
(310,180,o),
(358,148,o),
(358,84,cs),
(358,20,o),
(310,-13,o),
(250,-13,cs),
(190,-13,o),
(143,20,o),
(143,84,cs),
(143,148,o),
(190,180,o),
(250,180,cs)
);
}
);
width = 524;
},
{
layerId = "8AF3DB8E-7EC5-4D7D-A87A-6DF3FCB8CADF";
shapes = (
{
closed = 1;
nodes = (
(51,643,l),
(86,688,o),
(146,716,o),
(218,716,cs),
(328,716,o),
(405,649,o),
(405,544,cs),
(405,465,o),
(364,411,o),
(311,366,c),
(263,323,o),
(242,292,o),
(242,227,cs),
(242,195,l),
(144,195,l),
(144,254,ls),
(144,339,o),
(193,386,o),
(237,427,cs),
(273,460,o),
(304,491,o),
(304,536,cs),
(304,581,o),
(268,625,o),
(204,625,cs),
(139,625,o),
(89,587,o),
(51,536,c)
);
},
{
closed = 1;
nodes = (
(237,121,o),
(267,92,o),
(267,56,cs),
(267,15,o),
(237,-10,o),
(198,-10,cs),
(162,-10,o),
(131,15,o),
(131,56,cs),
(131,93,o),
(162,121,o),
(198,121,cs)
);
}
);
width = 456;
},
{
layerId = "F1A19D98-9E48-4F05-B6A0-CD51606DBCB8";
shapes = (
{
closed = 1;
nodes = (
(54,649,l),
(85,689,o),
(143,717,o),
(211,717,cs),
(319,717,o),
(388,650,o),
(388,551,cs),
(388,475,o),
(349,419,o),
(298,374,cs),
(247,328,o),
(224,293,o),
(224,222,cs),
(224,190,l),
(142,190,l),
(142,252,ls),
(142,338,o),
(191,387,o),
(236,429,cs),
(273,464,o),
(306,496,o),
(306,544,cs),
(306,592,o),
(271,641,o),
(201,641,cs),
(137,641,o),
(90,604,o),
(54,552,c)
);
},
{
closed = 1;
nodes = (
(221,109,o),
(249,81,o),
(249,50,cs),
(249,14,o),
(221,-9,o),
(188,-9,cs),
(156,-9,o),
(128,14,o),
(128,51,cs),
(128,82,o),
(157,109,o),
(188,109,cs)
);
}
);
width = 442;
}
);
unicode = 63;
},
{
glyphname = at;
lastChange = "2024-01-25 14:19:30 +0000";
layers = (
{
layerId = "F6364453-91B0-4CE2-A857-F52B6F68B874";
shapes = (
{
closed = 1;
nodes = (
(374,221,o),
(404,194,o),
(447,194,cs),
(500,194,o),
(543,245,o),
(543,309,cs),
(543,356,o),
(513,385,o),
(470,385,cs),
(411,385,o),
(374,327,o),
(374,272,cs)
);
},
{
closed = 1;
nodes = (
(748,-87,l),
(671,-134,o),
(587,-162,o),
(483,-162,cs),
(225,-162,o),
(37,32,o),
(37,275,cs),
(37,516,o),
(228,714,o),
(480,714,cs),
(728,714,o),
(911,537,o),
(911,325,cs),
(911,144,o),
(807,57,o),
(698,57,cs),
(614,57,o),
(568,92,o),
(544,133,c),
(505,89,o),
(461,59,o),
(397,59,cs),
(293,59,o),
(214,138,o),
(214,260,cs),
(214,403,o),
(316,520,o),
(435,520,cs),
(500,520,o),
(542,487,o),
(569,446,c),
(581,507,l),
(736,483,l),
(690,225,l),
(682,174,o),
(696,122,o),
(751,122,cs),
(816,122,o),
(859,192,o),
(859,325,cs),
(859,517,o),
(708,667,o),
(480,667,cs),
(248,667,o),
(89,496,o),
(89,275,cs),
(89,52,o),
(245,-112,o),
(483,-112,cs),
(579,-112,o),
(652,-99,o),
(728,-55,c)
);
}
);
width = 948;
},
{
layerId = "8AF3DB8E-7EC5-4D7D-A87A-6DF3FCB8CADF";
shapes = (
{
closed = 1;
nodes = (
(323,226,o),
(361,178,o),
(424,178,cs),
(500,178,o),
(560,254,o),
(560,334,cs),
(560,399,o),
(522,445,o),
(458,445,cs),
(378,445,o),
(323,372,o),
(323,295,cs)
);
},
{
closed = 1;
nodes = (
(745,-21,l),
(664,-76,o),
(575,-105,o),
(471,-105,cs),
(226,-105,o),
(49,74,o),
(49,303,cs),
(49,534,o),
(230,718,o),
(465,718,cs),
(687,718,o),
(864,556,o),
(864,352,cs),
(864,191,o),
(781,100,o),
(676,100,cs),
(612,100,o),
(577,129,o),
(557,184,c),
(522,137,o),
(476,102,o),
(408,102,cs),
(308,102,o),
(232,179,o),
(232,290,cs),
(232,417,o),
(330,523,o),
(448,523,cs),
(516,523,o),
(554,490,o),
(581,446,c),
(591,510,l),
(675,501,l),
(637,237,l),
(634,188,o),
(655,152,o),
(698,152,cs),
(761,152,o),
(814,227,o),
(814,343,cs),
(814,529,o),
(666,673,o),
(464,673,cs),
(256,673,o),
(101,514,o),
(101,305,cs),
(101,98,o),
(249,-60,o),
(479,-60,cs),
(572,-60,o),
(645,-36,o),
(721,13,c)
);
}
);
width = 913;
},
{
layerId = "F1A19D98-9E48-4F05-B6A0-CD51606DBCB8";
shapes = (
{
closed = 1;
nodes = (
(313,227,o),
(354,175,o),
(419,175,cs),
(500,175,o),
(563,256,o),
(563,339,cs),
(563,407,o),
(523,452,o),
(455,452,cs),
(373,452,o),
(313,372,o),
(313,299,cs)
);
},
{
closed = 1;
nodes = (
(744,-8,l),
(663,-64,o),
(573,-93,o),
(469,-93,cs),
(225,-93,o),
(51,82,o),
(51,309,cs),
(51,537,o),
(230,719,o),
(462,719,cs),
(679,719,o),
(854,560,o),
(854,357,cs),
(854,200,o),
(774,109,o),
(671,109,cs),
(611,109,o),
(579,138,o),
(560,194,c),
(527,147,o),
(478,111,o),
(410,111,cs),
(310,111,o),
(235,187,o),
(235,296,cs),
(235,420,o),
(333,524,o),
(451,524,cs),
(519,524,o),
(558,490,o),
(583,446,c),
(593,511,l),
(663,505,l),
(626,239,l),
(626,191,o),
(647,158,o),
(687,158,cs),
(750,158,o),
(805,234,o),
(805,346,cs),
(805,531,o),
(657,674,o),
(461,674,cs),
(256,674,o),
(103,516,o),
(103,312,cs),
(103,107,o),
(250,-49,o),
(478,-49,cs),
(570,-49,o),
(643,-23,o),
(720,26,c)
);
}
);
width = 906;
}
);
unicode = 64;
},
{
color = 1;
glyphname = A;
lastChange = "2024-01-25 16:10:26 +0000";
layers = (
{
anchors = (
{
name = bottom;
pos = (384,0);
},
{
name = ogonek;
pos = (775,0);
},
{
name = top;
pos = (384,712);
}
);
layerId = "F6364453-91B0-4CE2-A857-F52B6F68B874";
shapes = (
{
closed = 1;
nodes = (
(196,0,l),
(-8,0,l),
(290,705,l),
(477,705,l),
(775,0,l),
(567,0,l),
(516,125,l),
(246,125,l)
);
},
{
closed = 1;
nodes = (
(460,276,l),
(382,475,l),
(303,276,l)
);
}
);
width = 767;
},
{
anchors = (
{
name = bottom;
pos = (346,0);
},
{
name = ogonek;
pos = (698,0);
},
{
name = top;
pos = (346,712);
}
);
layerId = "8AF3DB8E-7EC5-4D7D-A87A-6DF3FCB8CADF";
shapes = (
{
closed = 1;
nodes = (
(104,0,l),
(-6,0,l),
(301,705,l),
(390,705,l),
(698,0,l),
(585,0,l),
(507,185,l),
(184,185,l)
);
},
{
closed = 1;
nodes = (
(471,273,l),
(345,584,l),
(220,273,l)
);
}
);
width = 692;
},
{
anchors = (
{
name = bottom;
pos = (339,0);
},
{
name = ogonek;
pos = (682,0);
},
{
name = top;
pos = (339,712);
}
);
layerId = "F1A19D98-9E48-4F05-B6A0-CD51606DBCB8";
shapes = (
{
closed = 1;
nodes = (
(86,0,l),
(-5,0,l),
(303,705,l),
(373,705,l),
(682,0,l),
(589,0,l),
(505,197,l),
(171,197,l)
);
},
{
closed = 1;
nodes = (
(473,272,l),
(338,606,l),
(203,272,l)
);
}
);
width = 677;
}
);
unicode = 65;
},
{
color = 1;
glyphname = B;
lastChange = "2024-01-25 16:51:25 +0000";
layers = (
{
anchors = (
{
name = bottom;
pos = (359,0);
},
{
name = center;
pos = (359,356);
},
{
name = top;
pos = (359,712);
}
);
layerId = "F6364453-91B0-4CE2-A857-F52B6F68B874";
shapes = (
{
closed = 1;
nodes = (
(415,700,ls),
(562,700,o),
(653,635,o),
(653,524,cs),
(653,443,o),
(609,393,o),
(545,366,c),
(630,341,o),
(684,290,o),
(684,195,cs),
(684,75,o),
(586,0,o),
(417,0,cs),
(58,0,l),
(58,700,l)
);
},
{
closed = 1;
nodes = (
(368,421,ls),
(427,421,o),
(459,443,o),
(459,484,cs),
(459,523,o),
(429,544,o),
(372,544,cs),
(247,544,l),
(247,421,l)
);
},
{
closed = 1;
nodes = (
(396,156,ls),
(456,156,o),
(490,181,o),
(490,222,cs),
(490,260,o),
(458,285,o),
(394,285,cs),
(247,285,l),
(247,156,l)
);
}
);
width = 718;
},
{
anchors = (
{
name = bottom;
pos = (326,0);
},
{
name = center;
pos = (326,356);
},
{
name = top;
pos = (326,712);
}
);
layerId = "8AF3DB8E-7EC5-4D7D-A87A-6DF3FCB8CADF";
shapes = (
{
closed = 1;
nodes = (
(303,704,ls),
(431,704,o),
(548,656,o),
(548,527,cs),
(548,451,o),
(513,391,o),
(445,366,c),
(557,349,o),
(607,281,o),
(607,194,cs),
(607,87,o),
(524,0,o),
(327,0,cs),
(76,0,l),
(76,704,l)
);
},
{
closed = 1;
nodes = (
(304,400,ls),
(401,400,o),
(446,447,o),
(446,510,cs),
(446,583,o),
(392,617,o),
(305,617,cs),
(178,617,l),
(178,400,l)
);
},
{
closed = 1;
nodes = (
(335,88,ls),
(452,88,o),
(504,129,o),
(504,202,cs),
(504,275,o),
(451,316,o),
(307,316,cs),
(178,316,l),
(178,88,l)
);
}
);
width = 651;
},
{
anchors = (
{
name = bottom;
pos = (319,0);
},
{
name = center;
pos = (319,356);
},
{
name = top;
pos = (319,712);
}
);
layerId = "F1A19D98-9E48-4F05-B6A0-CD51606DBCB8";
shapes = (
{
closed = 1;
nodes = (
(281,705,ls),
(405,705,o),
(527,660,o),
(527,527,cs),
(527,451,o),
(493,391,o),
(425,366,c),
(542,350,o),
(591,279,o),
(591,194,cs),
(591,89,o),
(512,0,o),
(309,0,cs),
(80,0,l),
(80,705,l)
);
},
{
closed = 1;
nodes = (
(291,396,ls),
(396,396,o),
(443,448,o),
(443,515,cs),
(443,595,o),
(383,631,o),
(291,631,cs),
(164,631,l),
(164,396,l)
);
},
{
closed = 1;
nodes = (
(323,74,ls),
(452,74,o),
(507,118,o),
(507,198,cs),
(507,278,o),
(450,322,o),
(290,322,cs),
(164,322,l),
(164,74,l)
);
}
);
width = 637;
}
);
unicode = 66;
},
{
color = 1;
glyphname = C;
lastChange = "2024-01-25 16:20:04 +0000";
layers = (
{
anchors = (
{
name = bottom;
pos = (333,0);
},
{
name = top;
pos = (333,712);
}
);
layerId = "F6364453-91B0-4CE2-A857-F52B6F68B874";
shapes = (
{
closed = 1;
nodes = (
(622,54,l),
(557,9,o),
(486,-14,o),
(398,-14,cs),
(198,-14,o),
(37,141,o),
(37,350,cs),
(37,554,o),
(194,714,o),
(406,714,cs),
(494,714,o),
(561,691,o),
(617,652,c),
(617,455,l),
(572,502,o),
(503,537,o),
(424,537,cs),
(306,537,o),
(237,454,o),
(237,352,cs),
(237,245,o),
(305,163,o),
(424,163,cs),
(498,163,o),
(561,192,o),
(622,248,c)
);
}
);
width = 665;
},
{
anchors = (
{
name = bottom;
pos = (350,0);
},
{
name = top;
pos = (350,712);
}
);
layerId = "8AF3DB8E-7EC5-4D7D-A87A-6DF3FCB8CADF";
shapes = (
{
closed = 1;
nodes = (
(643,74,l),
(579,21,o),
(509,-14,o),
(410,-14,cs),
(206,-14,o),
(49,144,o),
(49,351,cs),
(49,556,o),
(203,718,o),
(414,718,cs),
(507,718,o),
(574,688,o),
(630,645,c),
(630,532,l),
(581,587,o),
(516,625,o),
(412,625,cs),
(259,625,o),
(155,502,o),
(155,352,cs),
(155,201,o),
(259,80,o),
(412,80,cs),
(511,80,o),
(576,128,o),
(643,187,c)
);
}
);
width = 699;
},
{
anchors = (
{
name = bottom;
pos = (413,0);
},
{
name = top;
pos = (393,712);
}
);
layerId = "F1A19D98-9E48-4F05-B6A0-CD51606DBCB8";
shapes = (
{
closed = 1;
nodes = (
(647,78,l),
(583,22,o),
(512,-14,o),
(412,-14,cs),
(207,-14,o),
(51,144,o),
(51,351,cs),
(51,558,o),
(205,719,o),
(415,719,cs),
(511,719,o),
(576,687,o),
(633,643,c),
(633,547,l),
(582,604,o),
(519,643,o),
(410,643,cs),
(250,643,o),
(138,512,o),
(138,352,cs),
(138,192,o),
(250,63,o),
(410,63,cs),
(512,63,o),
(579,116,o),
(647,175,c)
);
}
);
width = 706;
}
);
unicode = 67;
},
{
color = 1;
glyphname = D;
lastChange = "2024-01-25 16:20:02 +0000";
layers = (
{
anchors = (
{
name = bottom;
pos = (381,0);
},
{
name = center;
pos = (381,356);
},
{
name = top;
pos = (381,712);
}
);
layerId = "F6364453-91B0-4CE2-A857-F52B6F68B874";
shapes = (
{
closed = 1;
nodes = (
(328,700,ls),
(579,700,o),
(723,557,o),
(723,354,cs),
(723,152,o),
(576,0,o),
(324,0,cs),
(58,0,l),
(58,700,l)
);
},
{
closed = 1;
nodes = (
(331,172,ls),
(447,172,o),
(524,238,o),
(524,351,cs),
(524,463,o),
(446,528,o),
(331,528,cs),
(252,528,l),
(252,172,l)
);
}
);
width = 761;
},
{
anchors = (
{
name = bottom;
pos = (367,0);
},
{
name = center;
pos = (367,356);
},
{
name = top;
pos = (367,712);
}
);
layerId = "8AF3DB8E-7EC5-4D7D-A87A-6DF3FCB8CADF";
shapes = (
{
closed = 1;
nodes = (
(306,704,ls),
(526,704,o),
(685,565,o),
(685,353,cs),
(685,147,o),
(535,0,o),
(304,0,cs),
(76,0,l),
(76,704,l)
);
},
{
closed = 1;
nodes = (
(302,92,ls),
(478,92,o),
(577,199,o),
(577,351,cs),
(577,479,o),
(493,611,o),
(342,611,cs),
(180,611,l),
(180,92,l)
);
}
);
width = 734;
},
{
anchors = (
{
name = bottom;
pos = (365,0);
},
{
name = center;
pos = (365,356);
},
{
name = top;
pos = (365,712);
}
);
layerId = "F1A19D98-9E48-4F05-B6A0-CD51606DBCB8";
shapes = (
{
closed = 1;
nodes = (
(301,705,ls),
(534,705,o),
(677,566,o),
(677,353,cs),
(677,146,o),
(527,0,o),
(300,0,cs),
(80,0,l),
(80,705,l)
);
},
{
closed = 1;
nodes = (
(296,76,ls),
(484,76,o),
(587,191,o),
(587,351,cs),
(587,502,o),
(490,628,o),
(332,628,cs),
(165,628,l),
(165,76,l)
);
}
);
width = 729;
}
);
unicode = 68;
},
{
color = 1;
glyphname = E;
lastChange = "2024-01-25 16:15:51 +0000";
layers = (
{
anchors = (
{
name = bottom;
pos = (338,0);
},
{
name = ogonek;
pos = (626,0);
},
{
name = top;
pos = (338,712);
},
{
name = topleft;
pos = (20,712);
}
);
layerId = "F6364453-91B0-4CE2-A857-F52B6F68B874";
shapes = (
{
closed = 1;
nodes = (
(626,165,l),
(626,0,l),
(58,0,l),
(58,700,l),
(621,700,l),
(621,535,l),
(250,535,l),
(250,429,l),
(586,429,l),
(586,276,l),
(250,276,l),
(250,165,l)
);
}
);
width = 675;
},
{
anchors = (
{
name = bottom;
pos = (314,0);
},
{
name = ogonek;
pos = (564,0);
},
{
name = top;
pos = (314,712);
},
{
name = topleft;
pos = (20,712);
}
);
layerId = "8AF3DB8E-7EC5-4D7D-A87A-6DF3FCB8CADF";
shapes = (
{
closed = 1;
nodes = (
(564,91,l),
(564,0,l),
(76,0,l),
(76,704,l),
(554,704,l),
(554,613,l),
(180,613,l),
(180,402,l),
(524,402,l),
(524,314,l),
(180,314,l),
(180,91,l)
);
}
);
width = 628;
},
{
anchors = (
{
name = bottom;
pos = (309,0);
},
{
name = ogonek;
pos = (551,0);
},
{
name = top;
pos = (309,712);
},
{
name = topleft;
pos = (20,712);
}
);
layerId = "F1A19D98-9E48-4F05-B6A0-CD51606DBCB8";
shapes = (
{
closed = 1;
nodes = (
(551,76,l),
(551,0,l),
(80,0,l),
(80,705,l),
(540,705,l),
(540,629,l),
(166,629,l),
(166,397,l),
(511,397,l),
(511,321,l),
(166,321,l),
(166,76,l)
);
}
);
width = 618;
}
);
unicode = 69;
},
{
color = 3;
glyphname = F;
lastChange = "2024-01-25 16:51:57 +0000";
layers = (
{
anchors = (
{
name = bottom;
pos = (330,0);
},
{
name = top;
pos = (330,712);
}
);
layerId = "F6364453-91B0-4CE2-A857-F52B6F68B874";
shapes = (
{
closed = 1;
nodes = (
(58,0,l),
(58,700,l),
(618,700,l),
(618,530,l),
(252,530,l),
(252,411,l),
(583,411,l),
(583,250,l),
(252,250,l),
(252,0,l)
);
}
);
width = 659;
},
{
anchors = (
{
name = bottom;
pos = (301,0);
},
{
name = top;
pos = (301,712);
}
);
layerId = "8AF3DB8E-7EC5-4D7D-A87A-6DF3FCB8CADF";
shapes = (
{
closed = 1;
nodes = (
(76,-2,l),
(76,704,l),
(551,704,l),
(551,613,l),
(180,613,l),
(180,393,l),
(519,393,l),
(519,303,l),
(180,303,l),
(180,-2,l)
);
}
);
width = 601;
},
{
anchors = (
{
name = bottom;
pos = (295,0);
},
{
name = top;
pos = (295,712);
}
);
layerId = "F1A19D98-9E48-4F05-B6A0-CD51606DBCB8";
shapes = (
{
closed = 1;
nodes = (
(80,0,l),
(80,705,l),
(537,705,l),
(537,629,l),
(165,629,l),
(165,389,l),
(506,389,l),
(506,313,l),
(165,313,l),
(165,0,l)
);
}
);
width = 589;
}
);
unicode = 70;
},
{
color = 1;
glyphname = G;
lastChange = "2024-01-25 16:13:22 +0000";
layers = (
{
anchors = (
{
name = bottom;
pos = (380,0);
},
{
name = top;
pos = (380,712);
}
);
layerId = "F6364453-91B0-4CE2-A857-F52B6F68B874";
shapes = (
{
closed = 1;
nodes = (
(400,409,l),
(722,409,l),
(722,369,ls),
(722,68,o),
(553,-14,o),
(398,-14,cs),
(200,-14,o),
(37,138,o),
(37,350,cs),
(37,554,o),
(197,714,o),
(414,714,cs),
(482,714,o),
(555,701,o),
(604,680,c),
(604,475,l),
(553,518,o),
(490,541,o),
(425,541,cs),
(314,541,o),
(236,456,o),
(236,349,cs),
(236,234,o),
(314,153,o),
(408,153,cs),
(462,153,o),
(538,183,o),
(538,267,c),
(400,267,l)
);
}
);
width = 759;
},
{
anchors = (
{
name = bottom;
pos = (410,0);
},
{
name = top;
pos = (410,712);
}
);
layerId = "8AF3DB8E-7EC5-4D7D-A87A-6DF3FCB8CADF";
shapes = (
{
closed = 1;
nodes = (
(474,401,l),
(770,401,l),
(770,372,ls),
(770,147,o),
(648,-16,o),
(416,-16,cs),
(204,-16,o),
(49,147,o),
(49,352,cs),
(49,556,o),
(218,718,o),
(430,718,cs),
(507,718,o),
(585,700,o),
(653,653,c),
(653,540,l),
(602,591,o),
(529,626,o),
(437,626,cs),
(282,626,o),
(153,500,o),
(153,352,cs),
(153,195,o),
(269,77,o),
(422,77,cs),
(562,77,o),
(673,168,o),
(673,312,c),
(474,312,l)
);
}
);
width = 819;
},
{
anchors = (
{
name = bottom;
pos = (416,0);
},
{
name = top;
pos = (416,712);
}
);
layerId = "F1A19D98-9E48-4F05-B6A0-CD51606DBCB8";
shapes = (
{
closed = 1;
nodes = (
(489,399,l),
(780,399,l),
(780,373,ls),
(780,163,o),
(667,-16,o),
(419,-16,cs),
(206,-16,o),
(51,149,o),
(51,352,cs),
(51,557,o),
(222,719,o),
(433,719,cs),
(513,719,o),
(591,699,o),
(663,647,c),
(663,553,l),
(612,604,o),
(536,643,o),
(439,643,cs),
(276,643,o),
(136,510,o),
(136,352,cs),
(136,187,o),
(260,62,o),
(425,62,cs),
(581,62,o),
(700,165,o),
(700,321,c),
(489,321,l)
);
}
);
width = 831;
}
);
unicode = 71;
},
{
color = 1;
glyphname = H;
lastChange = "2024-01-25 16:24:54 +0000";
layers = (
{
anchors = (
{
name = bottom;
pos = (377,0);
},
{
name = center;
pos = (377,356);
},
{
name = top;
pos = (377,712);
},
{
name = topleft;
pos = (20,712);
}
);
layerId = "F6364453-91B0-4CE2-A857-F52B6F68B874";
shapes = (
{
closed = 1;
nodes = (
(252,700,l),
(252,438,l),
(501,438,l),
(501,700,l),
(695,700,l),
(695,0,l),
(501,0,l),
(501,266,l),
(252,266,l),
(252,0,l),
(58,0,l),
(58,700,l)
);
}
);
width = 754;
},
{
anchors = (
{
name = bottom;
pos = (359,0);
},
{
name = center;
pos = (359,356);
},
{
name = top;
pos = (359,712);
},
{
name = topleft;
pos = (20,712);
}
);
layerId = "8AF3DB8E-7EC5-4D7D-A87A-6DF3FCB8CADF";
shapes = (
{
closed = 1;
nodes = (
(179,705,l),
(179,405,l),
(539,405,l),
(539,705,l),
(641,705,l),
(641,0,l),
(539,0,l),
(539,311,l),
(179,311,l),
(179,0,l),
(76,0,l),
(76,705,l)
);
}
);
width = 717;
},
{
anchors = (
{
name = bottom;
pos = (355,0);
},
{
name = center;
pos = (355,356);
},
{
name = top;
pos = (355,712);
},
{
name = topleft;
pos = (20,712);
}
);
layerId = "F1A19D98-9E48-4F05-B6A0-CD51606DBCB8";
shapes = (
{
closed = 1;
nodes = (
(164,706,l),
(164,398,l),
(546,398,l),
(546,706,l),
(630,706,l),
(630,0,l),
(546,0,l),
(546,320,l),
(164,320,l),
(164,0,l),
(80,0,l),
(80,706,l)
);
}
);
width = 709;
}
);
unicode = 72;
},
{
color = 1;
glyphname = J;
lastChange = "2024-01-25 16:56:45 +0000";
layers = (
{
anchors = (
{
name = bottom;
pos = (238,0);
},
{
name = top;
pos = (238,712);
}
);
layerId = "F6364453-91B0-4CE2-A857-F52B6F68B874";
shapes = (
{
closed = 1;
nodes = (
(0,235,l),
(39,198,o),
(82,159,o),
(139,159,cs),
(190,159,o),
(229,192,o),
(229,257,cs),
(229,700,l),
(422,700,l),
(422,256,ls),
(422,96,o),
(321,-12,o),
(154,-12,cs),
(97,-12,o),
(47,9,o),
(0,41,c)
);
}
);
width = 475;
},
{
anchors = (
{
name = bottom;
pos = (193,0);
},
{
name = top;
pos = (193,712);
}
);
layerId = "8AF3DB8E-7EC5-4D7D-A87A-6DF3FCB8CADF";
shapes = (
{
closed = 1;
nodes = (
(0,124,l),
(36,101,o),
(72,81,o),
(117,81,cs),
(178,81,o),
(213,116,o),
(213,215,cs),
(213,704,l),
(317,704,l),
(317,217,ls),
(317,69,o),
(243,-11,o),
(117,-11,cs),
(76,-11,o),
(35,2,o),
(0,25,c)
);
}
);
width = 386;
},
{
anchors = (
{
name = bottom;
pos = (184,0);
},
{
name = top;
pos = (184,712);
}
);
layerId = "F1A19D98-9E48-4F05-B6A0-CD51606DBCB8";
shapes = (
{
closed = 1;
nodes = (
(0,102,l),
(35,81,o),
(69,65,o),
(112,65,cs),
(176,65,o),
(210,102,o),
(210,207,cs),
(210,705,l),
(296,705,l),
(296,209,ls),
(296,64,o),
(227,-11,o),
(110,-11,cs),
(71,-11,o),
(32,1,o),
(0,22,c)
);
}
);
width = 368;
}
);
unicode = 74;
},
{
color = 1;
glyphname = K;
lastChange = "2024-01-25 16:27:17 +0000";
layers = (
{
anchors = (
{
name = bottom;
pos = (362,0);
},
{
name = top;
pos = (362,712);
}
);
layerId = "F6364453-91B0-4CE2-A857-F52B6F68B874";
shapes = (
{
closed = 1;
nodes = (
(493,700,l),
(723,700,l),
(458,399,l),
(732,0,l),
(499,0,l),
(252,368,l),
(252,0,l),
(58,0,l),
(58,700,l),
(252,700,l),
(252,416,l)
);
}
);
width = 724;
},
{
anchors = (
{
name = bottom;
pos = (297,0);
},
{
name = top;
pos = (297,712);
}
);
layerId = "8AF3DB8E-7EC5-4D7D-A87A-6DF3FCB8CADF";
shapes = (
{
closed = 1;
nodes = (
(441,704,l),
(570,704,l),
(273,379,l),
(595,0,l),
(466,0,l),
(179,336,l),
(179,0,l),
(76,0,l),
(76,704,l),
(179,704,l),
(179,410,l)
);
}
);
width = 593;
},
{
anchors = (
{
name = bottom;
pos = (284,0);
},
{
name = top;
pos = (284,712);
}
);
layerId = "F1A19D98-9E48-4F05-B6A0-CD51606DBCB8";
shapes = (
{
closed = 1;
nodes = (
(431,705,l),
(539,705,l),
(236,375,l),
(567,0,l),
(459,0,l),
(164,330,l),
(164,0,l),
(80,0,l),
(80,705,l),
(164,705,l),
(164,409,l)
);
}
);
width = 567;
}
);
unicode = 75;
},
{
color = 1;
glyphname = L;
lastChange = "2024-01-25 16:26:55 +0000";
layers = (
{
anchors = (
{
name = bottom;
pos = (304,0);
},
{
name = center;
pos = (304,356);
},
{
name = top;
pos = (304,712);
},
{
name = topright;
pos = (517,712);
}
);
layerId = "F6364453-91B0-4CE2-A857-F52B6F68B874";
shapes = (
{
closed = 1;
nodes = (
(591,170,l),
(591,0,l),
(58,0,l),
(58,700,l),
(252,700,l),
(252,170,l)
);
}
);
width = 607;
},
{
anchors = (
{
name = bottom;
pos = (270,0);
},
{
name = center;
pos = (270,356);
},
{
name = top;
pos = (270,712);
},
{
name = topright;
pos = (490,712);
}
);
layerId = "8AF3DB8E-7EC5-4D7D-A87A-6DF3FCB8CADF";
shapes = (
{
closed = 1;
nodes = (
(524,92,l),
(524,0,l),
(76,0,l),
(76,704,l),
(180,704,l),
(180,92,l)
);
}
);
width = 540;
},
{
anchors = (
{
name = bottom;
pos = (263,0);
},
{
name = center;
pos = (263,356);
},
{
name = top;
pos = (263,712);
},
{
name = topright;
pos = (487,712);
}
);
layerId = "F1A19D98-9E48-4F05-B6A0-CD51606DBCB8";
shapes = (
{
closed = 1;
nodes = (
(510,76,l),
(510,0,l),
(80,0,l),
(80,705,l),
(165,705,l),
(165,76,l)
);
}
);
width = 526;
}
);
unicode = 76;
},
{
color = 1;
glyphname = M;
lastChange = "2024-01-25 16:25:20 +0000";
layers = (
{
anchors = (
{
name = bottom;
pos = (390,0);
},
{
name = top;
pos = (390,712);
}
);
layerId = "F6364453-91B0-4CE2-A857-F52B6F68B874";
shapes = (
{
closed = 1;
nodes = (
(208,0,l),
(18,0,l),
(18,700,l),
(223,700,l),
(390,429,l),
(557,700,l),
(762,700,l),
(762,0,l),
(569,0,l),
(569,402,l),
(388,128,l),
(208,400,l)
);
}
);
width = 780;
},
{
anchors = (
{
name = bottom;
pos = (387,0);
},
{
name = top;
pos = (387,712);
}
);
layerId = "8AF3DB8E-7EC5-4D7D-A87A-6DF3FCB8CADF";
shapes = (
{
closed = 1;
nodes = (
(128,0,l),
(26,0,l),
(26,700,l),
(129,700,l),
(386,304,l),
(643,700,l),
(745,700,l),
(745,0,l),
(643,0,l),
(643,538,l),
(386,149,l),
(128,538,l)
);
}
);
width = 773;
},
{
anchors = (
{
name = bottom;
pos = (386,0);
},
{
name = top;
pos = (386,712);
}
);
layerId = "F1A19D98-9E48-4F05-B6A0-CD51606DBCB8";
shapes = (
{
closed = 1;
nodes = (
(112,0,l),
(28,0,l),
(28,700,l),
(110,700,l),
(385,279,l),
(660,700,l),
(742,700,l),
(742,0,l),
(658,0,l),
(658,565,l),
(385,153,l),
(112,565,l)
);
}
);
width = 771;
}
);
unicode = 77;
},
{
color = 1;
glyphname = N;
lastChange = "2024-01-25 16:25:20 +0000";
layers = (
{
anchors = (
{
name = bottom;
pos = (389,0);
},
{
name = top;
pos = (389,712);
}
);
layerId = "F6364453-91B0-4CE2-A857-F52B6F68B874";
shapes = (
{
closed = 1;
nodes = (
(527,700,l),
(719,700,l),
(719,0,l),
(549,0,l),
(250,384,l),
(250,0,l),
(58,0,l),
(58,700,l),
(239,700,l),
(527,330,l)
);
}
);
width = 778;
},
{
anchors = (
{
name = bottom;
pos = (376,0);
},
{
name = top;
pos = (376,712);
}
);
layerId = "8AF3DB8E-7EC5-4D7D-A87A-6DF3FCB8CADF";
shapes = (
{
closed = 1;
nodes = (
(575,704,l),
(675,704,l),
(675,0,l),
(577,0,l),
(177,545,l),
(177,0,l),
(76,0,l),
(76,700,l),
(177,700,l),
(575,160,l)
);
}
);
width = 751;
},
{
anchors = (
{
name = bottom;
pos = (373,0);
},
{
name = top;
pos = (373,712);
}
);
layerId = "F1A19D98-9E48-4F05-B6A0-CD51606DBCB8";
shapes = (
{
closed = 1;
nodes = (
(584,705,l),
(666,705,l),
(666,0,l),
(582,0,l),
(162,577,l),
(162,0,l),
(80,0,l),
(80,700,l),
(165,700,l),
(584,126,l)
);
}
);
width = 746;
}
);
unicode = 78;
},
{
color = 1;
glyphname = O;
lastChange = "2024-01-25 16:12:21 +0000";
layers = (
{
anchors = (
{
name = bottom;
pos = (414,0);
},
{
name = center;
pos = (414,356);
},
{
name = ogonek;
pos = (485,0);
},
{
name = top;
pos = (414,712);
},
{
name = topleft;
pos = (20,712);
},
{
name = topright;
pos = (808,712);
}
);
layerId = "F6364453-91B0-4CE2-A857-F52B6F68B874";
shapes = (
{
closed = 1;
nodes = (
(197,-14,o),
(37,149,o),
(37,350,cs),
(37,551,o),
(198,714,o),
(414,714,cs),
(630,714,o),
(791,552,o),
(791,352,cs),
(791,145,o),
(621,-14,o),
(413,-14,cs)
);
},
{
closed = 1;
nodes = (
(307,539,o),
(236,453,o),
(236,352,cs),
(236,251,o),
(309,161,o),
(414,161,cs),
(521,161,o),
(592,250,o),
(592,350,cs),
(592,450,o),
(519,539,o),
(413,539,cs)
);
}
);
width = 828;
},
{
anchors = (
{
name = bottom;
pos = (416,0);
},
{
name = center;
pos = (416,356);
},
{
name = ogonek;
pos = (449,0);
},
{
name = top;
pos = (416,712);
},
{
name = topleft;
pos = (20,712);
},
{
name = topright;
pos = (812,712);
}
);
layerId = "8AF3DB8E-7EC5-4D7D-A87A-6DF3FCB8CADF";
shapes = (
{
closed = 1;
nodes = (
(203,-14,o),
(49,148,o),
(49,351,cs),
(49,554,o),
(205,718,o),
(418,718,cs),
(630,718,o),
(784,553,o),
(784,354,cs),
(784,149,o),
(626,-14,o),
(416,-14,cs)
);
},
{
closed = 1;
nodes = (
(262,625,o),
(154,504,o),
(154,354,cs),
(154,200,o),
(262,79,o),
(417,79,cs),
(569,79,o),
(678,201,o),
(678,350,cs),
(678,498,o),
(573,625,o),
(417,625,cs)
);
}
);
width = 832;
},
{
anchors = (
{
name = bottom;
pos = (417,0);
},
{
name = center;
pos = (417,356);
},
{
name = ogonek;
pos = (454,1);
},
{
name = top;
pos = (417,712);
},
{
name = topleft;
pos = (20,712);
},
{
name = topright;
pos = (813,712);
}
);
layerId = "F1A19D98-9E48-4F05-B6A0-CD51606DBCB8";
shapes = (
{
closed = 1;
nodes = (
(204,-14,o),
(51,148,o),
(51,352,cs),
(51,555,o),
(206,719,o),
(419,719,cs),
(630,719,o),
(782,553,o),
(782,354,cs),
(782,150,o),
(627,-14,o),
(417,-14,cs)
);
},
{
closed = 1;
nodes = (
(253,642,o),
(138,514,o),
(138,354,cs),
(138,190,o),
(253,63,o),
(418,63,cs),
(579,63,o),
(695,191,o),
(695,350,cs),
(695,506,o),
(583,642,o),
(418,642,cs)
);
}
);
width = 833;
}
);
unicode = 79;
},
{
color = 1;
glyphname = P;
lastChange = "2024-01-25 16:52:13 +0000";
layers = (
{
anchors = (
{
name = bottom;
pos = (336,0);
},
{
name = top;
pos = (336,712);
}
);
layerId = "F6364453-91B0-4CE2-A857-F52B6F68B874";
shapes = (
{
closed = 1;
nodes = (
(358,700,ls),
(535,700,o),
(649,610,o),
(649,454,cs),
(649,289,o),
(522,200,o),
(348,200,cs),
(252,200,l),
(252,0,l),
(58,0,l),
(58,700,l)
);
},
{
closed = 1;
nodes = (
(344,352,ls),
(413,352,o),
(455,389,o),
(455,445,cs),
(455,505,o),
(415,537,o),
(343,537,cs),
(252,537,l),
(252,352,l)
);
}
);
width = 672;
},
{
anchors = (
{
name = bottom;
pos = (301,0);
},
{
name = top;
pos = (301,712);
}
);
layerId = "8AF3DB8E-7EC5-4D7D-A87A-6DF3FCB8CADF";
shapes = (
{
closed = 1;
nodes = (
(316,704,ls),
(471,704,o),
(573,625,o),
(573,490,cs),
(573,347,o),
(457,266,o),
(308,266,cs),
(180,266,l),
(180,-2,l),
(76,-2,l),
(76,704,l)
);
},
{
closed = 1;
nodes = (
(306,355,ls),
(409,355,o),
(469,402,o),
(469,485,cs),
(469,572,o),
(411,614,o),
(307,614,cs),
(180,614,l),
(180,355,l)
);
}
);
width = 602;
},
{
anchors = (
{
name = bottom;
pos = (294,0);
},
{
name = top;
pos = (294,712);
}
);
layerId = "F1A19D98-9E48-4F05-B6A0-CD51606DBCB8";
shapes = (
{
closed = 1;
nodes = (
(307,705,ls),
(457,705,o),
(558,628,o),
(558,497,cs),
(558,358,o),
(444,279,o),
(300,279,cs),
(166,279,l),
(166,-2,l),
(80,-2,l),
(80,705,l)
);
},
{
closed = 1;
nodes = (
(298,355,ls),
(407,355,o),
(472,405,o),
(472,493,cs),
(472,585,o),
(409,629,o),
(300,629,cs),
(166,629,l),
(166,355,l)
);
}
);
width = 588;
}
);
unicode = 80;
},
{
color = 3;
glyphname = Q;
lastChange = "2024-01-25 16:52:19 +0000";
layers = (
{
anchors = (
{
name = bottom;
pos = (442,0);
},
{
name = top;
pos = (442,712);
}
);
layerId = "F6364453-91B0-4CE2-A857-F52B6F68B874";
shapes = (
{
closed = 1;
nodes = (
(635,55,l),
(590,13,o),
(497,-14,o),
(413,-14,cs),
(197,-14,o),
(37,147,o),
(37,350,cs),
(37,551,o),
(198,714,o),
(414,714,cs),
(630,714,o),
(791,553,o),
(791,350,cs),
(791,274,o),
(776,220,o),
(737,163,c),
(847,52,l),
(847,-148,l)
);
},
{
closed = 1;
nodes = (
(307,539,o),
(236,453,o),
(236,350,cs),
(236,250,o),
(309,161,o),
(414,161,cs),
(521,161,o),
(592,247,o),
(592,350,cs),
(592,450,o),
(519,539,o),
(413,539,cs)
);
}
);
width = 884;
},
{
anchors = (
{
name = bottom;
pos = (419,0);
},
{
name = top;
pos = (419,712);
}
);
layerId = "8AF3DB8E-7EC5-4D7D-A87A-6DF3FCB8CADF";
shapes = (
{
closed = 1;
nodes = (
(621,46,l),
(561,10,o),
(496,-14,o),
(416,-14,cs),
(203,-14,o),
(49,149,o),
(49,350,cs),
(49,554,o),
(205,718,o),
(418,718,cs),
(630,718,o),
(784,553,o),
(784,353,cs),
(784,257,o),
(751,178,o),
(695,114,c),
(791,34,l),
(791,-91,l)
);
},
{
closed = 1;
nodes = (
(262,625,o),
(154,504,o),
(154,353,cs),
(154,201,o),
(262,79,o),
(417,79,cs),
(569,79,o),
(678,201,o),
(678,350,cs),
(678,498,o),
(573,625,o),
(417,625,cs)
);
}
);
width = 837;
},
{
anchors = (
{
name = bottom;
pos = (414,0);
},
{
name = top;
pos = (414,712);
}
);
layerId = "F1A19D98-9E48-4F05-B6A0-CD51606DBCB8";
shapes = (
{
closed = 1;
nodes = (
(618,44,l),
(554,9,o),
(497,-14,o),
(417,-14,cs),
(204,-14,o),
(51,149,o),
(51,350,cs),
(51,554,o),
(206,719,o),
(419,719,cs),
(630,719,o),
(782,553,o),
(782,354,cs),
(782,254,o),
(746,169,o),
(686,104,c),
(780,30,l),
(780,-79,l)
);
},
{
closed = 1;
nodes = (
(253,642,o),
(138,514,o),
(138,354,cs),
(138,190,o),
(253,63,o),
(418,63,cs),
(579,63,o),
(695,191,o),
(695,350,cs),
(695,507,o),
(584,642,o),
(418,642,cs)
);
}
);
width = 828;
}
);
unicode = 81;
},
{
color = 1;
glyphname = R;
lastChange = "2024-01-25 16:21:32 +0000";
layers = (
{
anchors = (
{
name = bottom;
pos = (348,0);
},
{
name = top;
pos = (348,712);
}
);
layerId = "F6364453-91B0-4CE2-A857-F52B6F68B874";
shapes = (
{
closed = 1;
nodes = (
(58,700,l),
(389,700,ls),
(584,700,o),
(679,605,o),
(679,461,cs),
(679,353,o),
(623,281,o),
(535,244,c),
(702,0,l),
(478,0,l),
(338,212,l),
(253,212,l),
(253,0,l),
(58,0,l)
);
},
{
closed = 1;
nodes = (
(380,364,ls),
(446,364,o),
(484,398,o),
(484,449,cs),
(484,505,o),
(444,532,o),
(379,532,cs),
(253,532,l),
(253,364,l)
);
}
);
width = 695;
},
{
anchors = (
{
name = bottom;
pos = (302,0);
},
{
name = top;
pos = (302,712);
}
);
layerId = "8AF3DB8E-7EC5-4D7D-A87A-6DF3FCB8CADF";
shapes = (
{
closed = 1;
nodes = (
(76,704,l),
(314,704,ls),
(466,704,o),
(566,620,o),
(566,496,cs),
(566,388,o),
(493,317,o),
(380,294,c),
(599,0,l),
(476,0,l),
(270,285,l),
(181,285,l),
(181,0,l),
(76,0,l)
);
},
{
closed = 1;
nodes = (
(290,367,ls),
(389,367,o),
(462,403,o),
(462,492,cs),
(462,576,o),
(404,613,o),
(304,613,cs),
(181,613,l),
(181,367,l)
);
}
);
width = 604;
},
{
anchors = (
{
name = bottom;
pos = (293,0);
},
{
name = top;
pos = (293,712);
}
);
layerId = "F1A19D98-9E48-4F05-B6A0-CD51606DBCB8";
shapes = (
{
closed = 1;
nodes = (
(80,705,l),
(299,705,ls),
(443,705,o),
(543,623,o),
(543,503,cs),
(543,395,o),
(466,324,o),
(349,304,c),
(578,0,l),
(475,0,l),
(256,299,l),
(166,299,l),
(166,0,l),
(80,0,l)
);
},
{
closed = 1;
nodes = (
(272,368,ls),
(377,368,o),
(457,404,o),
(457,500,cs),
(457,589,o),
(397,629,o),
(289,629,cs),
(166,629,l),
(166,368,l)
);
}
);
width = 586;
}
);
unicode = 82;
},
{
color = 1;
glyphname = S;
lastChange = "2024-01-25 16:16:42 +0000";
layers = (
{
anchors = (
{
name = bottom;
pos = (329,0);
},
{
name = top;
pos = (329,712);
}
);
layerId = "F6364453-91B0-4CE2-A857-F52B6F68B874";
shapes = (
{
closed = 1;
nodes = (
(433,302,o),
(51,231,o),
(51,488,cs),
(51,640,o),
(181,712,o),
(322,712,cs),
(443,712,o),
(534,680,o),
(610,619,c),
(610,442,l),
(538,503,o),
(428,556,o),
(337,556,cs),
(273,556,o),
(247,530,o),
(247,506,cs),
(247,399,o),
(627,482,o),
(627,201,cs),
(627,59,o),
(502,-12,o),
(346,-12,cs),
(229,-12,o),
(106,24,o),
(18,104,c),
(18,278,l),
(103,206,o),
(231,149,o),
(343,149,cs),
(376,149,o),
(433,151,o),
(433,197,cs)
);
}
);
width = 657;
},
{
anchors = (
{
name = bottom;
pos = (279,0);
},
{
name = top;
pos = (279,712);
}
);
layerId = "8AF3DB8E-7EC5-4D7D-A87A-6DF3FCB8CADF";
shapes = (
{
closed = 1;
nodes = (
(411,330,o),
(47,320,o),
(47,543,cs),
(47,655,o),
(155,717,o),
(273,717,cs),
(348,717,o),
(412,698,o),
(463,654,c),
(463,539,l),
(406,607,o),
(337,629,o),
(276,629,cs),
(201,629,o),
(151,599,o),
(151,544,cs),
(151,403,o),
(515,414,o),
(515,179,cs),
(515,42,o),
(391,-12,o),
(266,-12,cs),
(177,-12,o),
(97,12,o),
(29,77,c),
(29,183,l),
(108,107,o),
(194,77,o),
(271,77,cs),
(332,77,o),
(411,100,o),
(411,175,cs)
);
}
);
width = 557;
},
{
anchors = (
{
name = bottom;
pos = (269,0);
},
{
name = top;
pos = (269,712);
}
);
layerId = "F1A19D98-9E48-4F05-B6A0-CD51606DBCB8";
shapes = (
{
closed = 1;
nodes = (
(406,334,o),
(46,338,o),
(46,554,cs),
(46,658,o),
(150,718,o),
(263,718,cs),
(328,718,o),
(387,701,o),
(434,661,c),
(434,558,l),
(381,627,o),
(317,643,o),
(264,643,cs),
(188,643,o),
(132,612,o),
(132,552,cs),
(132,404,o),
(492,402,o),
(492,178,cs),
(492,38,o),
(369,-12,o),
(250,-12,cs),
(166,-12,o),
(95,10,o),
(31,71,c),
(31,164,l),
(108,87,o),
(187,63,o),
(256,63,cs),
(322,63,o),
(406,90,o),
(406,170,cs)
);
}
);
width = 537;
}
);
unicode = 83;
},
{
color = 1;
glyphname = T;
lastChange = "2024-01-25 16:24:29 +0000";
layers = (
{
anchors = (
{
name = bottom;
pos = (319,0);
},
{
name = center;
pos = (319,356);
},
{
name = top;
pos = (319,712);
}
);
layerId = "F6364453-91B0-4CE2-A857-F52B6F68B874";
shapes = (
{
closed = 1;
nodes = (
(221,0,l),
(221,530,l),
(11,530,l),
(11,700,l),
(625,700,l),
(625,530,l),
(415,530,l),
(415,0,l)
);
}
);
width = 637;
},
{
anchors = (
{
name = bottom;
pos = (270,0);
},
{
name = center;
pos = (270,356);
},
{
name = top;
pos = (270,712);
}
);
layerId = "8AF3DB8E-7EC5-4D7D-A87A-6DF3FCB8CADF";
shapes = (
{
closed = 1;
nodes = (
(219,0,l),
(219,613,l),
(9,613,l),
(9,704,l),
(531,704,l),
(531,613,l),
(321,613,l),
(321,0,l)
);
}
);
width = 540;
},
{
anchors = (
{
name = bottom;
pos = (260,0);
},
{
name = center;
pos = (260,356);
},
{
name = top;
pos = (260,712);
}
);
layerId = "F1A19D98-9E48-4F05-B6A0-CD51606DBCB8";
shapes = (
{
closed = 1;
nodes = (
(218,0,l),
(218,629,l),
(8,629,l),
(8,705,l),
(512,705,l),
(512,629,l),
(302,629,l),
(302,0,l)
);
}
);
width = 520;
}
);
unicode = 84;
},
{
color = 1;
glyphname = U;
lastChange = "2024-01-25 16:15:04 +0000";
layers = (
{
anchors = (
{
name = bottom;
pos = (379,0);
},
{
name = ogonek;
pos = (452,0);
},
{
name = top;
pos = (379,712);
},
{
name = topright;
pos = (738,712);
}
);
layerId = "F6364453-91B0-4CE2-A857-F52B6F68B874";
shapes = (
{
closed = 1;
nodes = (
(52,700,l),
(249,700,l),
(249,311,ls),
(249,210,o),
(298,162,o),
(378,162,cs),
(458,162,o),
(507,206,o),
(507,306,cs),
(507,700,l),
(704,700,l),
(704,312,ls),
(704,86,o),
(575,-13,o),
(376,-13,cs),
(174,-13,o),
(52,90,o),
(52,307,cs)
);
}
);
width = 758;
},
{
anchors = (
{
name = bottom;
pos = (356,0);
},
{
name = ogonek;
pos = (400,0);
},
{
name = top;
pos = (356,712);
},
{
name = topright;
pos = (691,712);
}
);
layerId = "8AF3DB8E-7EC5-4D7D-A87A-6DF3FCB8CADF";
shapes = (
{
closed = 1;
nodes = (
(68,705,l),
(171,705,l),
(171,292,ls),
(171,159,o),
(231,80,o),
(356,80,cs),
(473,80,o),
(540,148,o),
(540,289,cs),
(540,705,l),
(642,705,l),
(642,291,ls),
(642,98,o),
(543,-15,o),
(356,-15,cs),
(171,-15,o),
(68,98,o),
(68,288,cs)
);
}
);
width = 711;
},
{
anchors = (
{
name = bottom;
pos = (351,0);
},
{
name = ogonek;
pos = (392,0);
},
{
name = top;
pos = (351,712);
},
{
name = topright;
pos = (682,712);
}
);
layerId = "F1A19D98-9E48-4F05-B6A0-CD51606DBCB8";
shapes = (
{
closed = 1;
nodes = (
(71,706,l),
(155,706,l),
(155,288,ls),
(155,148,o),
(218,63,o),
(351,63,cs),
(476,63,o),
(546,136,o),
(546,285,cs),
(546,706,l),
(630,706,l),
(630,287,ls),
(630,100,o),
(536,-15,o),
(352,-15,cs),
(172,-15,o),
(71,102,o),
(71,284,cs)
);
}
);
width = 702;
}
);
unicode = 85;
},
{
color = 3;
glyphname = V;
lastChange = "2024-01-25 16:51:57 +0000";
layers = (
{
anchors = (
{
name = bottom;
pos = (367,0);
},
{
name = top;
pos = (367,712);
}
);
layerId = "F6364453-91B0-4CE2-A857-F52B6F68B874";
shapes = (
{
closed = 1;
nodes = (
(368,257,l),
(527,700,l),
(740,700,l),
(456,-5,l),
(276,-5,l),
(-8,700,l),
(209,700,l)
);
}
);
width = 733;
},
{
anchors = (
{
name = bottom;
pos = (331,0);
},
{
name = top;
pos = (331,712);
}
);
layerId = "8AF3DB8E-7EC5-4D7D-A87A-6DF3FCB8CADF";
shapes = (
{
closed = 1;
nodes = (
(332,116,l),
(552,704,l),
(664,704,l),
(388,-1,l),
(274,-1,l),
(-5,704,l),
(110,704,l)
);
}
);
width = 661;
},
{
anchors = (
{
name = bottom;
pos = (323,0);
},
{
name = top;
pos = (323,712);
}
);
layerId = "F1A19D98-9E48-4F05-B6A0-CD51606DBCB8";
shapes = (
{
closed = 1;
nodes = (
(325,88,l),
(557,705,l),
(649,705,l),
(374,0,l),
(273,0,l),
(-4,705,l),
(90,705,l)
);
}
);
width = 646;
}
);
unicode = 86;
},
{
color = 1;
glyphname = W;
lastChange = "2024-01-25 16:21:08 +0000";
layers = (
{
anchors = (
{
name = bottom;
pos = (541,0);
},
{
name = top;
pos = (541,712);
}
);
layerId = "F6364453-91B0-4CE2-A857-F52B6F68B874";
shapes = (
{
closed = 1;
nodes = (
(459,702,l),
(626,702,l),
(761,295,l),
(883,700,l),
(1084,700,l),
(850,-5,l),
(681,-5,l),
(540,398,l),
(400,-5,l),
(231,-5,l),
(-3,700,l),
(202,700,l),
(324,295,l)
);
}
);
width = 1081;
},
{
anchors = (
{
name = bottom;
pos = (504,0);
},
{
name = top;
pos = (504,712);
}
);
layerId = "8AF3DB8E-7EC5-4D7D-A87A-6DF3FCB8CADF";
shapes = (
{
closed = 1;
nodes = (
(458,705,l),
(554,705,l),
(724,154,l),
(898,704,l),
(1005,704,l),
(771,-1,l),
(676,-1,l),
(503,551,l),
(336,-1,l),
(239,-1,l),
(3,704,l),
(113,704,l),
(292,154,l)
);
}
);
width = 1008;
},
{
anchors = (
{
name = bottom;
pos = (497,0);
},
{
name = top;
pos = (497,712);
}
);
layerId = "F1A19D98-9E48-4F05-B6A0-CD51606DBCB8";
shapes = (
{
closed = 1;
nodes = (
(458,706,l),
(539,706,l),
(717,126,l),
(901,705,l),
(989,705,l),
(755,0,l),
(675,0,l),
(496,582,l),
(323,0,l),
(241,0,l),
(4,705,l),
(95,705,l),
(285,126,l)
);
}
);
width = 993;
}
);
unicode = 87;
},
{
color = 3;
glyphname = X;
lastChange = "2024-01-25 16:52:05 +0000";
layers = (
{
anchors = (
{
name = bottom;
pos = (355,0);
},
{
name = top;
pos = (355,712);
}
);
layerId = "F6364453-91B0-4CE2-A857-F52B6F68B874";
shapes = (
{
closed = 1;
nodes = (
(357,503,l),
(482,700,l),
(700,700,l),
(470,358,l),
(710,0,l),
(487,0,l),
(353,211,l),
(218,0,l),
(0,0,l),
(240,356,l),
(10,700,l),
(233,700,l)
);
}
);
width = 710;
},
{
anchors = (
{
name = bottom;
pos = (321,0);
},
{
name = top;
pos = (321,712);
}
);
layerId = "8AF3DB8E-7EC5-4D7D-A87A-6DF3FCB8CADF";
shapes = (
{
closed = 1;
nodes = (
(323,439,l),
(503,704,l),
(619,704,l),
(381,362,l),
(632,0,l),
(514,0,l),
(320,282,l),
(127,0,l),
(8,0,l),
(261,360,l),
(20,704,l),
(140,704,l)
);
}
);
width = 641;
},
{
anchors = (
{
name = bottom;
pos = (314,0);
},
{
name = top;
pos = (314,712);
}
);
layerId = "F1A19D98-9E48-4F05-B6A0-CD51606DBCB8";
shapes = (
{
closed = 1;
nodes = (
(316,426,l),
(507,705,l),
(603,705,l),
(363,363,l),
(616,0,l),
(519,0,l),
(313,296,l),
(109,0,l),
(10,0,l),
(265,361,l),
(22,705,l),
(121,705,l)
);
}
);
width = 627;
}
);
unicode = 88;
},
{
color = 1;
glyphname = Y;
lastChange = "2024-01-25 16:12:43 +0000";
layers = (
{
anchors = (
{
name = bottom;
pos = (357,0);
},
{
name = top;
pos = (357,712);
},
{
name = topleft;
pos = (20,712);
}
);
layerId = "F6364453-91B0-4CE2-A857-F52B6F68B874";
shapes = (
{
closed = 1;
nodes = (
(259,0,l),
(259,262,l),
(-7,700,l),
(214,700,l),
(358,445,l),
(503,700,l),
(720,700,l),
(454,265,l),
(454,0,l)
);
}
);
width = 713;
},
{
anchors = (
{
name = bottom;
pos = (318,0);
},
{
name = top;
pos = (318,712);
},
{
name = topleft;
pos = (20,712);
}
);
layerId = "8AF3DB8E-7EC5-4D7D-A87A-6DF3FCB8CADF";
shapes = (
{
closed = 1;
nodes = (
(267,0,l),
(267,277,l),
(-3,704,l),
(117,704,l),
(321,373,l),
(524,704,l),
(639,704,l),
(370,278,l),
(370,0,l)
);
}
);
width = 636;
},
{
anchors = (
{
name = bottom;
pos = (311,0);
},
{
name = top;
pos = (311,712);
},
{
name = topleft;
pos = (20,712);
}
);
layerId = "F1A19D98-9E48-4F05-B6A0-CD51606DBCB8";
shapes = (
{
closed = 1;
nodes = (
(269,0,l),
(269,280,l),
(-2,705,l),
(98,705,l),
(314,358,l),
(528,705,l),
(623,705,l),
(353,281,l),
(353,0,l)
);
}
);
width = 621;
}
);
unicode = 89;
},
{
color = 1;
glyphname = Z;
lastChange = "2024-01-25 16:16:23 +0000";
layers = (
{
anchors = (
{
name = bottom;
pos = (312,0);
},
{
name = center;
pos = (312,356);
},
{
name = top;
pos = (312,712);
}
);
layerId = "F6364453-91B0-4CE2-A857-F52B6F68B874";
shapes = (
{
closed = 1;
nodes = (
(615,164,l),
(615,0,l),
(-4,0,l),
(-4,141,l),
(347,536,l),
(8,536,l),
(8,700,l),
(615,700,l),
(615,559,l),
(264,164,l)
);
}
);
width = 624;
},
{
anchors = (
{
name = bottom;
pos = (320,0);
},
{
name = center;
pos = (320,356);
},
{
name = top;
pos = (320,712);
}
);
layerId = "8AF3DB8E-7EC5-4D7D-A87A-6DF3FCB8CADF";
shapes = (
{
closed = 1;
nodes = (
(599,90,l),
(599,0,l),
(11,0,l),
(11,84,l),
(486,614,l),
(36,614,l),
(36,704,l),
(617,704,l),
(617,620,l),
(147,90,l)
);
}
);
width = 639;
},
{
anchors = (
{
name = bottom;
pos = (321,0);
},
{
name = center;
pos = (321,356);
},
{
name = top;
pos = (321,712);
}
);
layerId = "F1A19D98-9E48-4F05-B6A0-CD51606DBCB8";
shapes = (
{
closed = 1;
nodes = (
(596,75,l),
(596,0,l),
(14,0,l),
(14,72,l),
(514,630,l),
(42,630,l),
(42,705,l),
(617,705,l),
(617,632,l),
(124,75,l)
);
}
);
width = 642;
}
);
unicode = 90;
},
{
glyphname = bracketleft;
lastChange = "2024-01-25 14:19:30 +0000";
layers = (
{
layerId = "F6364453-91B0-4CE2-A857-F52B6F68B874";
shapes = (
{
closed = 1;
nodes = (
(235,571,l),
(235,-1,l),
(411,-1,l),
(411,-130,l),
(65,-130,l),
(65,700,l),
(411,700,l),
(411,571,l)
);
}
);
width = 459;
},
{
layerId = "8AF3DB8E-7EC5-4D7D-A87A-6DF3FCB8CADF";
shapes = (
{
closed = 1;
nodes = (
(173,645,l),
(173,-77,l),
(338,-77,l),
(338,-153,l),
(80,-153,l),
(80,722,l),
(338,722,l),
(338,645,l)
);
}
);
width = 391;
},
{
layerId = "F1A19D98-9E48-4F05-B6A0-CD51606DBCB8";
shapes = (
{
closed = 1;
nodes = (
(160,660,l),
(160,-92,l),
(323,-92,l),
(323,-158,l),
(83,-158,l),
(83,726,l),
(323,726,l),
(323,660,l)
);
}
);
width = 377;
}
);
unicode = 91;
},
{
glyphname = backslash;
lastChange = "2024-01-25 14:19:30 +0000";
layers = (
{
layerId = "F6364453-91B0-4CE2-A857-F52B6F68B874";
shapes = (
{
closed = 1;
nodes = (
(142,798,l),
(573,-103,l),
(431,-128,l),
(-1,776,l)
);
}
);
width = 572;
},
{
layerId = "8AF3DB8E-7EC5-4D7D-A87A-6DF3FCB8CADF";
shapes = (
{
closed = 1;
nodes = (
(85,784,l),
(501,-110,l),
(416,-119,l),
(2,774,l)
);
}
);
width = 502;
},
{
layerId = "F1A19D98-9E48-4F05-B6A0-CD51606DBCB8";
shapes = (
{
closed = 1;
nodes = (
(74,781,l),
(486,-111,l),
(413,-117,l),
(2,773,l)
);
}
);
width = 488;
}
);
unicode = 92;
},
{
glyphname = bracketright;
lastChange = "2024-01-25 14:19:30 +0000";
layers = (
{
layerId = "F6364453-91B0-4CE2-A857-F52B6F68B874";
shapes = (
{
closed = 1;
nodes = (
(226,-1,l),
(226,571,l),
(50,571,l),
(50,700,l),
(396,700,l),
(396,-130,l),
(50,-130,l),
(50,-1,l)
);
}
);
width = 460;
},
{
layerId = "8AF3DB8E-7EC5-4D7D-A87A-6DF3FCB8CADF";
shapes = (
{
closed = 1;
nodes = (
(219,-77,l),
(219,644,l),
(53,644,l),
(53,722,l),
(313,722,l),
(313,-154,l),
(53,-154,l),
(53,-77,l)
);
}
);
width = 393;
},
{
layerId = "F1A19D98-9E48-4F05-B6A0-CD51606DBCB8";
shapes = (
{
closed = 1;
nodes = (
(217,-92,l),
(217,659,l),
(54,659,l),
(54,726,l),
(296,726,l),
(296,-159,l),
(54,-159,l),
(54,-92,l)
);
}
);
width = 380;
}
);
unicode = 93;
},
{
glyphname = asciicircum;
lastChange = "2024-01-25 14:19:30 +0000";
layers = (
{
layerId = "F6364453-91B0-4CE2-A857-F52B6F68B874";
shapes = (
{
closed = 1;
nodes = (
(294,699,l),
(438,493,l),
(305,493,l),
(229,590,l),
(153,493,l),
(22,493,l),
(166,699,l)
);
}
);
width = 459;
},
{
layerId = "8AF3DB8E-7EC5-4D7D-A87A-6DF3FCB8CADF";
shapes = (
{
closed = 1;
nodes = (
(285,705,l),
(460,431,l),
(374,431,l),
(244,633,l),
(114,431,l),
(31,431,l),
(204,705,l)
);
}
);
width = 491;
},
{
layerId = "F1A19D98-9E48-4F05-B6A0-CD51606DBCB8";
shapes = (
{
closed = 1;
nodes = (
(283,706,l),
(464,418,l),
(388,418,l),
(247,642,l),
(106,418,l),
(33,418,l),
(211,706,l)
);
}
);
width = 497;
}
);
unicode = 94;
},
{
glyphname = underscore;
lastChange = "2024-01-25 14:19:30 +0000";
layers = (
{
layerId = "F6364453-91B0-4CE2-A857-F52B6F68B874";
shapes = (
{
closed = 1;
nodes = (
(604,-44,l),
(604,-160,l),
(0,-160,l),
(0,-44,l)
);
}
);
width = 604;
},
{
layerId = "8AF3DB8E-7EC5-4D7D-A87A-6DF3FCB8CADF";
shapes = (
{
closed = 1;
nodes = (
(568,-76,l),
(568,-149,l),
(0,-149,l),
(0,-76,l)
);
}
);
width = 568;
},
{
layerId = "F1A19D98-9E48-4F05-B6A0-CD51606DBCB8";
shapes = (
{
closed = 1;
nodes = (
(561,-82,l),
(561,-147,l),
(0,-147,l),
(0,-82,l)
);
}
);
width = 561;
}
);
unicode = 95;
},
{
glyphname = grave;
lastChange = "2024-01-25 16:24:05 +0000";
layers = (
{
layerId = "F6364453-91B0-4CE2-A857-F52B6F68B874";
shapes = (
{
closed = 1;
nodes = (
(161,791,l),
(265,606,l),
(131,606,l),
(-16,734,l)
);
}
);
width = 269;
},
{
layerId = "8AF3DB8E-7EC5-4D7D-A87A-6DF3FCB8CADF";
shapes = (
{
closed = 1;
nodes = (
(125,761,l),
(222,606,l),
(147,606,l),
(17,735,l)
);
}
);
width = 242;
},
{
layerId = "F1A19D98-9E48-4F05-B6A0-CD51606DBCB8";
shapes = (
{
closed = 1;
nodes = (
(118,755,l),
(213,606,l),
(150,606,l),
(24,735,l)
);
}
);
width = 237;
}
);
unicode = 96;
},
{
color = 1;
glyphname = a;
lastChange = "2024-01-25 16:29:30 +0000";
layers = (
{
anchors = (
{
name = bottom;
pos = (306,0);
},
{
name = ogonek;
pos = (558,0);
},
{
name = top;
pos = (306,536);
}
);
layerId = "F6364453-91B0-4CE2-A857-F52B6F68B874";
shapes = (
{
closed = 1;
nodes = (
(373,221,l),
(356,229,o),
(329,235,o),
(302,235,cs),
(246,235,o),
(214,206,o),
(214,170,cs),
(214,133,o),
(247,107,o),
(286,107,cs),
(317,107,o),
(346,116,o),
(373,139,c)
);
},
{
closed = 1;
nodes = (
(372,56,l),
(335,15,o),
(286,-12,o),
(214,-12,cs),
(109,-12,o),
(29,49,o),
(29,157,cs),
(29,269,o),
(116,327,o),
(241,327,cs),
(293,327,o),
(342,317,o),
(373,306,c),
(373,315,ls),
(373,378,o),
(329,404,o),
(240,404,cs),
(187,404,o),
(136,396,o),
(76,373,c),
(76,507,l),
(140,532,o),
(202,549,o),
(290,549,cs),
(478,549,o),
(558,466,o),
(558,311,cs),
(558,-12,l)
);
}
);
width = 611;
},
{
anchors = (
{
name = bottom;
pos = (280,0);
},
{
name = ogonek;
pos = (493,0);
},
{
name = top;
pos = (280,536);
}
);
layerId = "8AF3DB8E-7EC5-4D7D-A87A-6DF3FCB8CADF";
shapes = (
{
closed = 1;
nodes = (
(394,227,l),
(363,244,o),
(324,261,o),
(265,261,cs),
(202,261,o),
(133,232,o),
(133,163,cs),
(133,96,o),
(192,65,o),
(259,65,cs),
(319,65,o),
(362,88,o),
(394,125,c)
);
},
{
closed = 1;
nodes = (
(392,50,l),
(348,10,o),
(300,-11,o),
(232,-11,cs),
(136,-11,o),
(34,53,o),
(34,169,cs),
(34,293,o),
(141,332,o),
(245,332,cs),
(301,332,o),
(353,323,o),
(394,300,c),
(394,318,ls),
(394,391,o),
(337,419,o),
(252,419,cs),
(189,419,o),
(129,407,o),
(69,372,c),
(69,460,l),
(117,480,o),
(184,502,o),
(263,502,cs),
(391,502,o),
(493,437,o),
(493,309,cs),
(493,-2,l)
);
}
);
width = 559;
},
{
anchors = (
{
name = bottom;
pos = (274,0);
},
{
name = ogonek;
pos = (480,0);
},
{
name = top;
pos = (274,536);
}
);
layerId = "F1A19D98-9E48-4F05-B6A0-CD51606DBCB8";
shapes = (
{
closed = 1;
nodes = (
(398,228,l),
(365,247,o),
(322,266,o),
(258,266,cs),
(193,266,o),
(117,238,o),
(117,161,cs),
(117,90,o),
(181,57,o),
(253,57,cs),
(318,57,o),
(365,82,o),
(398,122,c)
);
},
{
closed = 1;
nodes = (
(396,49,l),
(351,9,o),
(303,-11,o),
(235,-11,cs),
(140,-11,o),
(35,42,o),
(35,171,cs),
(35,296,o),
(146,333,o),
(246,333,cs),
(303,333,o),
(355,324,o),
(398,299,c),
(398,318,ls),
(398,394,o),
(338,422,o),
(254,422,cs),
(190,422,o),
(127,408,o),
(67,372,c),
(67,450,l),
(112,470,o),
(181,492,o),
(257,492,cs),
(373,492,o),
(480,431,o),
(480,308,cs),
(480,0,l)
);
}
);
width = 548;
}
);
unicode = 97;
},
{
color = 1;
glyphname = b;
lastChange = "2024-01-25 16:55:08 +0000";
layers = (
{
anchors = (
{
name = bottom;
pos = (338,0);
},
{
name = center;
pos = (338,268);
},
{
name = top;
pos = (428,536);
}
);
layerId = "F6364453-91B0-4CE2-A857-F52B6F68B874";
shapes = (
{
closed = 1;
nodes = (
(52,-12,l),
(52,730,l),
(242,730,l),
(242,469,l),
(279,514,o),
(325,553,o),
(406,553,cs),
(534,553,o),
(646,446,o),
(646,271,cs),
(646,95,o),
(535,-12,o),
(407,-12,cs),
(341,-12,o),
(284,14,o),
(242,66,c)
);
},
{
closed = 1;
nodes = (
(287,394,o),
(239,343,o),
(239,270,cs),
(239,198,o),
(287,147,o),
(348,147,cs),
(410,147,o),
(459,197,o),
(459,272,cs),
(459,336,o),
(417,394,o),
(348,394,cs)
);
}
);
width = 675;
},
{
anchors = (
{
name = bottom;
pos = (309,0);
},
{
name = center;
pos = (309,268);
},
{
name = top;
pos = (349,536);
}
);
layerId = "8AF3DB8E-7EC5-4D7D-A87A-6DF3FCB8CADF";
shapes = (
{
closed = 1;
nodes = (
(65,-1,l),
(65,732,l),
(165,732,l),
(165,407,l),
(208,464,o),
(267,504,o),
(347,504,cs),
(478,504,o),
(584,402,o),
(584,246,cs),
(584,92,o),
(477,-10,o),
(345,-10,cs),
(276,-10,o),
(216,17,o),
(172,70,c)
);
},
{
closed = 1;
nodes = (
(235,417,o),
(162,346,o),
(162,246,cs),
(162,147,o),
(235,74,o),
(323,74,cs),
(416,74,o),
(485,145,o),
(485,245,cs),
(485,338,o),
(422,417,o),
(323,417,cs)
);
}
);
width = 618;
},
{
anchors = (
{
name = bottom;
pos = (303,0);
},
{
name = center;
pos = (303,268);
},
{
name = top;
pos = (333,536);
}
);
layerId = "F1A19D98-9E48-4F05-B6A0-CD51606DBCB8";
shapes = (
{
closed = 1;
nodes = (
(67,1,l),
(67,732,l),
(149,732,l),
(149,394,l),
(192,454,o),
(255,494,o),
(335,494,cs),
(466,494,o),
(572,393,o),
(572,241,cs),
(572,91,o),
(465,-10,o),
(333,-10,cs),
(263,-10,o),
(203,17,o),
(158,71,c)
);
},
{
closed = 1;
nodes = (
(224,422,o),
(146,346,o),
(146,241,cs),
(146,138,o),
(224,59,o),
(318,59,cs),
(417,59,o),
(490,134,o),
(490,240,cs),
(490,339,o),
(424,422,o),
(318,422,cs)
);
}
);
width = 606;
}
);
unicode = 98;
},
{
color = 1;
glyphname = c;
lastChange = "2024-01-25 16:31:20 +0000";
layers = (
{
anchors = (
{
name = bottom;
pos = (327,0);
},
{
name = top;
pos = (307,536);
}
);
layerId = "F6364453-91B0-4CE2-A857-F52B6F68B874";
shapes = (
{
closed = 1;
nodes = (
(432,355,l),
(403,378,o),
(374,392,o),
(335,392,cs),
(264,392,o),
(215,338,o),
(215,270,cs),
(215,201,o),
(269,147,o),
(338,147,cs),
(369,147,o),
(404,156,o),
(437,183,c),
(437,6,l),
(404,-6,o),
(358,-13,o),
(318,-13,cs),
(155,-13,o),
(30,115,o),
(30,270,cs),
(30,422,o),
(149,552,o),
(320,552,cs),
(357,552,o),
(401,548,o),
(432,537,c)
);
}
);
width = 473;
},
{
anchors = (
{
name = bottom;
pos = (276,0);
},
{
name = top;
pos = (296,536);
}
);
layerId = "8AF3DB8E-7EC5-4D7D-A87A-6DF3FCB8CADF";
shapes = (
{
closed = 1;
nodes = (
(422,358,l),
(386,397,o),
(343,418,o),
(292,418,cs),
(201,418,o),
(134,347,o),
(134,250,cs),
(134,155,o),
(204,75,o),
(295,75,cs),
(347,75,o),
(392,98,o),
(427,135,c),
(427,30,l),
(388,7,o),
(341,-10,o),
(284,-10,cs),
(142,-10,o),
(34,101,o),
(34,245,cs),
(34,385,o),
(137,502,o),
(290,502,cs),
(337,502,o),
(387,491,o),
(422,466,c)
);
}
);
width = 471;
},
{
anchors = (
{
name = bottom;
pos = (275,0);
},
{
name = top;
pos = (255,536);
}
);
layerId = "F1A19D98-9E48-4F05-B6A0-CD51606DBCB8";
shapes = (
{
closed = 1;
nodes = (
(420,359,l),
(383,399,o),
(336,423,o),
(283,423,cs),
(187,423,o),
(118,347,o),
(118,247,cs),
(118,146,o),
(191,60,o),
(286,60,cs),
(342,60,o),
(389,86,o),
(425,125,c),
(425,35,l),
(386,11,o),
(337,-9,o),
(277,-9,cs),
(139,-9,o),
(35,99,o),
(35,240,cs),
(35,379,o),
(135,492,o),
(284,492,cs),
(332,492,o),
(384,479,o),
(420,452,c)
);
}
);
width = 470;
}
);
unicode = 99;
},
{
color = 1;
glyphname = d;
lastChange = "2024-01-25 22:23:22 +0000";
layers = (
{
anchors = (
{
name = bottom;
pos = (338,0);
},
{
name = center;
pos = (338,268);
},
{
name = top;
pos = (338,747);
},
{
name = topright;
pos = (456,747);
}
);
layerId = "F6364453-91B0-4CE2-A857-F52B6F68B874";
shapes = (
{
closed = 1;
nodes = (
(433,72,l),
(396,27,o),
(349,-12,o),
(269,-12,cs),
(141,-12,o),
(29,95,o),
(29,270,cs),
(29,446,o),
(140,553,o),
(268,553,cs),
(349,553,o),
(397,516,o),
(433,475,c),
(433,730,l),
(623,730,l),
(623,-12,l)
);
},
{
closed = 1;
nodes = (
(387,147,o),
(436,197,o),
(436,272,cs),
(436,343,o),
(387,394,o),
(326,394,cs),
(267,394,o),
(216,344,o),
(216,270,cs),
(216,208,o),
(259,147,o),
(326,147,cs)
);
}
);
width = 675;
},
{
anchors = (
{
name = bottom;
pos = (309,0);
},
{
name = center;
pos = (309,268);
},
{
name = top;
pos = (309,747);
},
{
name = topright;
pos = (452,747);
}
);
layerId = "8AF3DB8E-7EC5-4D7D-A87A-6DF3FCB8CADF";
shapes = (
{
closed = 1;
nodes = (
(444,76,l),
(401,25,o),
(352,-10,o),
(273,-10,cs),
(142,-10,o),
(34,89,o),
(34,246,cs),
(34,403,o),
(143,504,o),
(271,504,cs),
(352,504,o),
(412,467,o),
(452,411,c),
(452,732,l),
(552,732,l),
(552,-1,l)
);
},
{
closed = 1;
nodes = (
(380,75,o),
(455,147,o),
(455,247,cs),
(455,346,o),
(378,419,o),
(291,419,cs),
(206,419,o),
(134,350,o),
(134,247,cs),
(134,156,o),
(193,75,o),
(291,75,cs)
);
}
);
width = 618;
},
{
anchors = (
{
name = bottom;
pos = (303,0);
},
{
name = center;
pos = (303,268);
},
{
name = top;
pos = (303,747);
},
{
name = topright;
pos = (446,747);
}
);
layerId = "F1A19D98-9E48-4F05-B6A0-CD51606DBCB8";
shapes = (
{
closed = 1;
nodes = (
(446,77,l),
(402,24,o),
(353,-10,o),
(274,-10,cs),
(143,-10,o),
(35,88,o),
(35,241,cs),
(35,394,o),
(143,494,o),
(271,494,cs),
(352,494,o),
(415,458,o),
(456,398,c),
(456,732,l),
(538,732,l),
(538,1,l)
);
},
{
closed = 1;
nodes = (
(379,60,o),
(459,137,o),
(459,242,cs),
(459,347,o),
(376,424,o),
(284,424,cs),
(192,424,o),
(118,351,o),
(118,242,cs),
(118,146,o),
(180,60,o),
(284,60,cs)
);
}
);
width = 606;
}
);
unicode = 100;
},
{
color = 1;
glyphname = e;
lastChange = "2024-01-25 16:30:05 +0000";
layers = (
{
anchors = (
{
name = bottom;
pos = (305,0);
},
{
name = ogonek;
pos = (527,42);
},
{
name = top;
pos = (305,536);
}
);
layerId = "F6364453-91B0-4CE2-A857-F52B6F68B874";
shapes = (
{
closed = 1;
nodes = (
(527,42,l),
(458,-3,o),
(371,-17,o),
(312,-17,cs),
(145,-17,o),
(30,104,o),
(30,269,cs),
(30,429,o),
(148,548,o),
(312,548,cs),
(488,548,o),
(580,401,o),
(580,240,c),
(225,148,l),
(249,128,o),
(279,121,o),
(315,121,cs),
(382,121,o),
(478,146,o),
(527,190,c)
);
},
{
closed = 1;
nodes = (
(394,319,l),
(382,375,o),
(348,407,o),
(301,407,cs),
(232,407,o),
(210,334,o),
(210,275,cs),
(210,272,l)
);
}
);
width = 609;
},
{
anchors = (
{
name = bottom;
pos = (273,0);
},
{
name = ogonek;
pos = (467,44);
},
{
name = top;
pos = (273,536);
}
);
layerId = "8AF3DB8E-7EC5-4D7D-A87A-6DF3FCB8CADF";
shapes = (
{
closed = 1;
nodes = (
(467,44,l),
(423,10,o),
(359,-12,o),
(290,-12,cs),
(143,-12,o),
(34,95,o),
(34,244,cs),
(34,391,o),
(131,504,o),
(274,504,cs),
(417,504,o),
(500,393,o),
(513,262,c),
(141,171,l),
(164,111,o),
(214,69,o),
(294,69,cs),
(359,69,o),
(421,96,o),
(467,142,c)
);
},
{
closed = 1;
nodes = (
(412,317,l),
(396,377,o),
(346,422,o),
(274,422,cs),
(180,422,o),
(131,337,o),
(131,252,c),
(134,245,l)
);
}
);
width = 546;
},
{
anchors = (
{
name = bottom;
pos = (267,0);
},
{
name = ogonek;
pos = (455,44);
},
{
name = top;
pos = (267,536);
}
);
layerId = "F1A19D98-9E48-4F05-B6A0-CD51606DBCB8";
shapes = (
{
closed = 1;
nodes = (
(455,44,l),
(415,12,o),
(356,-11,o),
(285,-11,cs),
(142,-11,o),
(35,92,o),
(35,239,cs),
(35,382,o),
(126,495,o),
(266,495,cs),
(404,495,o),
(483,390,o),
(499,266,c),
(124,175,l),
(147,107,o),
(202,59,o),
(290,59,cs),
(355,59,o),
(409,86,o),
(455,132,c)
);
},
{
closed = 1;
nodes = (
(416,316,l),
(399,377,o),
(345,425,o),
(269,425,cs),
(169,425,o),
(115,336,o),
(115,249,c),
(119,240,l)
);
}
);
width = 533;
}
);
unicode = 101;
},
{
color = 3;
glyphname = f;
lastChange = "2024-01-25 16:55:49 +0000";
layers = (
{
anchors = (
{
name = bottom;
pos = (200,0);
},
{
name = top;
pos = (200,747);
}
);
layerId = "F6364453-91B0-4CE2-A857-F52B6F68B874";
shapes = (
{
closed = 1;
nodes = (
(401,588,l),
(378,595,o),
(347,599,o),
(324,599,cs),
(289,599,o),
(246,583,o),
(246,548,cs),
(246,535,l),
(400,535,l),
(400,389,l),
(279,389,l),
(279,0,l),
(90,0,l),
(90,389,l),
(7,389,l),
(90,535,l),
(90,550,ls),
(90,681,o),
(164,737,o),
(285,737,cs),
(334,737,o),
(370,731,o),
(401,722,c)
);
}
);
width = 399;
},
{
anchors = (
{
name = bottom;
pos = (168,0);
},
{
name = top;
pos = (168,747);
}
);
layerId = "8AF3DB8E-7EC5-4D7D-A87A-6DF3FCB8CADF";
shapes = (
{
closed = 1;
nodes = (
(339,646,l),
(320,653,o),
(302,657,o),
(283,657,cs),
(225,657,o),
(199,621,o),
(199,552,cs),
(199,491,l),
(325,491,l),
(325,409,l),
(204,409,l),
(204,0,l),
(107,0,l),
(107,409,l),
(11,409,l),
(107,493,l),
(107,556,ls),
(107,684,o),
(169,736,o),
(268,736,cs),
(297,736,o),
(320,732,o),
(339,725,c)
);
}
);
width = 335;
},
{
anchors = (
{
name = bottom;
pos = (161,0);
},
{
name = top;
pos = (161,747);
}
);
layerId = "F1A19D98-9E48-4F05-B6A0-CD51606DBCB8";
shapes = (
{
closed = 1;
nodes = (
(326,658,l),
(309,665,o),
(292,668,o),
(275,668,cs),
(212,668,o),
(189,628,o),
(189,553,cs),
(189,482,l),
(310,482,l),
(310,413,l),
(189,413,l),
(189,0,l),
(110,0,l),
(110,413,l),
(12,413,l),
(110,484,l),
(110,557,ls),
(110,685,o),
(170,736,o),
(265,736,cs),
(289,736,o),
(310,731,o),
(326,726,c)
);
}
);
width = 322;
}
);
unicode = 102;
},
{
color = 1;
glyphname = g;
lastChange = "2024-01-25 16:35:38 +0000";
layers = (
{
anchors = (
{
name = bottom;
pos = (340,-235);
},
{
name = top;
pos = (340,536);
}
);
layerId = "F6364453-91B0-4CE2-A857-F52B6F68B874";
shapes = (
{
closed = 1;
nodes = (
(396,196,o),
(442,241,o),
(442,302,cs),
(442,361,o),
(396,405,o),
(332,405,cs),
(267,405,o),
(222,360,o),
(222,299,cs),
(222,237,o),
(270,196,o),
(332,196,cs)
);
},
{
closed = 1;
nodes = (
(442,130,l),
(403,85,o),
(355,48,o),
(274,48,cs),
(143,48,o),
(35,145,o),
(35,301,cs),
(35,457,o),
(144,553,o),
(275,553,cs),
(351,553,o),
(398,520,o),
(439,477,c),
(629,541,l),
(629,131,ls),
(629,-66,o),
(485,-162,o),
(288,-162,cs),
(192,-162,o),
(129,-140,o),
(50,-100,c),
(50,50,l),
(105,16,o),
(199,-25,o),
(286,-25,cs),
(374,-25,o),
(442,13,o),
(442,109,cs)
);
}
);
width = 680;
},
{
anchors = (
{
name = bottom;
pos = (312,-235);
},
{
name = top;
pos = (312,536);
}
);
layerId = "8AF3DB8E-7EC5-4D7D-A87A-6DF3FCB8CADF";
shapes = (
{
closed = 1;
nodes = (
(386,107,o),
(458,172,o),
(458,263,cs),
(458,356,o),
(387,421,o),
(296,421,cs),
(205,421,o),
(140,357,o),
(140,265,cs),
(140,176,o),
(205,107,o),
(297,107,cs)
);
},
{
closed = 1;
nodes = (
(458,118,l),
(411,61,o),
(355,24,o),
(274,24,cs),
(141,24,o),
(38,122,o),
(38,261,cs),
(38,407,o),
(146,504,o),
(274,504,cs),
(354,504,o),
(407,471,o),
(448,423,c),
(557,492,l),
(557,69,ls),
(557,-101,o),
(441,-189,o),
(276,-189,cs),
(195,-189,o),
(128,-168,o),
(75,-139,c),
(75,-39,l),
(131,-82,o),
(198,-108,o),
(276,-108,cs),
(394,-108,o),
(458,-58,o),
(458,64,cs)
);
}
);
width = 623;
},
{
anchors = (
{
name = bottom;
pos = (306,-235);
},
{
name = top;
pos = (306,536);
}
);
layerId = "F1A19D98-9E48-4F05-B6A0-CD51606DBCB8";
shapes = (
{
closed = 1;
nodes = (
(384,89,o),
(461,159,o),
(461,255,cs),
(461,354,o),
(385,424,o),
(289,424,cs),
(193,424,o),
(123,357,o),
(123,258,cs),
(123,163,o),
(191,89,o),
(290,89,cs)
);
},
{
closed = 1;
nodes = (
(461,115,l),
(414,55,o),
(355,19,o),
(274,19,cs),
(141,19,o),
(39,117,o),
(39,253,cs),
(39,397,o),
(146,494,o),
(274,494,cs),
(354,494,o),
(409,461,o),
(450,412,c),
(542,482,l),
(542,56,ls),
(542,-108,o),
(432,-194,o),
(274,-194,cs),
(196,-194,o),
(128,-174,o),
(80,-147,c),
(80,-57,l),
(136,-102,o),
(199,-124,o),
(274,-124,cs),
(398,-124,o),
(461,-72,o),
(461,55,cs)
);
}
);
width = 611;
}
);
unicode = 103;
},
{
color = 3;
glyphname = h;
lastChange = "2024-01-25 16:54:13 +0000";
layers = (
{
anchors = (
{
name = bottom;
pos = (318,0);
},
{
name = center;
pos = (318,374);
},
{
name = top;
pos = (318,747);
}
);
layerId = "F6364453-91B0-4CE2-A857-F52B6F68B874";
shapes = (
{
closed = 1;
nodes = (
(587,0,l),
(397,0,l),
(397,293,ls),
(397,353,o),
(364,384,o),
(321,384,cs),
(278,384,o),
(241,352,o),
(241,293,cs),
(241,0,l),
(51,0,l),
(51,730,l),
(241,730,l),
(241,467,l),
(276,512,o),
(326,553,o),
(403,553,cs),
(518,553,o),
(587,469,o),
(587,354,cs)
);
}
);
width = 635;
},
{
anchors = (
{
name = bottom;
pos = (279,0);
},
{
name = center;
pos = (279,374);
},
{
name = top;
pos = (279,747);
}
);
layerId = "8AF3DB8E-7EC5-4D7D-A87A-6DF3FCB8CADF";
shapes = (
{
closed = 1;
nodes = (
(499,0,l),
(399,0,l),
(399,282,ls),
(399,366,o),
(363,407,o),
(294,407,cs),
(227,407,o),
(164,366,o),
(164,282,cs),
(164,0,l),
(64,0,l),
(64,732,l),
(158,732,l),
(158,425,l),
(193,468,o),
(250,503,o),
(325,503,cs),
(442,503,o),
(499,430,o),
(499,312,cs)
);
}
);
width = 558;
},
{
anchors = (
{
name = bottom;
pos = (271,0);
},
{
name = center;
pos = (271,374);
},
{
name = top;
pos = (271,747);
}
);
layerId = "F1A19D98-9E48-4F05-B6A0-CD51606DBCB8";
shapes = (
{
closed = 1;
nodes = (
(481,0,l),
(399,0,l),
(399,280,ls),
(399,368,o),
(364,412,o),
(288,412,cs),
(216,412,o),
(149,369,o),
(149,280,cs),
(149,0,l),
(67,0,l),
(67,732,l),
(141,732,l),
(141,416,l),
(176,459,o),
(236,493,o),
(309,493,cs),
(427,493,o),
(481,422,o),
(481,303,cs)
);
}
);
width = 542;
}
);
unicode = 104;
},
{
color = 3;
glyphname = i;
lastChange = "2024-01-25 16:55:56 +0000";
layers = (
{
anchors = (
{
name = bottom;
pos = (146,0);
}
);
layerId = "F6364453-91B0-4CE2-A857-F52B6F68B874";
shapes = (
{
closed = 1;
nodes = (
(51,0,l),
(51,541,l),
(241,541,l),
(241,0,l)
);
},
{
closed = 1;
nodes = (
(205,780,o),
(253,748,o),
(253,684,cs),
(253,620,o),
(205,587,o),
(145,587,cs),
(85,587,o),
(38,620,o),
(38,684,cs),
(38,748,o),
(85,780,o),
(145,780,cs)
);
}
);
width = 291;
},
{
anchors = (
{
name = bottom;
pos = (120,0);
}
);
layerId = "8AF3DB8E-7EC5-4D7D-A87A-6DF3FCB8CADF";
shapes = (
{
closed = 1;
nodes = (
(70,0,l),
(70,492,l),
(169,492,l),
(169,0,l)
);
},
{
closed = 1;
nodes = (
(158,712,o),
(187,686,o),
(187,645,cs),
(187,608,o),
(158,580,o),
(118,580,cs),
(82,580,o),
(51,608,o),
(51,645,cs),
(51,684,o),
(79,712,o),
(118,712,cs)
);
}
);
width = 239;
},
{
anchors = (
{
name = bottom;
pos = (115,0);
}
);
layerId = "F1A19D98-9E48-4F05-B6A0-CD51606DBCB8";
shapes = (
{
closed = 1;
nodes = (
(74,0,l),
(74,482,l),
(155,482,l),
(155,0,l)
);
},
{
closed = 1;
nodes = (
(148,698,o),
(174,673,o),
(174,637,cs),
(174,606,o),
(148,578,o),
(113,578,cs),
(81,578,o),
(53,606,o),
(53,637,cs),
(53,671,o),
(79,698,o),
(113,698,cs)
);
}
);
width = 229;
}
);
unicode = 105;
},
{
glyphname = j;
lastChange = "2024-01-25 14:19:30 +0000";
layers = (
{
layerId = "F6364453-91B0-4CE2-A857-F52B6F68B874";
shapes = (
{
closed = 1;
nodes = (
(38,-23,l),
(53,-28,o),
(64,-31,o),
(76,-31,cs),
(100,-31,o),
(119,-15,o),
(119,32,cs),
(119,541,l),
(309,541,l),
(309,24,ls),
(309,-113,o),
(239,-163,o),
(116,-163,cs),
(85,-163,o),
(61,-160,o),
(38,-156,c)
);
},
{
closed = 1;
nodes = (
(273,780,o),
(321,748,o),
(321,684,cs),
(321,620,o),
(273,587,o),
(213,587,cs),
(153,587,o),
(106,620,o),
(106,684,cs),
(106,748,o),
(153,780,o),
(213,780,cs)
);
}
);
width = 359;
},
{
layerId = "8AF3DB8E-7EC5-4D7D-A87A-6DF3FCB8CADF";
shapes = (
{
closed = 1;
nodes = (
(51,-103,l),
(62,-107,o),
(73,-109,o),
(84,-109,cs),
(124,-109,o),
(133,-81,o),
(133,-46,cs),
(133,492,l),
(232,492,l),
(232,-27,ls),
(232,-121,o),
(210,-189,o),
(105,-189,cs),
(82,-189,o),
(67,-186,o),
(51,-182,c)
);
},
{
closed = 1;
nodes = (
(215,712,o),
(247,686,o),
(247,645,cs),
(247,608,o),
(215,580,o),
(179,580,cs),
(140,580,o),
(111,608,o),
(111,645,cs),
(111,685,o),
(140,712,o),
(179,712,cs)
);
}
);
width = 299;
},
{
layerId = "F1A19D98-9E48-4F05-B6A0-CD51606DBCB8";
shapes = (
{
closed = 1;
nodes = (
(53,-119,l),
(64,-123,o),
(75,-125,o),
(86,-125,cs),
(129,-125,o),
(136,-94,o),
(136,-62,cs),
(136,482,l),
(217,482,l),
(217,-37,ls),
(217,-122,o),
(204,-194,o),
(103,-194,cs),
(83,-194,o),
(68,-191,o),
(53,-187,c)
);
},
{
closed = 1;
nodes = (
(203,698,o),
(232,673,o),
(232,637,cs),
(232,606,o),
(203,578,o),
(172,578,cs),
(139,578,o),
(112,606,o),
(112,637,cs),
(112,671,o),
(137,698,o),
(172,698,cs)
);
}
);
width = 287;
}
);
unicode = 106;
},
{
color = 1;
glyphname = k;
lastChange = "2024-01-25 16:54:41 +0000";
layers = (
{
anchors = (
{
name = bottom;
pos = (304,0);
},
{
name = top;
pos = (304,747);
}
);
layerId = "F6364453-91B0-4CE2-A857-F52B6F68B874";
shapes = (
{
closed = 1;
nodes = (
(388,541,l),
(603,541,l),
(415,324,l),
(608,0,l),
(399,0,l),
(241,283,l),
(241,0,l),
(51,0,l),
(51,730,l),
(241,730,l),
(241,360,l)
);
}
);
width = 608;
},
{
anchors = (
{
name = bottom;
pos = (237,0);
},
{
name = top;
pos = (237,747);
}
);
layerId = "8AF3DB8E-7EC5-4D7D-A87A-6DF3FCB8CADF";
shapes = (
{
closed = 1;
nodes = (
(342,492,l),
(466,492,l),
(252,266,l),
(474,0,l),
(355,0,l),
(164,227,l),
(164,0,l),
(64,0,l),
(64,732,l),
(164,732,l),
(164,294,l)
);
}
);
width = 474;
},
{
anchors = (
{
name = bottom;
pos = (224,0);
},
{
name = top;
pos = (224,747);
}
);
layerId = "F1A19D98-9E48-4F05-B6A0-CD51606DBCB8";
shapes = (
{
closed = 1;
nodes = (
(333,482,l),
(438,482,l),
(219,254,l),
(447,0,l),
(346,0,l),
(149,216,l),
(149,0,l),
(67,0,l),
(67,732,l),
(149,732,l),
(149,281,l)
);
}
);
width = 447;
}
);
unicode = 107;
},
{
color = 1;
glyphname = l;
lastChange = "2024-01-25 16:53:42 +0000";
layers = (
{
anchors = (
{
name = bottom;
pos = (147,0);
},
{
name = center;
pos = (147,374);
},
{
name = top;
pos = (147,747);
},
{
name = topright;
pos = (329,747);
}
);
layerId = "F6364453-91B0-4CE2-A857-F52B6F68B874";
shapes = (
{
closed = 1;
nodes = (
(51,0,l),
(51,730,l),
(241,730,l),
(241,0,l)
);
}
);
width = 293;
},
{
anchors = (
{
name = bottom;
pos = (115,0);
},
{
name = center;
pos = (115,374);
},
{
name = top;
pos = (115,747);
},
{
name = topright;
pos = (289,747);
}
);
layerId = "8AF3DB8E-7EC5-4D7D-A87A-6DF3FCB8CADF";
shapes = (
{
closed = 1;
nodes = (
(64,0,l),
(64,732,l),
(164,732,l),
(164,0,l)
);
}
);
width = 230;
},
{
anchors = (
{
name = bottom;
pos = (109,0);
},
{
name = center;
pos = (109,374);
},
{
name = top;
pos = (109,747);
},
{
name = topright;
pos = (286,747);
}
);
layerId = "F1A19D98-9E48-4F05-B6A0-CD51606DBCB8";
shapes = (
{
closed = 1;
nodes = (
(67,0,l),
(67,732,l),
(148,732,l),
(148,0,l)
);
}
);
width = 217;
}
);
unicode = 108;
},
{
color = 1;
glyphname = m;
lastChange = "2024-01-25 16:54:04 +0000";
layers = (
{
anchors = (
{
name = bottom;
pos = (486,0);
},
{
name = top;
pos = (486,536);
}
);
layerId = "F6364453-91B0-4CE2-A857-F52B6F68B874";
shapes = (
{
closed = 1;
nodes = (
(734,294,ls),
(734,354,o),
(703,384,o),
(660,384,cs),
(609,384,o),
(582,341,o),
(582,294,cs),
(582,0,l),
(392,0,l),
(392,294,ls),
(392,353,o),
(361,384,o),
(318,384,cs),
(275,384,o),
(241,353,o),
(241,294,cs),
(241,0,l),
(51,0,l),
(51,541,l),
(241,467,l),
(284,520,o),
(336,553,o),
(404,553,cs),
(468,553,o),
(529,525,o),
(558,465,c),
(605,521,o),
(660,553,o),
(740,553,cs),
(855,553,o),
(924,462,o),
(924,355,cs),
(924,0,l),
(734,0,l)
);
}
);
width = 971;
},
{
anchors = (
{
name = bottom;
pos = (430,0);
},
{
name = top;
pos = (430,536);
}
);
layerId = "8AF3DB8E-7EC5-4D7D-A87A-6DF3FCB8CADF";
shapes = (
{
closed = 1;
nodes = (
(701,282,ls),
(701,375,o),
(662,415,o),
(598,415,cs),
(522,415,o),
(482,353,o),
(482,282,cs),
(482,0,l),
(382,0,l),
(382,282,ls),
(382,358,o),
(355,415,o),
(280,415,cs),
(205,415,o),
(164,355,o),
(164,282,cs),
(164,0,l),
(64,0,l),
(64,491,l),
(162,431,l),
(198,480,o),
(255,503,o),
(315,503,cs),
(380,503,o),
(436,478,o),
(463,414,c),
(498,471,o),
(558,503,o),
(631,503,cs),
(746,503,o),
(801,421,o),
(801,313,cs),
(801,0,l),
(701,0,l)
);
}
);
width = 859;
},
{
anchors = (
{
name = bottom;
pos = (418,0);
},
{
name = top;
pos = (418,536);
}
);
layerId = "F1A19D98-9E48-4F05-B6A0-CD51606DBCB8";
shapes = (
{
closed = 1;
nodes = (
(694,279,ls),
(694,379,o),
(654,421,o),
(586,421,cs),
(505,421,o),
(462,355,o),
(462,279,cs),
(462,0,l),
(380,0,l),
(380,279,ls),
(380,359,o),
(353,421,o),
(272,421,cs),
(192,421,o),
(149,355,o),
(149,279,cs),
(149,0,l),
(67,0,l),
(67,481,l),
(146,424,l),
(181,472,o),
(240,493,o),
(297,493,cs),
(362,493,o),
(417,468,o),
(444,404,c),
(475,461,o),
(537,493,o),
(609,493,cs),
(724,493,o),
(776,411,o),
(776,304,cs),
(776,0,l),
(694,0,l)
);
}
);
width = 836;
}
);
unicode = 109;
},
{
color = 1;
glyphname = n;
lastChange = "2024-01-25 16:35:53 +0000";
layers = (
{
anchors = (
{
name = bottom;
pos = (318,0);
},
{
name = top;
pos = (318,536);
}
);
layerId = "F6364453-91B0-4CE2-A857-F52B6F68B874";
shapes = (
{
closed = 1;
nodes = (
(587,0,l),
(397,0,l),
(397,293,ls),
(397,352,o),
(364,384,o),
(321,384,cs),
(278,384,o),
(241,352,o),
(241,293,cs),
(241,0,l),
(51,0,l),
(51,541,l),
(241,465,l),
(276,510,o),
(326,553,o),
(403,553,cs),
(517,553,o),
(587,467,o),
(587,354,cs)
);
}
);
width = 635;
},
{
anchors = (
{
name = bottom;
pos = (279,0);
},
{
name = top;
pos = (279,536);
}
);
layerId = "8AF3DB8E-7EC5-4D7D-A87A-6DF3FCB8CADF";
shapes = (
{
closed = 1;
nodes = (
(499,0,l),
(399,0,l),
(399,282,ls),
(399,382,o),
(342,415,o),
(288,415,cs),
(235,415,o),
(164,383,o),
(164,282,cs),
(164,0,l),
(64,0,l),
(64,492,l),
(166,428,l),
(202,472,o),
(254,503,o),
(323,503,cs),
(438,503,o),
(499,428,o),
(499,312,cs)
);
}
);
width = 558;
},
{
anchors = (
{
name = bottom;
pos = (271,0);
},
{
name = top;
pos = (271,536);
}
);
layerId = "F1A19D98-9E48-4F05-B6A0-CD51606DBCB8";
shapes = (
{
closed = 1;
nodes = (
(481,0,l),
(399,0,l),
(399,280,ls),
(399,388,o),
(338,421,o),
(281,421,cs),
(226,421,o),
(149,390,o),
(149,280,cs),
(149,0,l),
(67,0,l),
(67,482,l),
(151,421,l),
(187,464,o),
(238,493,o),
(307,493,cs),
(421,493,o),
(481,418,o),
(481,303,cs)
);
}
);
width = 542;
}
);
unicode = 110;
},
{
color = 1;
glyphname = o;
lastChange = "2024-01-25 16:32:07 +0000";
layers = (
{
anchors = (
{
name = bottom;
pos = (329,0);
},
{
name = center;
pos = (329,268);
},
{
name = ogonek;
pos = (391,0);
},
{
name = top;
pos = (329,536);
},
{
name = topright;
pos = (637,536);
}
);
layerId = "F6364453-91B0-4CE2-A857-F52B6F68B874";
shapes = (
{
closed = 1;
nodes = (
(155,-13,o),
(30,115,o),
(30,270,cs),
(30,425,o),
(157,553,o),
(330,553,cs),
(503,553,o),
(628,427,o),
(628,272,cs),
(628,108,o),
(491,-13,o),
(328,-13,cs)
);
},
{
closed = 1;
nodes = (
(259,392,o),
(215,337,o),
(215,272,cs),
(215,205,o),
(263,148,o),
(330,148,cs),
(399,148,o),
(443,205,o),
(443,270,cs),
(443,334,o),
(395,392,o),
(328,392,cs)
);
}
);
width = 657;
},
{
anchors = (
{
name = bottom;
pos = (299,0);
},
{
name = center;
pos = (299,268);
},
{
name = ogonek;
pos = (328,0);
},
{
name = top;
pos = (299,536);
},
{
name = topright;
pos = (578,536);
}
);
layerId = "8AF3DB8E-7EC5-4D7D-A87A-6DF3FCB8CADF";
shapes = (
{
closed = 1;
nodes = (
(145,-11,o),
(34,102,o),
(34,245,cs),
(34,389,o),
(145,504,o),
(298,504,cs),
(451,504,o),
(564,390,o),
(564,247,cs),
(564,100,o),
(445,-11,o),
(297,-11,cs)
);
},
{
closed = 1;
nodes = (
(198,420,o),
(134,343,o),
(134,247,cs),
(134,149,o),
(205,74,o),
(298,74,cs),
(394,74,o),
(464,154,o),
(464,246,cs),
(464,340,o),
(396,420,o),
(297,420,cs)
);
}
);
width = 598;
},
{
anchors = (
{
name = bottom;
pos = (293,0);
},
{
name = center;
pos = (293,268);
},
{
name = ogonek;
pos = (327,0);
},
{
name = top;
pos = (293,536);
},
{
name = topright;
pos = (566,536);
}
);
layerId = "F1A19D98-9E48-4F05-B6A0-CD51606DBCB8";
shapes = (
{
closed = 1;
nodes = (
(143,-10,o),
(35,99,o),
(35,240,cs),
(35,382,o),
(143,494,o),
(292,494,cs),
(441,494,o),
(551,383,o),
(551,242,cs),
(551,98,o),
(437,-10,o),
(291,-10,cs)
);
},
{
closed = 1;
nodes = (
(187,425,o),
(118,343,o),
(118,242,cs),
(118,138,o),
(193,59,o),
(292,59,cs),
(394,59,o),
(468,142,o),
(468,241,cs),
(468,341,o),
(396,425,o),
(291,425,cs)
);
}
);
width = 586;
}
);
unicode = 111;
},
{
color = 1;
glyphname = p;
lastChange = "2024-01-25 16:56:18 +0000";
layers = (
{
anchors = (
{
name = bottom;
pos = (338,0);
},
{
name = top;
pos = (338,536);
}
);
layerId = "F6364453-91B0-4CE2-A857-F52B6F68B874";
shapes = (
{
closed = 1;
nodes = (
(52,-160,l),
(52,541,l),
(242,469,l),
(279,514,o),
(325,553,o),
(406,553,cs),
(534,553,o),
(646,446,o),
(646,271,cs),
(646,95,o),
(535,-12,o),
(407,-12,cs),
(324,-12,o),
(277,25,o),
(242,66,c),
(242,-160,l)
);
},
{
closed = 1;
nodes = (
(287,394,o),
(239,343,o),
(239,270,cs),
(239,198,o),
(287,147,o),
(348,147,cs),
(410,147,o),
(459,197,o),
(459,272,cs),
(459,336,o),
(417,394,o),
(348,394,cs)
);
}
);
width = 675;
},
{
anchors = (
{
name = bottom;
pos = (309,0);
},
{
name = top;
pos = (309,536);
}
);
layerId = "8AF3DB8E-7EC5-4D7D-A87A-6DF3FCB8CADF";
shapes = (
{
closed = 1;
nodes = (
(65,-183,l),
(65,492,l),
(174,417,l),
(217,468,o),
(267,504,o),
(347,504,cs),
(476,504,o),
(585,403,o),
(585,247,cs),
(585,91,o),
(472,-10,o),
(347,-10,cs),
(267,-10,o),
(208,24,o),
(165,81,c),
(165,-183,l)
);
},
{
closed = 1;
nodes = (
(236,417,o),
(162,346,o),
(162,246,cs),
(162,147,o),
(239,74,o),
(326,74,cs),
(415,74,o),
(486,143,o),
(486,247,cs),
(486,341,o),
(423,417,o),
(324,417,cs)
);
}
);
width = 618;
},
{
anchors = (
{
name = bottom;
pos = (304,0);
},
{
name = top;
pos = (304,536);
}
);
layerId = "F1A19D98-9E48-4F05-B6A0-CD51606DBCB8";
shapes = (
{
closed = 1;
nodes = (
(68,-188,l),
(68,482,l),
(160,406,l),
(205,458,o),
(255,494,o),
(335,494,cs),
(464,494,o),
(573,394,o),
(573,242,cs),
(573,90,o),
(460,-10,o),
(335,-10,cs),
(255,-10,o),
(194,24,o),
(150,84,c),
(150,-188,l)
);
},
{
closed = 1;
nodes = (
(226,422,o),
(146,346,o),
(146,241,cs),
(146,138,o),
(229,59,o),
(322,59,cs),
(416,59,o),
(491,131,o),
(491,242,cs),
(491,342,o),
(424,422,o),
(319,422,cs)
);
}
);
width = 607;
}
);
unicode = 112;
},
{
color = 3;
glyphname = q;
lastChange = "2024-01-25 16:56:16 +0000";
layers = (
{
anchors = (
{
name = bottom;
pos = (338,0);
},
{
name = top;
pos = (338,536);
}
);
layerId = "F6364453-91B0-4CE2-A857-F52B6F68B874";
shapes = (
{
closed = 1;
nodes = (
(433,72,l),
(396,27,o),
(349,-12,o),
(269,-12,cs),
(141,-12,o),
(29,97,o),
(29,270,cs),
(29,446,o),
(140,553,o),
(268,553,cs),
(349,553,o),
(397,516,o),
(433,475,c),
(623,541,l),
(623,-160,l),
(433,-160,l)
);
},
{
closed = 1;
nodes = (
(387,147,o),
(436,200,o),
(436,272,cs),
(436,343,o),
(387,394,o),
(326,394,cs),
(267,394,o),
(216,344,o),
(216,272,cs),
(216,210,o),
(259,147,o),
(326,147,cs)
);
}
);
width = 675;
},
{
anchors = (
{
name = bottom;
pos = (309,0);
},
{
name = top;
pos = (309,536);
}
);
layerId = "8AF3DB8E-7EC5-4D7D-A87A-6DF3FCB8CADF";
shapes = (
{
closed = 1;
nodes = (
(452,85,l),
(409,28,o),
(352,-11,o),
(273,-11,cs),
(141,-11,o),
(34,94,o),
(34,246,cs),
(34,403,o),
(142,504,o),
(273,504,cs),
(353,504,o),
(401,469,o),
(444,421,c),
(552,492,l),
(552,-183,l),
(452,-183,l)
);
},
{
closed = 1;
nodes = (
(382,74,o),
(457,148,o),
(457,247,cs),
(457,346,o),
(382,419,o),
(294,419,cs),
(202,419,o),
(134,349,o),
(134,248,cs),
(134,157,o),
(197,74,o),
(294,74,cs)
);
}
);
width = 618;
},
{
anchors = (
{
name = bottom;
pos = (303,0);
},
{
name = top;
pos = (303,536);
}
);
layerId = "F1A19D98-9E48-4F05-B6A0-CD51606DBCB8";
shapes = (
{
closed = 1;
nodes = (
(456,87,l),
(411,27,o),
(353,-11,o),
(274,-11,cs),
(141,-11,o),
(35,93,o),
(35,241,cs),
(35,394,o),
(142,494,o),
(274,494,cs),
(354,494,o),
(402,459,o),
(446,410,c),
(538,482,l),
(538,-188,l),
(456,-188,l)
);
},
{
closed = 1;
nodes = (
(380,59,o),
(461,138,o),
(461,242,cs),
(461,347,o),
(381,424,o),
(288,424,cs),
(190,424,o),
(118,351,o),
(118,243,cs),
(118,147,o),
(183,59,o),
(287,59,cs)
);
}
);
width = 606;
}
);
unicode = 113;
},
{
color = 1;
glyphname = r;
lastChange = "2024-01-25 16:33:28 +0000";
layers = (
{
anchors = (
{
name = bottom;
pos = (209,0);
},
{
name = top;
pos = (209,536);
}
);
layerId = "F6364453-91B0-4CE2-A857-F52B6F68B874";
shapes = (
{
closed = 1;
nodes = (
(412,350,l),
(409,350,o),
(403,350,o),
(396,350,cs),
(297,350,o),
(241,292,o),
(241,168,cs),
(241,0,l),
(51,0,l),
(51,541,l),
(241,432,l),
(272,504,o),
(318,550,o),
(403,550,cs),
(406,550,o),
(409,550,o),
(412,550,c)
);
}
);
width = 417;
},
{
anchors = (
{
name = bottom;
pos = (178,0);
},
{
name = top;
pos = (178,536);
}
);
layerId = "8AF3DB8E-7EC5-4D7D-A87A-6DF3FCB8CADF";
shapes = (
{
closed = 1;
nodes = (
(353,400,l),
(342,407,o),
(329,408,o),
(314,408,cs),
(244,408,o),
(164,364,o),
(164,254,cs),
(164,0,l),
(64,0,l),
(64,492,l),
(166,429,l),
(202,476,o),
(259,501,o),
(316,501,cs),
(331,501,o),
(342,500,o),
(353,497,c)
);
}
);
width = 355;
},
{
anchors = (
{
name = bottom;
pos = (172,0);
},
{
name = top;
pos = (172,536);
}
);
layerId = "F1A19D98-9E48-4F05-B6A0-CD51606DBCB8";
shapes = (
{
closed = 1;
nodes = (
(341,410,l),
(328,417,o),
(314,419,o),
(297,419,cs),
(233,419,o),
(149,378,o),
(149,271,cs),
(149,0,l),
(67,0,l),
(67,482,l),
(151,428,l),
(188,469,o),
(247,491,o),
(299,491,cs),
(315,491,o),
(328,489,o),
(341,486,c)
);
}
);
width = 343;
}
);
unicode = 114;
},
{
color = 1;
glyphname = s;
lastChange = "2024-01-25 16:33:49 +0000";
layers = (
{
anchors = (
{
name = bottom;
pos = (250,0);
},
{
name = top;
pos = (250,536);
}
);
layerId = "F6364453-91B0-4CE2-A857-F52B6F68B874";
shapes = (
{
closed = 1;
nodes = (
(297,213,o),
(18,180,o),
(18,373,cs),
(18,487,o),
(111,552,o),
(236,552,cs),
(311,552,o),
(354,540,o),
(423,513,c),
(423,360,l),
(368,391,o),
(279,419,o),
(234,419,cs),
(205,419,o),
(190,408,o),
(190,391,cs),
(190,321,o),
(469,351,o),
(469,164,cs),
(469,53,o),
(380,-12,o),
(248,-12,cs),
(172,-12,o),
(109,7,o),
(33,38,c),
(33,193,l),
(95,152,o),
(180,121,o),
(236,121,cs),
(255,121,o),
(297,127,o),
(297,152,cs)
);
}
);
width = 500;
},
{
anchors = (
{
name = bottom;
pos = (200,0);
},
{
name = top;
pos = (200,536);
}
);
layerId = "8AF3DB8E-7EC5-4D7D-A87A-6DF3FCB8CADF";
shapes = (
{
closed = 1;
nodes = (
(275,242,o),
(30,220,o),
(30,376,cs),
(30,453,o),
(91,503,o),
(191,503,cs),
(242,503,o),
(291,491,o),
(332,463,c),
(332,363,l),
(289,395,o),
(243,424,o),
(192,424,cs),
(148,424,o),
(124,401,o),
(124,376,cs),
(124,292,o),
(369,298,o),
(369,138,cs),
(369,55,o),
(302,-10,o),
(194,-10,cs),
(118,-10,o),
(66,17,o),
(21,45,c),
(21,144,l),
(66,104,o),
(129,69,o),
(190,69,cs),
(233,69,o),
(275,86,o),
(275,135,cs)
);
}
);
width = 400;
},
{
anchors = (
{
name = bottom;
pos = (190,0);
},
{
name = top;
pos = (190,536);
}
);
layerId = "F1A19D98-9E48-4F05-B6A0-CD51606DBCB8";
shapes = (
{
closed = 1;
nodes = (
(270,249,o),
(32,227,o),
(32,376,cs),
(32,447,o),
(88,493,o),
(182,493,cs),
(227,493,o),
(277,482,o),
(314,453,c),
(314,363,l),
(275,397,o),
(234,425,o),
(184,425,cs),
(136,425,o),
(111,400,o),
(111,373,cs),
(111,286,o),
(349,288,o),
(349,133,cs),
(349,56,o),
(286,-10,o),
(183,-10,cs),
(107,-10,o),
(58,19,o),
(19,46,c),
(19,134,l),
(61,95,o),
(118,58,o),
(181,58,cs),
(228,58,o),
(270,79,o),
(270,131,cs)
);
}
);
width = 380;
}
);
unicode = 115;
},
{
color = 1;
glyphname = t;
lastChange = "2024-01-25 22:30:45 +0000";
layers = (
{
anchors = (
{
name = bottom;
pos = (251,0);
},
{
name = center;
pos = (221,268);
},
{
name = top;
pos = (221,536);
},
{
name = topright;
pos = (421,660);
}
);
layerId = "F6364453-91B0-4CE2-A857-F52B6F68B874";
shapes = (
{
closed = 1;
nodes = (
(10,388,l),
(304,708,l),
(304,541,l),
(430,541,l),
(430,388,l),
(304,388,l),
(304,205,ls),
(304,166,o),
(321,151,o),
(356,151,cs),
(381,151,o),
(403,158,o),
(428,169,c),
(428,20,l),
(393,1,o),
(349,-11,o),
(296,-11,cs),
(187,-11,o),
(114,38,o),
(114,168,cs),
(114,388,l)
);
}
);
width = 441;
},
{
anchors = (
{
name = bottom;
pos = (211,0);
},
{
name = center;
pos = (177,268);
},
{
name = top;
pos = (177,536);
},
{
name = topright;
pos = (339,631);
}
);
layerId = "8AF3DB8E-7EC5-4D7D-A87A-6DF3FCB8CADF";
shapes = (
{
closed = 1;
nodes = (
(14,408,l),
(212,659,l),
(212,492,l),
(339,492,l),
(339,408,l),
(212,408,l),
(212,128,ls),
(212,99,o),
(224,74,o),
(257,74,cs),
(270,74,o),
(285,77,o),
(301,85,c),
(301,3,l),
(282,-8,o),
(263,-11,o),
(239,-11,cs),
(156,-11,o),
(113,51,o),
(113,128,cs),
(113,408,l)
);
}
);
width = 353;
},
{
anchors = (
{
name = bottom;
pos = (208,0);
},
{
name = center;
pos = (168,268);
},
{
name = top;
pos = (168,536);
},
{
name = topright;
pos = (321,624);
}
);
layerId = "F1A19D98-9E48-4F05-B6A0-CD51606DBCB8";
shapes = (
{
closed = 1;
nodes = (
(15,412,l),
(193,649,l),
(193,482,l),
(321,482,l),
(321,412,l),
(193,412,l),
(193,112,ls),
(193,85,o),
(205,59,o),
(237,59,cs),
(248,59,o),
(261,61,o),
(276,68,c),
(276,-1,l),
(261,-8,o),
(246,-11,o),
(227,-11,cs),
(149,-11,o),
(113,50,o),
(113,120,cs),
(113,412,l)
);
}
);
width = 335;
}
);
unicode = 116;
},
{
color = 1;
glyphname = u;
lastChange = "2024-01-25 16:36:43 +0000";
layers = (
{
anchors = (
{
name = bottom;
pos = (316,0);
},
{
name = ogonek;
pos = (584,-12);
},
{
name = top;
pos = (316,536);
},
{
name = topright;
pos = (611,536);
}
);
layerId = "F6364453-91B0-4CE2-A857-F52B6F68B874";
shapes = (
{
closed = 1;
nodes = (
(48,541,l),
(238,541,l),
(238,248,ls),
(238,189,o),
(269,157,o),
(315,157,cs),
(360,157,o),
(394,189,o),
(394,248,cs),
(394,541,l),
(584,541,l),
(584,-12,l),
(394,62,l),
(363,21,o),
(309,-12,o),
(232,-12,cs),
(109,-12,o),
(48,69,o),
(48,187,cs)
);
}
);
width = 631;
},
{
anchors = (
{
name = bottom;
pos = (276,0);
},
{
name = ogonek;
pos = (493,-2);
},
{
name = top;
pos = (276,536);
},
{
name = topright;
pos = (531,536);
}
);
layerId = "8AF3DB8E-7EC5-4D7D-A87A-6DF3FCB8CADF";
shapes = (
{
closed = 1;
nodes = (
(59,493,l),
(159,493,l),
(159,211,ls),
(159,111,o),
(215,78,o),
(270,78,cs),
(325,78,o),
(393,110,o),
(393,211,cs),
(393,493,l),
(493,493,l),
(493,-2,l),
(392,62,l),
(356,19,o),
(307,-10,o),
(235,-10,cs),
(115,-10,o),
(59,66,o),
(59,181,cs)
);
}
);
width = 551;
},
{
anchors = (
{
name = bottom;
pos = (268,0);
},
{
name = ogonek;
pos = (475,0);
},
{
name = top;
pos = (268,536);
},
{
name = topright;
pos = (515,536);
}
);
layerId = "F1A19D98-9E48-4F05-B6A0-CD51606DBCB8";
shapes = (
{
closed = 1;
nodes = (
(61,483,l),
(143,483,l),
(143,203,ls),
(143,95,o),
(204,62,o),
(261,62,cs),
(318,62,o),
(393,93,o),
(393,203,cs),
(393,483,l),
(475,483,l),
(475,0,l),
(391,62,l),
(355,19,o),
(307,-10,o),
(235,-10,cs),
(115,-10,o),
(61,66,o),
(61,180,cs)
);
}
);
width = 535;
}
);
unicode = 117;
},
{
color = 3;
glyphname = v;
lastChange = "2024-01-25 16:54:20 +0000";
layers = (
{
anchors = (
{
name = bottom;
pos = (298,0);
},
{
name = top;
pos = (298,536);
}
);
layerId = "F6364453-91B0-4CE2-A857-F52B6F68B874";
shapes = (
{
closed = 1;
nodes = (
(210,-4,l),
(-6,541,l),
(194,541,l),
(298,225,l),
(402,541,l),
(599,541,l),
(383,-4,l)
);
}
);
width = 595;
},
{
anchors = (
{
name = bottom;
pos = (249,0);
},
{
name = top;
pos = (249,536);
}
);
layerId = "8AF3DB8E-7EC5-4D7D-A87A-6DF3FCB8CADF";
shapes = (
{
closed = 1;
nodes = (
(200,-1,l),
(-4,491,l),
(104,491,l),
(250,113,l),
(396,491,l),
(501,491,l),
(296,-1,l)
);
}
);
width = 497;
},
{
anchors = (
{
name = bottom;
pos = (239,0);
},
{
name = top;
pos = (239,536);
}
);
layerId = "F1A19D98-9E48-4F05-B6A0-CD51606DBCB8";
shapes = (
{
closed = 1;
nodes = (
(198,0,l),
(-4,481,l),
(86,481,l),
(240,91,l),
(395,481,l),
(481,481,l),
(279,0,l)
);
}
);
width = 477;
}
);
unicode = 118;
},
{
color = 1;
glyphname = w;
lastChange = "2024-01-25 16:36:11 +0000";
layers = (
{
anchors = (
{
name = bottom;
pos = (408,0);
},
{
name = top;
pos = (408,536);
}
);
layerId = "F6364453-91B0-4CE2-A857-F52B6F68B874";
shapes = (
{
closed = 1;
nodes = (
(246,269,l),
(329,543,l),
(486,543,l),
(570,267,l),
(643,541,l),
(826,541,l),
(659,-4,l),
(495,-4,l),
(407,277,l),
(317,-4,l),
(154,-4,l),
(-11,541,l),
(175,541,l)
);
}
);
width = 815;
},
{
anchors = (
{
name = bottom;
pos = (374,0);
},
{
name = top;
pos = (374,536);
}
);
layerId = "8AF3DB8E-7EC5-4D7D-A87A-6DF3FCB8CADF";
shapes = (
{
closed = 1;
nodes = (
(215,127,l),
(327,493,l),
(423,493,l),
(534,128,l),
(646,492,l),
(749,492,l),
(584,-1,l),
(489,-1,l),
(372,375,l),
(256,-1,l),
(164,-1,l),
(-1,492,l),
(101,492,l)
);
}
);
width = 748;
},
{
anchors = (
{
name = bottom;
pos = (367,0);
},
{
name = top;
pos = (367,536);
}
);
layerId = "F1A19D98-9E48-4F05-B6A0-CD51606DBCB8";
shapes = (
{
closed = 1;
nodes = (
(209,99,l),
(327,483,l),
(410,483,l),
(527,100,l),
(647,482,l),
(733,482,l),
(569,0,l),
(488,0,l),
(365,395,l),
(244,0,l),
(166,0,l),
(1,482,l),
(86,482,l)
);
}
);
width = 734;
}
);
unicode = 119;
},
{
color = 3;
glyphname = x;
lastChange = "2024-01-25 16:54:27 +0000";
layers = (
{
anchors = (
{
name = bottom;
pos = (288,0);
},
{
name = top;
pos = (288,536);
}
);
layerId = "F6364453-91B0-4CE2-A857-F52B6F68B874";
shapes = (
{
closed = 1;
nodes = (
(4,541,l),
(209,541,l),
(289,408,l),
(369,541,l),
(570,541,l),
(392,274,l),
(574,0,l),
(370,0,l),
(286,139,l),
(201,0,l),
(1,0,l),
(183,273,l)
);
}
);
width = 576;
},
{
anchors = (
{
name = bottom;
pos = (253,0);
},
{
name = top;
pos = (253,536);
}
);
layerId = "8AF3DB8E-7EC5-4D7D-A87A-6DF3FCB8CADF";
shapes = (
{
closed = 1;
nodes = (
(17,491,l),
(130,491,l),
(254,324,l),
(379,491,l),
(488,491,l),
(310,255,l),
(500,0,l),
(388,0,l),
(252,183,l),
(116,0,l),
(6,0,l),
(198,253,l)
);
}
);
width = 506;
},
{
anchors = (
{
name = bottom;
pos = (246,0);
},
{
name = top;
pos = (246,536);
}
);
layerId = "F1A19D98-9E48-4F05-B6A0-CD51606DBCB8";
shapes = (
{
closed = 1;
nodes = (
(20,481,l),
(114,481,l),
(247,307,l),
(381,481,l),
(471,481,l),
(293,251,l),
(485,0,l),
(392,0,l),
(245,192,l),
(99,0,l),
(7,0,l),
(201,249,l)
);
}
);
width = 492;
}
);
unicode = 120;
},
{
color = 1;
glyphname = y;
lastChange = "2024-01-25 16:37:23 +0000";
layers = (
{
anchors = (
{
name = bottom;
pos = (297,0);
},
{
name = top;
pos = (297,536);
}
);
layerId = "F6364453-91B0-4CE2-A857-F52B6F68B874";
shapes = (
{
closed = 1;
nodes = (
(193,541,l),
(301,195,l),
(403,541,l),
(598,541,l),
(334,-160,l),
(173,-160,l),
(222,-6,l),
(-6,541,l)
);
}
);
width = 593;
},
{
anchors = (
{
name = bottom;
pos = (250,0);
},
{
name = top;
pos = (250,536);
}
);
layerId = "8AF3DB8E-7EC5-4D7D-A87A-6DF3FCB8CADF";
shapes = (
{
closed = 1;
nodes = (
(103,491,l),
(259,114,l),
(400,491,l),
(504,491,l),
(237,-183,l),
(145,-183,l),
(215,-1,l),
(-4,491,l)
);
}
);
width = 500;
},
{
anchors = (
{
name = bottom;
pos = (241,0);
},
{
name = top;
pos = (241,536);
}
);
layerId = "F1A19D98-9E48-4F05-B6A0-CD51606DBCB8";
shapes = (
{
closed = 1;
nodes = (
(85,481,l),
(250,98,l),
(399,481,l),
(485,481,l),
(217,-188,l),
(139,-188,l),
(214,0,l),
(-4,481,l)
);
}
);
width = 481;
}
);
unicode = 121;
},
{
color = 1;
glyphname = z;
lastChange = "2024-01-25 16:35:47 +0000";
layers = (
{
anchors = (
{
name = bottom;
pos = (268,0);
},
{
name = center;
pos = (268,268);
},
{
name = top;
pos = (268,536);
}
);
layerId = "F6364453-91B0-4CE2-A857-F52B6F68B874";
shapes = (
{
closed = 1;
nodes = (
(517,151,l),
(517,0,l),
(15,0,l),
(15,125,l),
(265,390,l),
(24,390,l),
(24,541,l),
(517,541,l),
(517,416,l),
(266,151,l)
);
}
);
width = 536;
},
{
anchors = (
{
name = bottom;
pos = (255,0);
},
{
name = center;
pos = (255,268);
},
{
name = top;
pos = (255,536);
}
);
layerId = "8AF3DB8E-7EC5-4D7D-A87A-6DF3FCB8CADF";
shapes = (
{
closed = 1;
nodes = (
(480,84,l),
(480,0,l),
(13,0,l),
(13,78,l),
(362,410,l),
(32,410,l),
(32,492,l),
(485,492,l),
(485,414,l),
(136,84,l)
);
}
);
width = 509;
},
{
anchors = (
{
name = bottom;
pos = (252,0);
},
{
name = center;
pos = (252,268);
},
{
name = top;
pos = (252,536);
}
);
layerId = "F1A19D98-9E48-4F05-B6A0-CD51606DBCB8";
shapes = (
{
closed = 1;
nodes = (
(473,70,l),
(473,0,l),
(12,0,l),
(12,69,l),
(381,414,l),
(33,414,l),
(33,482,l),
(479,482,l),
(479,414,l),
(110,70,l)
);
}
);
width = 504;
}
);
unicode = 122;
},
{
glyphname = braceleft;
lastChange = "2024-01-25 14:19:30 +0000";
layers = (
{
layerId = "F6364453-91B0-4CE2-A857-F52B6F68B874";
shapes = (
{
closed = 1;
nodes = (
(35,350,l),
(199,350,o),
(166,416,o),
(166,533,cs),
(166,677,o),
(318,699,o),
(430,715,c),
(430,598,l),
(370,587,o),
(335,567,o),
(335,500,cs),
(335,397,o),
(358,324,o),
(226,287,c),
(293,268,o),
(341,229,o),
(338,153,cs),
(335,66,o),
(315,-5,o),
(430,-24,c),
(430,-141,l),
(225,-114,o),
(161,-81,o),
(169,126,c),
(174,217,o),
(107,224,o),
(35,224,c)
);
}
);
width = 464;
},
{
layerId = "8AF3DB8E-7EC5-4D7D-A87A-6DF3FCB8CADF";
shapes = (
{
closed = 1;
nodes = (
(41,329,l),
(128,329,o),
(154,365,o),
(154,448,cs),
(154,624,o),
(152,719,o),
(364,730,c),
(374,662,l),
(300,646,o),
(250,632,o),
(250,546,cs),
(250,434,o),
(275,343,o),
(154,289,c),
(264,238,o),
(251,152,o),
(251,45,cs),
(251,-45,o),
(290,-69,o),
(374,-85,c),
(364,-153,l),
(196,-142,o),
(152,-103,o),
(152,64,cs),
(152,157,o),
(167,247,o),
(41,247,c)
);
}
);
width = 415;
},
{
layerId = "F1A19D98-9E48-4F05-B6A0-CD51606DBCB8";
shapes = (
{
closed = 1;
nodes = (
(42,325,l),
(114,325,o),
(151,356,o),
(151,431,cs),
(151,615,o),
(119,722,o),
(351,733,c),
(363,675,l),
(286,659,o),
(233,645,o),
(233,555,cs),
(233,441,o),
(258,345,o),
(139,289,c),
(258,233,o),
(233,137,o),
(233,23,cs),
(233,-67,o),
(286,-81,o),
(363,-97,c),
(351,-155,l),
(191,-147,o),
(149,-106,o),
(149,51,cs),
(149,145,o),
(178,252,o),
(42,252,c)
);
}
);
width = 405;
}
);
unicode = 123;
},
{
glyphname = bar;
lastChange = "2024-01-25 14:19:30 +0000";
layers = (
{
layerId = "F6364453-91B0-4CE2-A857-F52B6F68B874";
shapes = (
{
closed = 1;
nodes = (
(415,-128,l),
(270,-128,l),
(270,798,l),
(415,798,l)
);
}
);
width = 685;
},
{
layerId = "8AF3DB8E-7EC5-4D7D-A87A-6DF3FCB8CADF";
shapes = (
{
closed = 1;
nodes = (
(338,-161,l),
(253,-161,l),
(253,772,l),
(338,772,l)
);
}
);
width = 589;
},
{
layerId = "F1A19D98-9E48-4F05-B6A0-CD51606DBCB8";
shapes = (
{
closed = 1;
nodes = (
(322,-168,l),
(249,-168,l),
(249,767,l),
(322,767,l)
);
}
);
width = 570;
}
);
unicode = 124;
},
{
glyphname = braceright;
lastChange = "2024-01-25 14:19:30 +0000";
layers = (
{
layerId = "F6364453-91B0-4CE2-A857-F52B6F68B874";
shapes = (
{
closed = 1;
nodes = (
(430,224,l),
(273,224,o),
(299,166,o),
(299,52,cs),
(299,-100,o),
(158,-125,o),
(35,-141,c),
(35,-24,l),
(147,-5,o),
(132,65,o),
(127,153,c),
(124,227,o),
(172,268,o),
(239,287,c),
(171,306,o),
(124,345,o),
(127,421,cs),
(130,509,o),
(151,579,o),
(35,598,c),
(35,715,l),
(147,699,o),
(299,677,o),
(299,533,cs),
(299,417,o),
(267,350,o),
(430,350,c)
);
}
);
width = 464;
},
{
layerId = "8AF3DB8E-7EC5-4D7D-A87A-6DF3FCB8CADF";
shapes = (
{
closed = 1;
nodes = (
(374,247,l),
(289,247,o),
(262,214,o),
(262,131,cs),
(262,-55,o),
(264,-142,o),
(51,-153,c),
(41,-85,l),
(125,-69,o),
(165,-45,o),
(165,45,cs),
(165,152,o),
(150,238,o),
(262,289,c),
(150,340,o),
(165,424,o),
(165,533,cs),
(165,622,o),
(125,646,o),
(41,662,c),
(51,730,l),
(204,722,o),
(263,684,o),
(263,528,cs),
(263,432,o),
(236,326,o),
(374,329,c)
);
}
);
width = 415;
},
{
layerId = "F1A19D98-9E48-4F05-B6A0-CD51606DBCB8";
shapes = (
{
closed = 1;
nodes = (
(363,252,l),
(291,252,o),
(254,222,o),
(254,147,cs),
(254,-46,o),
(286,-144,o),
(54,-155,c),
(42,-97,l),
(119,-81,o),
(172,-67,o),
(172,23,cs),
(172,137,o),
(147,233,o),
(266,289,c),
(147,345,o),
(172,441,o),
(172,555,cs),
(172,645,o),
(119,659,o),
(42,675,c),
(54,733,l),
(214,725,o),
(256,684,o),
(256,527,cs),
(256,435,o),
(230,322,o),
(363,325,c)
);
}
);
width = 405;
}
);
unicode = 125;
},
{
glyphname = asciitilde;
lastChange = "2024-01-25 14:19:30 +0000";
layers = (
{
layerId = "F6364453-91B0-4CE2-A857-F52B6F68B874";
shapes = (
{
closed = 1;
nodes = (
(455,357,l),
(434,258,o),
(389,227,o),
(336,227,cs),
(277,227,o),
(221,266,o),
(179,266,cs),
(152,266,o),
(142,251,o),
(129,220,c),
(41,260,l),
(64,360,o),
(100,394,o),
(161,394,cs),
(225,394,o),
(275,355,o),
(317,355,cs),
(344,355,o),
(355,370,o),
(368,401,c)
);
}
);
width = 497;
},
{
layerId = "8AF3DB8E-7EC5-4D7D-A87A-6DF3FCB8CADF";
shapes = (
{
closed = 1;
nodes = (
(467,349,l),
(442,276,o),
(404,234,o),
(349,234,cs),
(288,234,o),
(232,286,o),
(178,286,cs),
(145,286,o),
(126,265,o),
(107,228,c),
(51,254,l),
(79,331,o),
(114,369,o),
(174,369,cs),
(244,369,o),
(288,317,o),
(338,317,cs),
(369,317,o),
(394,338,o),
(411,374,c)
);
}
);
width = 519;
},
{
layerId = "F1A19D98-9E48-4F05-B6A0-CD51606DBCB8";
shapes = (
{
closed = 1;
nodes = (
(469,347,l),
(442,279,o),
(406,235,o),
(351,235,cs),
(290,235,o),
(234,290,o),
(178,290,cs),
(143,290,o),
(121,268,o),
(102,229,c),
(53,253,l),
(82,325,o),
(117,364,o),
(177,364,cs),
(247,364,o),
(291,309,o),
(342,309,cs),
(374,309,o),
(402,332,o),
(419,369,c)
);
}
);
width = 523;
}
);
unicode = 126;
},
{
glyphname = exclamdown;
lastChange = "2024-01-25 14:19:30 +0000";
layers = (
{
layerId = "F6364453-91B0-4CE2-A857-F52B6F68B874";
shapes = (
{
closed = 1;
nodes = (
(62,-94,l),
(120,293,l),
(220,293,l),
(278,-94,l),
(278,-179,l),
(62,-179,l)
);
},
{
closed = 1;
nodes = (
(111,341,o),
(63,373,o),
(63,437,cs),
(63,501,o),
(111,534,o),
(171,534,cs),
(231,534,o),
(278,501,o),
(278,437,cs),
(278,373,o),
(231,341,o),
(171,341,cs)
);
}
);
width = 341;
},
{
layerId = "8AF3DB8E-7EC5-4D7D-A87A-6DF3FCB8CADF";
shapes = (
{
closed = 1;
nodes = (
(95,-60,l),
(118,319,l),
(181,319,l),
(204,-60,l),
(208,-179,l),
(90,-179,l)
);
},
{
closed = 1;
nodes = (
(112,405,o),
(81,431,o),
(81,470,cs),
(81,511,o),
(112,535,o),
(149,535,cs),
(185,535,o),
(217,511,o),
(217,470,cs),
(217,432,o),
(186,405,o),
(149,405,cs)
);
}
);
width = 299;
},
{
layerId = "F1A19D98-9E48-4F05-B6A0-CD51606DBCB8";
shapes = (
{
closed = 1;
nodes = (
(102,-53,l),
(118,324,l),
(173,324,l),
(189,-53,l),
(194,-179,l),
(96,-179,l)
);
},
{
closed = 1;
nodes = (
(112,418,o),
(85,444,o),
(85,477,cs),
(85,513,o),
(112,535,o),
(145,535,cs),
(176,535,o),
(205,513,o),
(205,477,cs),
(205,444,o),
(178,418,o),
(145,418,cs)
);
}
);
width = 291;
}
);
unicode = 161;
},
{
glyphname = cent;
lastChange = "2024-01-25 14:19:30 +0000";
layers = (
{
layerId = "F6364453-91B0-4CE2-A857-F52B6F68B874";
shapes = (
{
closed = 1;
nodes = (
(298,491,l),
(237,482,o),
(197,428,o),
(197,355,cs),
(197,302,o),
(217,261,o),
(253,238,c)
);
},
{
closed = 1;
nodes = (
(464,438,l),
(441,466,o),
(416,482,o),
(393,487,c),
(345,221,l),
(398,221,o),
(441,247,o),
(468,278,c),
(468,112,l),
(429,89,o),
(384,78,o),
(331,75,c),
(317,-6,l),
(202,-6,l),
(219,92,l),
(108,129,o),
(32,233,o),
(32,355,cs),
(32,511,o),
(149,636,o),
(316,636,c),
(328,706,l),
(443,706,l),
(428,619,l),
(440,615,o),
(452,610,o),
(464,603,c)
);
}
);
width = 500;
},
{
layerId = "8AF3DB8E-7EC5-4D7D-A87A-6DF3FCB8CADF";
shapes = (
{
closed = 1;
nodes = (
(270,540,l),
(182,533,o),
(130,473,o),
(130,372,cs),
(130,289,o),
(166,239,o),
(230,207,c)
);
},
{
closed = 1;
nodes = (
(447,477,l),
(424,504,o),
(383,530,o),
(336,535,c),
(296,197,l),
(355,197,o),
(407,229,o),
(446,270,c),
(446,172,l),
(407,136,o),
(357,115,o),
(289,114,c),
(278,29,l),
(205,29,l),
(217,125,l),
(108,154,o),
(35,254,o),
(35,368,cs),
(35,515,o),
(132,618,o),
(279,626,c),
(288,705,l),
(360,705,l),
(351,619,l),
(383,612,o),
(415,598,o),
(447,574,c)
);
}
);
width = 490;
},
{
layerId = "F1A19D98-9E48-4F05-B6A0-CD51606DBCB8";
shapes = (
{
closed = 1;
nodes = (
(264,550,l),
(172,543,o),
(116,483,o),
(116,375,cs),
(116,287,o),
(157,234,o),
(225,201,c)
);
},
{
closed = 1;
nodes = (
(443,485,l),
(420,512,o),
(376,539,o),
(325,544,c),
(286,192,l),
(346,192,o),
(401,225,o),
(442,268,c),
(442,184,l),
(402,145,o),
(350,122,o),
(281,122,c),
(270,36,l),
(205,36,l),
(217,131,l),
(108,160,o),
(35,257,o),
(35,371,cs),
(35,514,o),
(130,616,o),
(271,624,c),
(280,705,l),
(343,705,l),
(335,619,l),
(371,612,o),
(408,595,o),
(443,568,c)
);
}
);
width = 488;
}
);
unicode = 162;
},
{
glyphname = sterling;
lastChange = "2024-01-25 14:19:30 +0000";
layers = (
{
layerId = "F6364453-91B0-4CE2-A857-F52B6F68B874";
shapes = (
{
closed = 1;
nodes = (
(293,263,l),
(293,153,l),
(586,153,l),
(586,0,l),
(100,0,l),
(100,263,l),
(25,263,l),
(25,399,l),
(100,399,l),
(100,450,ls),
(100,610,o),
(195,712,o),
(360,712,cs),
(469,712,o),
(541,671,o),
(593,611,c),
(464,494,l),
(433,526,o),
(405,539,o),
(373,539,cs),
(323,539,o),
(293,506,o),
(293,450,cs),
(293,399,l),
(509,399,l),
(509,263,l)
);
}
);
width = 598;
},
{
layerId = "8AF3DB8E-7EC5-4D7D-A87A-6DF3FCB8CADF";
shapes = (
{
closed = 1;
nodes = (
(201,298,l),
(201,86,l),
(524,86,l),
(524,0,l),
(97,0,l),
(97,298,l),
(29,298,l),
(29,377,l),
(97,377,l),
(97,472,ls),
(97,614,o),
(180,716,o),
(328,716,cs),
(420,716,o),
(484,679,o),
(532,619,c),
(464,554,l),
(429,597,o),
(393,623,o),
(328,623,cs),
(237,623,o),
(201,554,o),
(201,471,cs),
(201,377,l),
(445,377,l),
(445,298,l)
);
}
);
width = 552;
},
{
layerId = "F1A19D98-9E48-4F05-B6A0-CD51606DBCB8";
shapes = (
{
closed = 1;
nodes = (
(182,292,l),
(182,73,l),
(512,73,l),
(512,0,l),
(96,0,l),
(96,305,l),
(30,305,l),
(30,373,l),
(96,373,l),
(96,476,ls),
(96,615,o),
(177,717,o),
(321,717,cs),
(409,717,o),
(473,680,o),
(520,620,c),
(464,566,l),
(428,611,o),
(391,640,o),
(319,640,cs),
(220,640,o),
(182,563,o),
(182,475,cs),
(182,373,l),
(426,373,l),
(432,305,l)
);
}
);
width = 543;
}
);
unicode = 163;
},
{
glyphname = currency;
lastChange = "2024-01-25 14:19:30 +0000";
layers = (
{
layerId = "F6364453-91B0-4CE2-A857-F52B6F68B874";
shapes = (
{
closed = 1;
nodes = (
(583,470,l),
(610,427,o),
(624,385,o),
(624,329,cs),
(624,273,o),
(610,228,o),
(582,185,c),
(673,94,l),
(594,15,l),
(500,108,l),
(459,84,o),
(413,69,o),
(361,69,cs),
(310,69,o),
(266,82,o),
(222,109,c),
(125,15,l),
(47,94,l),
(140,188,l),
(113,228,o),
(98,277,o),
(98,329,cs),
(98,377,o),
(109,426,o),
(138,469,c),
(47,560,l),
(125,639,l),
(219,549,l),
(263,576,o),
(305,589,o),
(361,589,cs),
(414,589,o),
(462,575,o),
(502,550,c),
(593,639,l),
(673,560,l)
);
},
{
closed = 1;
nodes = (
(223,249,o),
(278,184,o),
(361,184,cs),
(444,184,o),
(499,249,o),
(499,329,cs),
(499,409,o),
(444,474,o),
(361,474,cs),
(280,474,o),
(223,410,o),
(223,329,cs)
);
}
);
width = 719;
},
{
layerId = "8AF3DB8E-7EC5-4D7D-A87A-6DF3FCB8CADF";
shapes = (
{
closed = 1;
nodes = (
(558,481,l),
(589,433,o),
(607,388,o),
(607,328,cs),
(607,268,o),
(588,218,o),
(556,173,c),
(651,80,l),
(596,25,l),
(500,120,l),
(453,89,o),
(405,73,o),
(349,73,cs),
(293,73,o),
(246,89,o),
(199,121,c),
(101,25,l),
(47,80,l),
(143,176,l),
(110,219,o),
(94,265,o),
(94,328,cs),
(94,389,o),
(106,431,o),
(141,479,c),
(47,572,l),
(101,627,l),
(196,533,l),
(241,568,o),
(293,583,o),
(349,583,cs),
(408,583,o),
(458,566,o),
(501,534,c),
(595,627,l),
(651,572,l)
);
},
{
closed = 1;
nodes = (
(181,232,o),
(249,155,o),
(349,155,cs),
(449,155,o),
(517,232,o),
(517,327,cs),
(517,427,o),
(449,502,o),
(349,502,cs),
(251,502,o),
(181,427,o),
(181,328,cs)
);
}
);
width = 697;
},
{
layerId = "F1A19D98-9E48-4F05-B6A0-CD51606DBCB8";
shapes = (
{
closed = 1;
nodes = (
(553,483,l),
(585,434,o),
(603,389,o),
(603,328,cs),
(603,267,o),
(584,216,o),
(551,171,c),
(646,77,l),
(596,27,l),
(500,122,l),
(453,90,o),
(403,74,o),
(347,74,cs),
(291,74,o),
(241,90,o),
(194,123,c),
(96,27,l),
(47,77,l),
(144,174,l),
(109,217,o),
(93,264,o),
(93,328,cs),
(93,392,o),
(106,432,o),
(141,481,c),
(47,574,l),
(96,624,l),
(191,530,l),
(236,565,o),
(291,582,o),
(347,582,cs),
(407,582,o),
(458,564,o),
(501,531,c),
(595,624,l),
(646,574,l)
);
},
{
closed = 1;
nodes = (
(173,229,o),
(243,149,o),
(347,149,cs),
(450,149,o),
(520,228,o),
(520,327,cs),
(520,431,o),
(450,507,o),
(347,507,cs),
(246,507,o),
(173,430,o),
(173,328,cs)
);
}
);
width = 693;
}
);
unicode = 164;
},
{
glyphname = yen;
lastChange = "2024-01-25 14:19:30 +0000";
layers = (
{
layerId = "F6364453-91B0-4CE2-A857-F52B6F68B874";
shapes = (
{
closed = 1;
nodes = (
(237,263,l),
(63,263,l),
(63,383,l),
(201,383,l),
(-7,700,l),
(213,700,l),
(345,470,l),
(477,700,l),
(693,700,l),
(484,383,l),
(623,383,l),
(623,263,l),
(449,263,l),
(439,213,l),
(623,213,l),
(623,93,l),
(439,93,l),
(439,0,l),
(247,0,l),
(247,93,l),
(63,93,l),
(63,213,l),
(247,213,l)
);
}
);
width = 687;
},
{
layerId = "8AF3DB8E-7EC5-4D7D-A87A-6DF3FCB8CADF";
shapes = (
{
closed = 1;
nodes = (
(245,296,l),
(69,296,l),
(69,372,l),
(213,372,l),
(0,704,l),
(118,704,l),
(306,388,l),
(492,704,l),
(607,704,l),
(394,372,l),
(537,372,l),
(537,296,l),
(362,296,l),
(355,213,l),
(537,213,l),
(537,137,l),
(353,137,l),
(353,0,l),
(254,0,l),
(254,137,l),
(69,137,l),
(69,213,l),
(255,213,l)
);
}
);
width = 606;
},
{
layerId = "F1A19D98-9E48-4F05-B6A0-CD51606DBCB8";
shapes = (
{
closed = 1;
nodes = (
(246,303,l),
(70,303,l),
(70,370,l),
(215,370,l),
(1,705,l),
(99,705,l),
(298,372,l),
(495,705,l),
(590,705,l),
(376,370,l),
(520,370,l),
(520,303,l),
(344,303,l),
(338,213,l),
(520,213,l),
(520,146,l),
(336,146,l),
(336,0,l),
(255,0,l),
(255,146,l),
(70,146,l),
(70,213,l),
(256,213,l)
);
}
);
width = 590;
}
);
unicode = 165;
},
{
glyphname = brokenbar;
lastChange = "2024-01-25 14:19:30 +0000";
layers = (
{
layerId = "F6364453-91B0-4CE2-A857-F52B6F68B874";
shapes = (
{
closed = 1;
nodes = (
(437,321,l),
(270,321,l),
(270,667,l),
(437,667,l)
);
},
{
closed = 1;
nodes = (
(437,-173,l),
(270,-173,l),
(270,174,l),
(437,173,l)
);
}
);
width = 707;
},
{
layerId = "8AF3DB8E-7EC5-4D7D-A87A-6DF3FCB8CADF";
shapes = (
{
closed = 1;
nodes = (
(344,327,l),
(253,327,l),
(253,679,l),
(344,679,l)
);
},
{
closed = 1;
nodes = (
(344,-174,l),
(253,-174,l),
(253,173,l),
(344,173,l)
);
}
);
width = 595;
},
{
layerId = "F1A19D98-9E48-4F05-B6A0-CD51606DBCB8";
shapes = (
{
closed = 1;
nodes = (
(325,328,l),
(249,328,l),
(249,681,l),
(325,681,l)
);
},
{
closed = 1;
nodes = (
(325,-174,l),
(249,-174,l),
(249,173,l),
(325,173,l)
);
}
);
width = 573;
}
);
unicode = 166;
},
{
glyphname = section;
lastChange = "2024-01-25 14:19:30 +0000";
layers = (
{
layerId = "F6364453-91B0-4CE2-A857-F52B6F68B874";
shapes = (
{
closed = 1;
nodes = (
(455,525,l),
(404,561,o),
(347,584,o),
(291,584,cs),
(254,584,o),
(238,573,o),
(238,554,cs),
(238,536,o),
(263,522,o),
(334,506,cs),
(458,477,o),
(562,443,o),
(562,355,cs),
(562,304,o),
(524,268,o),
(471,249,c),
(500,226,o),
(518,190,o),
(518,149,cs),
(518,61,o),
(442,-13,o),
(288,-13,cs),
(228,-13,o),
(173,-1,o),
(128,18,c),
(128,175,l),
(179,139,o),
(238,116,o),
(291,116,cs),
(330,116,o),
(345,127,o),
(345,146,cs),
(345,165,o),
(317,180,o),
(249,194,cs),
(125,219,o),
(20,262,o),
(20,345,cs),
(20,394,o),
(56,432,o),
(112,451,c),
(81,474,o),
(64,511,o),
(64,552,cs),
(64,641,o),
(141,713,o),
(295,713,cs),
(356,713,o),
(408,702,o),
(455,681,c)
);
},
{
closed = 1;
nodes = (
(186,403,o),
(166,392,o),
(166,371,cs),
(166,320,o),
(316,297,o),
(365,297,cs),
(396,297,o),
(416,312,o),
(416,332,cs),
(416,376,o),
(249,403,o),
(217,403,cs)
);
}
);
width = 594;
},
{
layerId = "8AF3DB8E-7EC5-4D7D-A87A-6DF3FCB8CADF";
shapes = (
{
closed = 1;
nodes = (
(434,578,l),
(383,619,o),
(338,642,o),
(278,642,cs),
(218,642,o),
(180,621,o),
(180,578,cs),
(180,546,o),
(211,513,o),
(322,476,cs),
(472,427,o),
(515,383,o),
(515,317,cs),
(515,249,o),
(472,211,o),
(399,191,c),
(443,158,o),
(466,121,o),
(466,77,cs),
(466,-12,o),
(389,-74,o),
(274,-74,cs),
(205,-74,o),
(150,-53,o),
(106,-18,c),
(106,75,l),
(153,27,o),
(211,4,o),
(275,4,cs),
(335,4,o),
(369,27,o),
(369,74,cs),
(369,117,o),
(318,148,o),
(222,177,cs),
(86,217,o),
(33,267,o),
(33,336,cs),
(33,401,o),
(75,443,o),
(151,462,c),
(114,489,o),
(82,528,o),
(82,579,cs),
(82,663,o),
(161,721,o),
(273,721,cs),
(338,721,o),
(393,701,o),
(434,670,c)
);
},
{
closed = 1;
nodes = (
(158,414,o),
(121,392,o),
(121,349,cs),
(121,290,o),
(219,247,o),
(337,231,c),
(393,231,o),
(427,258,o),
(427,295,cs),
(427,369,o),
(269,411,o),
(214,421,c)
);
}
);
width = 562;
},
{
layerId = "F1A19D98-9E48-4F05-B6A0-CD51606DBCB8";
shapes = (
{
closed = 1;
nodes = (
(430,588,l),
(379,631,o),
(336,654,o),
(275,654,cs),
(211,654,o),
(168,631,o),
(168,583,cs),
(168,549,o),
(202,510,o),
(319,470,cs),
(476,417,o),
(506,373,o),
(506,309,cs),
(506,237,o),
(462,199,o),
(385,179,c),
(432,144,o),
(456,107,o),
(456,62,cs),
(456,-27,o),
(378,-86,o),
(271,-86,cs),
(199,-86,o),
(145,-62,o),
(102,-25,c),
(102,55,l),
(147,4,o),
(207,-18,o),
(272,-18,cs),
(336,-18,o),
(374,8,o),
(374,59,cs),
(374,106,o),
(317,142,o),
(217,173,cs),
(78,216,o),
(35,268,o),
(35,334,cs),
(35,402,o),
(78,445,o),
(159,464,c),
(120,491,o),
(86,531,o),
(86,584,cs),
(86,667,o),
(166,722,o),
(269,722,cs),
(334,722,o),
(390,701,o),
(430,668,c)
);
},
{
closed = 1;
nodes = (
(153,417,o),
(112,392,o),
(112,345,cs),
(112,284,o),
(200,237,o),
(331,218,c),
(391,218,o),
(429,247,o),
(429,287,cs),
(429,368,o),
(274,414,o),
(213,424,c)
);
}
);
width = 556;
}
);
unicode = 167;
},
{
glyphname = dieresis;
lastChange = "2024-01-25 14:19:30 +0000";
layers = (
{
layerId = "F6364453-91B0-4CE2-A857-F52B6F68B874";
shapes = (
{
closed = 1;
nodes = (
(133,800,o),
(172,771,o),
(172,715,cs),
(172,659,o),
(133,629,o),
(84,629,cs),
(35,629,o),
(-4,659,o),
(-4,715,cs),
(-4,768,o),
(32,800,o),
(84,800,cs)
);
},
{
closed = 1;
nodes = (
(359,800,o),
(398,771,o),
(398,715,cs),
(398,659,o),
(359,629,o),
(310,629,cs),
(261,629,o),
(222,659,o),
(222,715,cs),
(222,768,o),
(258,800,o),
(310,800,cs)
);
}
);
width = 394;
},
{
layerId = "8AF3DB8E-7EC5-4D7D-A87A-6DF3FCB8CADF";
shapes = (
{
closed = 1;
nodes = (
(123,753,o),
(153,726,o),
(153,690,cs),
(153,653,o),
(123,627,o),
(88,627,cs),
(51,627,o),
(24,653,o),
(24,690,cs),
(24,727,o),
(51,753,o),
(88,753,cs)
);
},
{
closed = 1;
nodes = (
(323,753,o),
(348,726,o),
(348,690,cs),
(348,653,o),
(323,627,o),
(284,627,cs),
(249,627,o),
(222,653,o),
(222,690,cs),
(222,725,o),
(248,753,o),
(284,753,cs)
);
}
);
width = 372;
},
{
layerId = "F1A19D98-9E48-4F05-B6A0-CD51606DBCB8";
shapes = (
{
closed = 1;
nodes = (
(121,744,o),
(149,717,o),
(149,685,cs),
(149,652,o),
(121,626,o),
(89,626,cs),
(54,626,o),
(30,651,o),
(30,686,cs),
(30,719,o),
(57,744,o),
(89,744,cs)
);
},
{
closed = 1;
nodes = (
(314,744,o),
(338,717,o),
(338,685,cs),
(338,652,o),
(314,626,o),
(279,626,cs),
(247,626,o),
(222,651,o),
(222,686,cs),
(222,718,o),
(246,744,o),
(279,744,cs)
);
}
);
width = 368;
}
);
unicode = 168;
},
{
glyphname = copyright;
lastChange = "2024-01-25 14:19:30 +0000";
layers = (
{
layerId = "F6364453-91B0-4CE2-A857-F52B6F68B874";
shapes = (
{
closed = 1;
nodes = (
(23,547,o),
(182,714,o),
(386,714,cs),
(589,714,o),
(747,549,o),
(747,353,cs),
(747,156,o),
(588,-14,o),
(384,-14,cs),
(185,-14,o),
(23,149,o),
(23,351,cs)
);
},
{
closed = 1;
nodes = (
(705,529,o),
(568,674,o),
(386,674,cs),
(203,674,o),
(65,527,o),
(65,351,cs),
(65,173,o),
(203,26,o),
(384,26,cs),
(564,26,o),
(705,171,o),
(705,353,cs)
);
},
{
closed = 1;
nodes = (
(497,178,l),
(473,167,o),
(440,155,o),
(399,155,cs),
(285,155,o),
(189,247,o),
(189,355,cs),
(189,462,o),
(284,554,o),
(405,554,cs),
(438,554,o),
(469,547,o),
(494,534,c),
(494,405,l),
(473,424,o),
(445,441,o),
(410,441,cs),
(359,441,o),
(320,403,o),
(320,355,cs),
(320,306,o),
(361,268,o),
(407,268,cs),
(446,268,o),
(476,285,o),
(497,304,c)
);
}
);
width = 769;
},
{
layerId = "8AF3DB8E-7EC5-4D7D-A87A-6DF3FCB8CADF";
shapes = (
{
closed = 1;
nodes = (
(35,570,o),
(209,747,o),
(420,747,cs),
(632,747,o),
(806,573,o),
(806,357,cs),
(806,141,o),
(635,-32,o),
(421,-32,cs),
(206,-32,o),
(35,142,o),
(35,360,cs)
);
},
{
closed = 1;
nodes = (
(745,537,o),
(601,682,o),
(421,682,cs),
(241,682,o),
(96,537,o),
(96,359,cs),
(96,179,o),
(241,32,o),
(421,32,cs),
(598,32,o),
(745,177,o),
(745,357,cs)
);
},
{
closed = 1;
nodes = (
(549,183,l),
(514,155,o),
(474,137,o),
(421,137,cs),
(297,137,o),
(207,236,o),
(207,364,cs),
(207,490,o),
(294,587,o),
(423,587,cs),
(479,587,o),
(523,566,o),
(550,547,c),
(550,458,l),
(519,489,o),
(474,509,o),
(429,509,cs),
(354,509,o),
(298,447,o),
(298,364,cs),
(298,281,o),
(350,216,o),
(431,216,cs),
(466,216,o),
(506,227,o),
(549,266,c)
);
}
);
width = 840;
},
{
layerId = "F1A19D98-9E48-4F05-B6A0-CD51606DBCB8";
shapes = (
{
closed = 1;
nodes = (
(37,575,o),
(214,753,o),
(427,753,cs),
(641,753,o),
(818,577,o),
(818,358,cs),
(818,138,o),
(644,-36,o),
(428,-36,cs),
(209,-36,o),
(37,140,o),
(37,362,cs)
);
},
{
closed = 1;
nodes = (
(753,538,o),
(607,684,o),
(428,684,cs),
(248,684,o),
(102,539,o),
(102,360,cs),
(102,180,o),
(247,33,o),
(428,33,cs),
(605,33,o),
(753,178,o),
(753,358,cs)
);
},
{
closed = 1;
nodes = (
(559,184,l),
(523,152,o),
(481,133,o),
(425,133,cs),
(298,133,o),
(211,234,o),
(211,366,cs),
(211,496,o),
(296,594,o),
(427,594,cs),
(487,594,o),
(534,570,o),
(561,549,c),
(561,468,l),
(528,501,o),
(480,522,o),
(433,522,cs),
(353,522,o),
(293,454,o),
(293,366,cs),
(293,276,o),
(348,205,o),
(436,205,cs),
(469,205,o),
(512,215,o),
(559,258,c)
);
}
);
width = 854;
}
);
unicode = 169;
},
{
glyphname = ordfeminine;
lastChange = "2024-01-25 14:19:30 +0000";
layers = (
{
layerId = "F6364453-91B0-4CE2-A857-F52B6F68B874";
shapes = (
{
closed = 1;
nodes = (
(26,570,o),
(71,599,o),
(143,599,cs),
(171,599,o),
(197,595,o),
(214,588,c),
(214,592,ls),
(214,623,o),
(195,641,o),
(154,641,cs),
(126,641,o),
(99,635,o),
(72,624,c),
(51,698,l),
(86,713,o),
(123,721,o),
(171,721,cs),
(275,721,o),
(317,677,o),
(317,589,cs),
(317,419,l),
(213,419,l),
(213,451,l),
(193,428,o),
(165,413,o),
(126,413,cs),
(70,413,o),
(26,445,o),
(26,506,cs)
);
},
{
closed = 1;
nodes = (
(322,363,l),
(322,286,l),
(23,286,l),
(23,363,l)
);
},
{
closed = 1;
nodes = (
(215,541,l),
(204,545,o),
(190,549,o),
(174,549,cs),
(145,549,o),
(127,534,o),
(127,513,cs),
(127,493,o),
(142,479,o),
(163,479,cs),
(192,479,o),
(215,499,o),
(215,528,cs)
);
}
);
width = 354;
},
{
layerId = "8AF3DB8E-7EC5-4D7D-A87A-6DF3FCB8CADF";
shapes = (
{
closed = 1;
nodes = (
(24,578,o),
(74,609,o),
(146,609,cs),
(178,609,o),
(199,603,o),
(224,596,c),
(224,603,ls),
(224,648,o),
(196,669,o),
(149,669,cs),
(118,669,o),
(92,662,o),
(65,647,c),
(49,696,l),
(80,711,o),
(116,722,o),
(156,722,cs),
(233,722,o),
(284,685,o),
(284,602,cs),
(284,429,l),
(224,429,l),
(224,469,l),
(201,441,o),
(168,423,o),
(129,423,cs),
(76,423,o),
(24,456,o),
(24,514,cs)
);
},
{
closed = 1;
nodes = (
(289,353,l),
(289,301,l),
(21,301,l),
(21,353,l)
);
},
{
closed = 1;
nodes = (
(224,555,l),
(205,563,o),
(183,569,o),
(155,569,cs),
(110,569,o),
(84,550,o),
(84,517,cs),
(84,485,o),
(109,469,o),
(144,469,cs),
(184,469,o),
(224,492,o),
(224,536,cs)
);
}
);
width = 326;
},
{
layerId = "F1A19D98-9E48-4F05-B6A0-CD51606DBCB8";
shapes = (
{
closed = 1;
nodes = (
(24,580,o),
(74,611,o),
(146,611,cs),
(179,611,o),
(199,605,o),
(226,597,c),
(226,605,ls),
(226,653,o),
(196,675,o),
(148,675,cs),
(117,675,o),
(89,667,o),
(64,652,c),
(48,696,l),
(77,711,o),
(114,722,o),
(153,722,cs),
(225,722,o),
(277,685,o),
(277,605,cs),
(277,431,l),
(226,431,l),
(226,473,l),
(203,444,o),
(169,425,o),
(129,425,cs),
(78,425,o),
(24,458,o),
(24,515,cs)
);
},
{
closed = 1;
nodes = (
(282,356,l),
(282,304,l),
(14,304,l),
(14,356,l)
);
},
{
closed = 1;
nodes = (
(226,558,l),
(206,567,o),
(182,573,o),
(151,573,cs),
(103,573,o),
(75,553,o),
(75,518,cs),
(75,483,o),
(104,467,o),
(140,467,cs),
(182,467,o),
(226,490,o),
(226,537,cs)
);
}
);
width = 320;
}
);
unicode = 170;
},
{
glyphname = logicalnot;
lastChange = "2024-01-25 14:19:30 +0000";
layers = (
{
layerId = "F6364453-91B0-4CE2-A857-F52B6F68B874";
shapes = (
{
closed = 1;
nodes = (
(460,125,l),
(460,277,l),
(79,277,l),
(79,416,l),
(607,416,l),
(607,125,l)
);
}
);
width = 686;
},
{
layerId = "8AF3DB8E-7EC5-4D7D-A87A-6DF3FCB8CADF";
shapes = (
{
closed = 1;
nodes = (
(479,128,l),
(479,330,l),
(47,330,l),
(47,412,l),
(561,412,l),
(561,128,l)
);
}
);
width = 607;
},
{
layerId = "F1A19D98-9E48-4F05-B6A0-CD51606DBCB8";
shapes = (
{
closed = 1;
nodes = (
(483,129,l),
(483,340,l),
(40,340,l),
(40,411,l),
(552,411,l),
(552,129,l)
);
}
);
width = 591;
}
);
unicode = 172;
},
{
glyphname = registered;
lastChange = "2024-01-25 14:19:30 +0000";
layers = (
{
layerId = "F6364453-91B0-4CE2-A857-F52B6F68B874";
shapes = (
{
closed = 1;
nodes = (
(585,719,o),
(743,554,o),
(743,355,cs),
(743,158,o),
(584,-9,o),
(380,-9,cs),
(177,-9,o),
(19,156,o),
(19,355,cs),
(19,553,o),
(180,719,o),
(382,719,cs)
);
},
{
closed = 1;
nodes = (
(563,31,o),
(701,178,o),
(701,357,cs),
(701,534,o),
(564,679,o),
(382,679,cs),
(199,679,o),
(61,532,o),
(61,353,cs),
(61,177,o),
(199,31,o),
(380,31,cs)
);
},
{
closed = 1;
nodes = (
(401,558,ls),
(510,558,o),
(564,502,o),
(564,425,cs),
(564,369,o),
(533,328,o),
(485,307,c),
(577,173,l),
(454,173,l),
(376,290,l),
(329,290,l),
(329,173,l),
(222,173,l),
(222,558,l)
);
},
{
closed = 1;
nodes = (
(399,373,ls),
(435,373,o),
(457,393,o),
(457,420,cs),
(457,447,o),
(434,466,o),
(398,466,cs),
(329,466,l),
(329,373,l)
);
}
);
width = 762;
},
{
layerId = "8AF3DB8E-7EC5-4D7D-A87A-6DF3FCB8CADF";
shapes = (
{
closed = 1;
nodes = (
(581,713,o),
(742,553,o),
(742,357,cs),
(742,161,o),
(577,-2,o),
(383,-2,cs),
(183,-2,o),
(21,160,o),
(21,357,cs),
(21,555,o),
(185,713,o),
(385,713,cs)
);
},
{
closed = 1;
nodes = (
(551,55,o),
(682,194,o),
(682,358,cs),
(682,522,o),
(548,656,o),
(385,656,cs),
(214,656,o),
(81,523,o),
(81,356,cs),
(81,190,o),
(214,55,o),
(383,55,cs)
);
},
{
closed = 1;
nodes = (
(395,568,ls),
(470,568,o),
(527,521,o),
(527,449,cs),
(527,385,o),
(480,341,o),
(424,328,c),
(565,148,l),
(475,148,l),
(344,318,l),
(325,318,l),
(325,148,l),
(248,148,l),
(248,568,l)
);
},
{
closed = 1;
nodes = (
(382,386,ls),
(423,386,o),
(455,408,o),
(455,443,cs),
(455,474,o),
(432,502,o),
(383,502,cs),
(325,502,l),
(325,386,l)
);
}
);
width = 762;
},
{
layerId = "F1A19D98-9E48-4F05-B6A0-CD51606DBCB8";
shapes = (
{
closed = 1;
nodes = (
(580,712,o),
(742,552,o),
(742,357,cs),
(742,162,o),
(576,-1,o),
(383,-1,cs),
(183,-1,o),
(21,161,o),
(21,357,cs),
(21,556,o),
(185,712,o),
(386,712,cs)
);
},
{
closed = 1;
nodes = (
(547,60,o),
(678,197,o),
(678,358,cs),
(678,519,o),
(544,651,o),
(385,651,cs),
(218,651,o),
(85,521,o),
(85,357,cs),
(85,194,o),
(216,60,o),
(383,60,cs)
);
},
{
closed = 1;
nodes = (
(394,570,ls),
(462,570,o),
(519,526,o),
(519,454,cs),
(519,390,o),
(469,343,o),
(412,332,c),
(563,143,l),
(479,143,l),
(337,324,l),
(324,324,l),
(324,143,l),
(253,143,l),
(253,570,l)
);
},
{
closed = 1;
nodes = (
(378,389,ls),
(421,389,o),
(455,411,o),
(455,448,cs),
(455,479,o),
(431,509,o),
(380,509,cs),
(324,509,l),
(324,389,l)
);
}
);
width = 762;
}
);
unicode = 174;
},
{
glyphname = degree;
lastChange = "2024-01-25 14:19:30 +0000";
layers = (
{
layerId = "F6364453-91B0-4CE2-A857-F52B6F68B874";
shapes = (
{
closed = 1;
nodes = (
(114,393,o),
(31,474,o),
(31,571,cs),
(31,668,o),
(117,748,o),
(213,748,cs),
(309,748,o),
(395,668,o),
(395,571,cs),
(395,474,o),
(311,393,o),
(213,393,cs)
);
},
{
closed = 1;
nodes = (
(166,656,o),
(129,619,o),
(129,571,cs),
(129,524,o),
(165,485,o),
(213,485,cs),
(261,485,o),
(297,524,o),
(297,571,cs),
(297,618,o),
(261,656,o),
(213,656,cs)
);
}
);
width = 425;
},
{
layerId = "8AF3DB8E-7EC5-4D7D-A87A-6DF3FCB8CADF";
shapes = (
{
closed = 1;
nodes = (
(107,425,o),
(36,492,o),
(36,575,cs),
(36,658,o),
(107,727,o),
(190,727,cs),
(275,727,o),
(343,661,o),
(343,576,cs),
(343,492,o),
(275,425,o),
(190,425,cs)
);
},
{
closed = 1;
nodes = (
(139,667,o),
(100,624,o),
(100,576,cs),
(100,525,o),
(138,485,o),
(190,485,cs),
(241,485,o),
(280,521,o),
(280,576,cs),
(280,627,o),
(241,667,o),
(190,667,cs)
);
}
);
width = 379;
},
{
layerId = "F1A19D98-9E48-4F05-B6A0-CD51606DBCB8";
shapes = (
{
closed = 1;
nodes = (
(105,431,o),
(37,496,o),
(37,576,cs),
(37,656,o),
(106,723,o),
(185,723,cs),
(268,723,o),
(333,659,o),
(333,577,cs),
(333,496,o),
(267,431,o),
(185,431,cs)
);
},
{
closed = 1;
nodes = (
(134,669,o),
(94,625,o),
(94,577,cs),
(94,526,o),
(133,485,o),
(185,485,cs),
(236,485,o),
(276,521,o),
(276,577,cs),
(276,628,o),
(236,669,o),
(185,669,cs)
);
}
);
width = 370;
}
);
unicode = 176;
},
{
glyphname = plusminus;
lastChange = "2024-01-25 14:19:30 +0000";
layers = (
{
layerId = "F6364453-91B0-4CE2-A857-F52B6F68B874";
shapes = (
{
closed = 1;
nodes = (
(253,452,l),
(253,596,l),
(386,596,l),
(386,452,l),
(555,452,l),
(555,323,l),
(386,323,l),
(386,173,l),
(253,173,l),
(253,323,l),
(81,323,l),
(81,452,l)
);
},
{
closed = 1;
nodes = (
(555,129,l),
(555,0,l),
(81,0,l),
(81,129,l)
);
}
);
width = 636;
},
{
layerId = "8AF3DB8E-7EC5-4D7D-A87A-6DF3FCB8CADF";
shapes = (
{
closed = 1;
nodes = (
(260,416,l),
(260,577,l),
(339,577,l),
(339,416,l),
(546,416,l),
(546,336,l),
(339,336,l),
(339,180,l),
(260,180,l),
(260,336,l),
(53,336,l),
(53,416,l)
);
},
{
closed = 1;
nodes = (
(546,108,l),
(546,28,l),
(53,28,l),
(53,108,l)
);
}
);
width = 599;
},
{
layerId = "F1A19D98-9E48-4F05-B6A0-CD51606DBCB8";
shapes = (
{
closed = 1;
nodes = (
(261,409,l),
(261,573,l),
(330,573,l),
(330,409,l),
(544,409,l),
(544,339,l),
(330,339,l),
(330,181,l),
(261,181,l),
(261,339,l),
(47,339,l),
(47,409,l)
);
},
{
closed = 1;
nodes = (
(544,104,l),
(544,34,l),
(47,34,l),
(47,104,l)
);
}
);
width = 591;
}
);
unicode = 177;
},
{
glyphname = twosuperior;
lastChange = "2024-01-25 14:19:30 +0000";
layers = (
{
layerId = "F6364453-91B0-4CE2-A857-F52B6F68B874";
shapes = (
{
closed = 1;
nodes = (
(168,428,ls),
(199,457,o),
(268,516,o),
(268,569,cs),
(268,598,o),
(249,619,o),
(220,619,cs),
(181,619,o),
(172,584,o),
(172,555,c),
(43,555,l),
(52,659,o),
(106,717,o),
(223,717,cs),
(312,717,o),
(396,662,o),
(396,574,cs),
(396,499,o),
(346,447,o),
(282,404,cs),
(242,378,l),
(400,386,l),
(400,285,l),
(18,285,l)
);
}
);
width = 430;
},
{
layerId = "8AF3DB8E-7EC5-4D7D-A87A-6DF3FCB8CADF";
shapes = (
{
closed = 1;
nodes = (
(136,429,ls),
(208,515,o),
(238,555,o),
(238,593,cs),
(238,629,o),
(212,656,o),
(176,656,cs),
(152,656,o),
(129,642,o),
(108,610,c),
(53,650,l),
(92,701,o),
(124,720,o),
(179,720,cs),
(261,720,o),
(316,668,o),
(316,594,cs),
(316,536,o),
(285,498,o),
(208,410,cs),
(155,348,l),
(318,349,l),
(293,285,l),
(14,285,l)
);
}
);
width = 349;
},
{
layerId = "F1A19D98-9E48-4F05-B6A0-CD51606DBCB8";
shapes = (
{
closed = 1;
nodes = (
(130,429,ls),
(210,527,o),
(232,562,o),
(232,598,cs),
(232,635,o),
(204,663,o),
(167,663,cs),
(147,663,o),
(119,653,o),
(95,621,c),
(55,669,l),
(100,708,o),
(129,720,o),
(170,720,cs),
(251,720,o),
(300,669,o),
(300,598,cs),
(300,543,o),
(273,507,o),
(193,411,cs),
(137,342,l),
(302,342,l),
(271,285,l),
(13,285,l)
);
}
);
width = 333;
}
);
unicode = 178;
},
{
glyphname = threesuperior;
lastChange = "2024-01-25 14:19:30 +0000";
layers = (
{
layerId = "F6364453-91B0-4CE2-A857-F52B6F68B874";
shapes = (
{
closed = 1;
nodes = (
(138,424,l),
(139,393,o),
(160,369,o),
(195,369,cs),
(226,369,o),
(249,393,o),
(249,426,cs),
(249,457,o),
(227,475,o),
(198,475,cs),
(190,475,o),
(183,474,o),
(175,474,c),
(175,547,l),
(187,547,ls),
(212,547,o),
(233,564,o),
(233,592,cs),
(233,615,o),
(218,632,o),
(194,632,cs),
(163,632,o),
(152,609,o),
(152,589,c),
(27,589,l),
(35,679,o),
(113,721,o),
(197,721,cs),
(275,721,o),
(357,681,o),
(357,601,cs),
(357,566,o),
(340,532,o),
(307,515,c),
(351,496,o),
(375,457,o),
(375,414,cs),
(375,321,o),
(285,279,o),
(194,279,cs),
(95,279,o),
(15,328,o),
(10,424,c)
);
}
);
width = 398;
},
{
layerId = "8AF3DB8E-7EC5-4D7D-A87A-6DF3FCB8CADF";
shapes = (
{
closed = 1;
nodes = (
(85,391,l),
(94,352,o),
(114,340,o),
(150,340,cs),
(197,340,o),
(230,374,o),
(230,419,cs),
(230,450,o),
(209,488,o),
(134,488,cs),
(130,488,o),
(115,487,o),
(111,487,c),
(111,546,l),
(128,546,ls),
(175,546,o),
(209,570,o),
(209,611,cs),
(209,640,o),
(187,661,o),
(154,661,cs),
(126,661,o),
(109,649,o),
(97,610,c),
(25,610,l),
(36,691,o),
(83,723,o),
(153,723,cs),
(227,723,o),
(283,685,o),
(283,617,cs),
(283,574,o),
(263,544,o),
(215,521,c),
(282,498,o),
(305,469,o),
(305,417,cs),
(305,333,o),
(237,278,o),
(145,278,cs),
(67,278,o),
(20,310,o),
(9,391,c)
);
}
);
width = 329;
},
{
layerId = "F1A19D98-9E48-4F05-B6A0-CD51606DBCB8";
shapes = (
{
closed = 1;
nodes = (
(78,383,l),
(87,342,o),
(109,334,o),
(141,334,cs),
(189,334,o),
(224,370,o),
(224,417,cs),
(224,456,o),
(201,494,o),
(119,494,cs),
(115,494,o),
(99,494,o),
(95,494,c),
(95,550,l),
(114,550,ls),
(169,550,o),
(201,572,o),
(201,615,cs),
(201,647,o),
(182,667,o),
(142,667,cs),
(114,667,o),
(96,652,o),
(88,620,c),
(23,620,l),
(39,694,o),
(76,723,o),
(139,723,cs),
(215,723,o),
(265,684,o),
(265,620,cs),
(265,577,o),
(244,553,o),
(196,526,c),
(265,506,o),
(288,471,o),
(288,418,cs),
(288,334,o),
(222,278,o),
(136,278,cs),
(59,278,o),
(23,308,o),
(9,383,c)
);
}
);
width = 313;
}
);
unicode = 179;
},
{
glyphname = acute;
lastChange = "2024-01-25 16:22:31 +0000";
layers = (
{
layerId = "F6364453-91B0-4CE2-A857-F52B6F68B874";
shapes = (
{
closed = 1;
nodes = (
(286,734,l),
(139,606,l),
(5,606,l),
(109,791,l)
);
}
);
width = 269;
},
{
layerId = "8AF3DB8E-7EC5-4D7D-A87A-6DF3FCB8CADF";
shapes = (
{
closed = 1;
nodes = (
(223,735,l),
(92,606,l),
(20,606,l),
(113,761,l)
);
}
);
width = 239;
},
{
layerId = "F1A19D98-9E48-4F05-B6A0-CD51606DBCB8";
shapes = (
{
closed = 1;
nodes = (
(210,735,l),
(82,606,l),
(23,606,l),
(114,755,l)
);
}
);
width = 233;
}
);
unicode = 180;
},
{
glyphname = paragraph;
lastChange = "2024-01-25 14:19:30 +0000";
layers = (
{
layerId = "F6364453-91B0-4CE2-A857-F52B6F68B874";
shapes = (
{
closed = 1;
nodes = (
(230,308,l),
(122,321,o),
(43,391,o),
(43,502,cs),
(43,627,o),
(124,706,o),
(273,706,cs),
(571,706,l),
(571,604,l),
(516,604,l),
(516,-113,l),
(404,-113,l),
(404,604,l),
(342,604,l),
(342,-113,l),
(230,-113,l)
);
}
);
width = 641;
},
{
layerId = "8AF3DB8E-7EC5-4D7D-A87A-6DF3FCB8CADF";
shapes = (
{
closed = 1;
nodes = (
(210,352,l),
(119,368,o),
(35,407,o),
(35,527,cs),
(35,643,o),
(112,706,o),
(237,706,cs),
(505,706,l),
(505,622,l),
(469,622,l),
(469,-106,l),
(384,-106,l),
(384,622,l),
(295,622,l),
(295,-106,l),
(210,-106,l)
);
}
);
width = 634;
},
{
layerId = "F1A19D98-9E48-4F05-B6A0-CD51606DBCB8";
shapes = (
{
closed = 1;
nodes = (
(206,361,l),
(119,379,o),
(33,409,o),
(33,532,cs),
(33,645,o),
(109,706,o),
(230,706,cs),
(492,706,l),
(492,625,l),
(459,625,l),
(459,-104,l),
(380,-104,l),
(380,625,l),
(285,625,l),
(285,-104,l),
(206,-104,l)
);
}
);
width = 632;
}
);
unicode = 182;
},
{
glyphname = periodcentered;
lastChange = "2024-01-25 14:19:30 +0000";
layers = (
{
layerId = "F6364453-91B0-4CE2-A857-F52B6F68B874";
shapes = (
{
closed = 1;
nodes = (
(238,488,o),
(287,451,o),
(287,379,cs),
(287,307,o),
(238,269,o),
(174,269,cs),
(110,269,o),
(62,307,o),
(62,379,cs),
(62,448,o),
(106,488,o),
(174,488,cs)
);
}
);
width = 349;
},
{
layerId = "8AF3DB8E-7EC5-4D7D-A87A-6DF3FCB8CADF";
shapes = (
{
closed = 1;
nodes = (
(187,424,o),
(218,395,o),
(218,356,cs),
(218,317,o),
(187,287,o),
(150,287,cs),
(111,287,o),
(81,317,o),
(81,356,cs),
(81,396,o),
(111,424,o),
(150,424,cs)
);
}
);
width = 300;
},
{
layerId = "F1A19D98-9E48-4F05-B6A0-CD51606DBCB8";
shapes = (
{
closed = 1;
nodes = (
(177,411,o),
(204,384,o),
(204,352,cs),
(204,319,o),
(177,291,o),
(145,291,cs),
(112,291,o),
(85,319,o),
(85,352,cs),
(85,385,o),
(112,411,o),
(145,411,cs)
);
}
);
width = 290;
}
);
unicode = 183;
},
{
glyphname = cedilla;
lastChange = "2024-01-25 14:19:30 +0000";
layers = (
{
layerId = "F6364453-91B0-4CE2-A857-F52B6F68B874";
shapes = (
{
closed = 1;
nodes = (
(214,-68,ls),
(258,-68,o),
(306,-95,o),
(306,-150,cs),
(306,-223,o),
(235,-246,o),
(180,-246,cs),
(145,-246,o),
(107,-237,o),
(72,-220,c),
(98,-164,l),
(125,-176,o),
(151,-180,o),
(170,-180,cs),
(190,-180,o),
(223,-172,o),
(223,-151,cs),
(223,-135,o),
(208,-126,o),
(184,-126,cs),
(169,-126,o),
(155,-129,o),
(139,-136,c),
(108,-110,l),
(178,0,l),
(248,0,l),
(206,-68,l)
);
}
);
width = 372;
},
{
layerId = "8AF3DB8E-7EC5-4D7D-A87A-6DF3FCB8CADF";
shapes = (
{
closed = 1;
nodes = (
(163,-70,ls),
(198,-70,o),
(245,-85,o),
(245,-138,cs),
(245,-202,o),
(176,-225,o),
(124,-225,cs),
(92,-225,o),
(64,-217,o),
(37,-204,c),
(51,-161,l),
(71,-169,o),
(88,-172,o),
(103,-172,cs),
(126,-172,o),
(166,-162,o),
(166,-129,cs),
(166,-109,o),
(150,-99,o),
(126,-99,cs),
(114,-99,o),
(105,-102,o),
(92,-107,c),
(73,-92,l),
(135,0,l),
(201,0,l),
(159,-70,l)
);
}
);
width = 290;
},
{
layerId = "F1A19D98-9E48-4F05-B6A0-CD51606DBCB8";
shapes = (
{
closed = 1;
nodes = (
(153,-70,ls),
(185,-70,o),
(233,-83,o),
(233,-135,cs),
(233,-198,o),
(164,-221,o),
(113,-221,cs),
(81,-221,o),
(55,-213,o),
(30,-201,c),
(41,-160,l),
(60,-167,o),
(75,-170,o),
(90,-170,cs),
(113,-170,o),
(155,-160,o),
(155,-125,cs),
(155,-105,o),
(138,-94,o),
(114,-94,cs),
(103,-94,o),
(95,-96,o),
(83,-101,c),
(66,-88,l),
(126,0,l),
(191,0,l),
(150,-70,l)
);
}
);
width = 273;
}
);
unicode = 184;
},
{
glyphname = onesuperior;
lastChange = "2024-01-25 14:19:30 +0000";
layers = (
{
layerId = "F6364453-91B0-4CE2-A857-F52B6F68B874";
shapes = (
{
closed = 1;
nodes = (
(112,604,l),
(85,603,o),
(72,603,o),
(47,602,c),
(47,704,l),
(60,704,o),
(109,706,o),
(150,706,c),
(240,708,l),
(240,285,l),
(112,285,l)
);
}
);
width = 347;
},
{
layerId = "8AF3DB8E-7EC5-4D7D-A87A-6DF3FCB8CADF";
shapes = (
{
closed = 1;
nodes = (
(85,617,l),
(68,597,o),
(46,580,o),
(27,569,c),
(27,643,l),
(58,667,o),
(84,689,o),
(103,713,c),
(163,713,l),
(163,286,l),
(85,286,l)
);
}
);
width = 240;
},
{
layerId = "F1A19D98-9E48-4F05-B6A0-CD51606DBCB8";
shapes = (
{
closed = 1;
nodes = (
(80,619,l),
(64,596,o),
(40,574,o),
(23,562,c),
(23,631,l),
(58,660,o),
(79,686,o),
(94,714,c),
(148,714,l),
(148,286,l),
(80,286,l)
);
}
);
width = 219;
}
);
unicode = 185;
},
{
glyphname = ordmasculine;
lastChange = "2024-01-25 14:19:30 +0000";
layers = (
{
layerId = "F6364453-91B0-4CE2-A857-F52B6F68B874";
shapes = (
{
closed = 1;
nodes = (
(23,653,o),
(93,724,o),
(186,724,cs),
(279,724,o),
(347,655,o),
(347,570,cs),
(347,485,o),
(278,414,o),
(184,414,cs),
(98,414,o),
(23,479,o),
(23,569,cs)
);
},
{
closed = 1;
nodes = (
(329,366,l),
(329,289,l),
(41,289,l),
(41,366,l)
);
},
{
closed = 1;
nodes = (
(245,605,o),
(220,635,o),
(184,635,cs),
(148,635,o),
(125,606,o),
(125,570,cs),
(125,534,o),
(150,503,o),
(186,503,cs),
(223,503,o),
(245,535,o),
(245,569,cs)
);
}
);
width = 370;
},
{
layerId = "8AF3DB8E-7EC5-4D7D-A87A-6DF3FCB8CADF";
shapes = (
{
closed = 1;
nodes = (
(21,655,o),
(85,723,o),
(172,723,cs),
(258,723,o),
(321,653,o),
(321,575,cs),
(321,491,o),
(256,422,o),
(170,422,cs),
(87,422,o),
(21,488,o),
(21,572,cs)
);
},
{
closed = 1;
nodes = (
(315,354,l),
(315,302,l),
(27,302,l),
(27,354,l)
);
},
{
closed = 1;
nodes = (
(259,628,o),
(222,667,o),
(170,667,cs),
(115,667,o),
(83,624,o),
(83,575,cs),
(83,519,o),
(120,478,o),
(172,478,cs),
(227,478,o),
(259,519,o),
(259,572,cs)
);
}
);
width = 342;
},
{
layerId = "F1A19D98-9E48-4F05-B6A0-CD51606DBCB8";
shapes = (
{
closed = 1;
nodes = (
(20,655,o),
(83,723,o),
(169,723,cs),
(254,723,o),
(316,653,o),
(316,576,cs),
(316,492,o),
(251,423,o),
(167,423,cs),
(85,423,o),
(20,489,o),
(20,572,cs)
);
},
{
closed = 1;
nodes = (
(312,356,l),
(312,304,l),
(24,304,l),
(24,356,l)
);
},
{
closed = 1;
nodes = (
(262,632,o),
(223,673,o),
(167,673,cs),
(110,673,o),
(74,627,o),
(74,576,cs),
(74,519,o),
(113,476,o),
(169,476,c),
(227,472,o),
(262,517,o),
(262,572,cs)
);
}
);
width = 336;
}
);
unicode = 186;
},
{
glyphname = questiondown;
lastChange = "2024-01-25 14:19:30 +0000";
layers = (
{
layerId = "F6364453-91B0-4CE2-A857-F52B6F68B874";
shapes = (
{
closed = 1;
nodes = (
(487,-94,l),
(435,-162,o),
(357,-190,o),
(273,-190,cs),
(150,-190,o),
(37,-118,o),
(37,13,cs),
(37,104,o),
(85,143,o),
(150,194,cs),
(184,220,o),
(194,232,o),
(194,270,cs),
(194,301,l),
(368,301,l),
(368,258,ls),
(368,178,o),
(325,136,o),
(281,102,cs),
(254,82,o),
(228,54,o),
(228,25,cs),
(228,-12,o),
(270,-28,o),
(308,-28,cs),
(376,-28,o),
(440,20,o),
(487,64,c)
);
},
{
closed = 1;
nodes = (
(214,339,o),
(166,371,o),
(166,435,cs),
(166,499,o),
(214,532,o),
(274,532,cs),
(334,532,o),
(381,499,o),
(381,435,cs),
(381,371,o),
(334,339,o),
(274,339,cs)
);
}
);
width = 524;
},
{
layerId = "8AF3DB8E-7EC5-4D7D-A87A-6DF3FCB8CADF";
shapes = (
{
closed = 1;
nodes = (
(403,-120,l),
(368,-164,o),
(308,-193,o),
(236,-193,cs),
(126,-193,o),
(50,-124,o),
(50,-20,cs),
(50,58,o),
(90,112,o),
(143,157,cs),
(194,200,o),
(212,230,o),
(212,297,cs),
(212,329,l),
(310,329,l),
(310,270,ls),
(310,185,o),
(263,136,o),
(217,96,cs),
(182,64,o),
(150,32,o),
(150,-13,cs),
(150,-58,o),
(186,-102,o),
(251,-102,cs),
(315,-102,o),
(366,-63,o),
(403,-13,c)
);
},
{
closed = 1;
nodes = (
(217,402,o),
(187,431,o),
(187,468,cs),
(187,508,o),
(217,533,o),
(256,533,cs),
(292,533,o),
(324,508,o),
(324,468,cs),
(324,430,o),
(293,402,o),
(256,402,cs)
);
}
);
width = 452;
},
{
layerId = "F1A19D98-9E48-4F05-B6A0-CD51606DBCB8";
shapes = (
{
closed = 1;
nodes = (
(386,-125,l),
(355,-165,o),
(297,-193,o),
(229,-193,cs),
(121,-193,o),
(52,-126,o),
(52,-27,cs),
(52,49,o),
(91,105,o),
(142,150,cs),
(195,195,o),
(216,231,o),
(216,302,cs),
(216,334,l),
(298,334,l),
(298,272,ls),
(298,186,o),
(249,137,o),
(204,95,cs),
(167,60,o),
(134,28,o),
(134,-20,cs),
(134,-68,o),
(169,-117,o),
(239,-117,cs),
(303,-117,o),
(350,-80,o),
(386,-28,c)
);
},
{
closed = 1;
nodes = (
(219,415,o),
(191,443,o),
(191,474,cs),
(191,510,o),
(219,533,o),
(252,533,cs),
(284,533,o),
(312,510,o),
(312,474,cs),
(312,442,o),
(283,415,o),
(252,415,cs)
);
}
);
width = 437;
}
);
unicode = 191;
},
{
glyphname = AE;
lastChange = "2024-01-25 14:19:30 +0000";
layers = (
{
layerId = "F6364453-91B0-4CE2-A857-F52B6F68B874";
shapes = (
{
closed = 1;
nodes = (
(1010,700,l),
(1010,535,l),
(637,535,l),
(637,429,l),
(975,429,l),
(975,276,l),
(637,276,l),
(637,165,l),
(1015,165,l),
(1015,0,l),
(445,0,l),
(445,125,l),
(255,125,l),
(196,0,l),
(-8,0,l),
(290,700,l)
);
},
{
closed = 1;
nodes = (
(445,582,l),
(312,276,l),
(445,276,l)
);
}
);
width = 1007;
},
{
layerId = "8AF3DB8E-7EC5-4D7D-A87A-6DF3FCB8CADF";
shapes = (
{
closed = 1;
nodes = (
(931,704,l),
(931,613,l),
(557,613,l),
(557,402,l),
(901,402,l),
(901,314,l),
(557,314,l),
(557,91,l),
(941,91,l),
(941,0,l),
(453,0,l),
(453,185,l),
(214,185,l),
(104,0,l),
(-6,0,l),
(407,704,l)
);
},
{
closed = 1;
nodes = (
(453,599,l),
(262,273,l),
(453,273,l)
);
}
);
width = 940;
},
{
layerId = "F1A19D98-9E48-4F05-B6A0-CD51606DBCB8";
shapes = (
{
closed = 1;
nodes = (
(915,705,l),
(915,629,l),
(541,629,l),
(541,397,l),
(886,397,l),
(886,321,l),
(541,321,l),
(541,76,l),
(926,76,l),
(926,0,l),
(455,0,l),
(455,197,l),
(206,197,l),
(86,0,l),
(-5,0,l),
(430,705,l)
);
},
{
closed = 1;
nodes = (
(455,602,l),
(252,272,l),
(455,272,l)
);
}
);
width = 926;
}
);
unicode = 198;
},
{
glyphname = Eth;
lastChange = "2024-01-25 14:19:30 +0000";
layers = (
{
layerId = "F6364453-91B0-4CE2-A857-F52B6F68B874";
shapes = (
{
closed = 1;
nodes = (
(351,700,ls),
(602,700,o),
(746,557,o),
(746,354,cs),
(746,152,o),
(599,0,o),
(347,0,cs),
(81,0,l),
(81,700,l)
);
},
{
closed = 1;
nodes = (
(354,172,ls),
(470,172,o),
(547,238,o),
(547,351,cs),
(547,463,o),
(469,528,o),
(354,528,cs),
(275,528,l),
(275,172,l)
);
},
{
closed = 1;
nodes = (
(7,249,l),
(7,416,l),
(335,416,l),
(335,249,l)
);
}
);
width = 784;
},
{
layerId = "8AF3DB8E-7EC5-4D7D-A87A-6DF3FCB8CADF";
shapes = (
{
closed = 1;
nodes = (
(336,704,ls),
(556,704,o),
(715,565,o),
(715,353,cs),
(715,147,o),
(566,0,o),
(335,0,cs),
(107,0,l),
(107,704,l)
);
},
{
closed = 1;
nodes = (
(332,92,ls),
(508,92,o),
(607,199,o),
(607,351,cs),
(607,479,o),
(523,611,o),
(372,611,cs),
(210,611,l),
(210,92,l)
);
},
{
closed = 1;
nodes = (
(15,307,l),
(15,399,l),
(295,399,l),
(295,307,l)
);
}
);
width = 765;
},
{
layerId = "F1A19D98-9E48-4F05-B6A0-CD51606DBCB8";
shapes = (
{
closed = 1;
nodes = (
(333,705,ls),
(547,705,o),
(709,566,o),
(709,353,cs),
(709,146,o),
(559,0,o),
(332,0,cs),
(112,0,l),
(112,705,l)
);
},
{
closed = 1;
nodes = (
(328,76,ls),
(516,76,o),
(619,191,o),
(619,351,cs),
(619,482,o),
(534,628,o),
(376,628,cs),
(197,628,l),
(197,76,l)
);
},
{
closed = 1;
nodes = (
(16,319,l),
(16,396,l),
(287,396,l),
(287,319,l)
);
}
);
width = 761;
}
);
unicode = 208;
},
{
glyphname = multiply;
lastChange = "2024-01-25 14:19:30 +0000";
layers = (
{
layerId = "F6364453-91B0-4CE2-A857-F52B6F68B874";
shapes = (
{
closed = 1;
nodes = (
(90,505,l),
(196,610,l),
(351,455,l),
(505,610,l),
(610,505,l),
(456,350,l),
(610,195,l),
(505,90,l),
(351,245,l),
(196,90,l),
(90,195,l),
(246,350,l)
);
}
);
width = 700;
},
{
layerId = "8AF3DB8E-7EC5-4D7D-A87A-6DF3FCB8CADF";
shapes = (
{
closed = 1;
nodes = (
(88,528,l),
(146,588,l),
(324,408,l),
(502,588,l),
(561,528,l),
(384,351,l),
(561,173,l),
(502,113,l),
(324,292,l),
(146,113,l),
(87,172,l),
(266,351,l)
);
}
);
width = 648;
},
{
layerId = "F1A19D98-9E48-4F05-B6A0-CD51606DBCB8";
shapes = (
{
closed = 1;
nodes = (
(87,533,l),
(136,583,l),
(319,399,l),
(501,583,l),
(551,533,l),
(369,351,l),
(551,168,l),
(501,117,l),
(319,301,l),
(136,117,l),
(86,167,l),
(270,351,l)
);
}
);
width = 638;
}
);
unicode = 215;
},
{
glyphname = Oslash;
lastChange = "2024-01-25 14:19:30 +0000";
layers = (
{
layerId = "F6364453-91B0-4CE2-A857-F52B6F68B874";
shapes = (
{
closed = 1;
nodes = (
(195,47,l),
(95,115,o),
(32,222,o),
(32,350,cs),
(32,551,o),
(193,714,o),
(409,714,cs),
(444,714,o),
(476,710,o),
(508,702,c),
(554,798,l),
(679,739,l),
(634,645,l),
(730,577,o),
(786,473,o),
(786,352,cs),
(786,151,o),
(623,-14,o),
(408,-14,cs),
(377,-14,o),
(350,-10,o),
(323,-5,c),
(265,-128,l),
(139,-69,l)
);
},
{
closed = 1;
nodes = (
(429,538,l),
(422,539,o),
(415,539,o),
(408,539,cs),
(304,539,o),
(231,456,o),
(231,352,cs),
(231,301,o),
(244,260,o),
(278,221,c)
);
},
{
closed = 1;
nodes = (
(403,161,l),
(406,161,o),
(406,161,o),
(409,161,cs),
(514,161,o),
(587,246,o),
(587,350,cs),
(587,393,o),
(573,434,o),
(549,467,c)
);
}
);
width = 818;
},
{
layerId = "8AF3DB8E-7EC5-4D7D-A87A-6DF3FCB8CADF";
shapes = (
{
closed = 1;
nodes = (
(146,101,l),
(82,166,o),
(48,252,o),
(48,351,cs),
(48,554,o),
(204,718,o),
(417,718,cs),
(501,718,o),
(570,691,o),
(629,646,c),
(703,730,l),
(759,684,l),
(684,603,l),
(748,538,o),
(783,451,o),
(783,354,cs),
(783,151,o),
(628,-14,o),
(416,-14,cs),
(331,-14,o),
(259,13,o),
(202,58,c),
(129,-26,l),
(75,21,l)
);
},
{
closed = 1;
nodes = (
(567,571,l),
(520,607,o),
(467,624,o),
(407,624,cs),
(258,624,o),
(154,500,o),
(154,354,cs),
(154,287,o),
(174,227,o),
(209,180,c)
);
},
{
closed = 1;
nodes = (
(263,134,l),
(314,97,o),
(363,81,o),
(427,81,cs),
(577,81,o),
(677,204,o),
(677,350,cs),
(677,417,o),
(657,475,o),
(621,523,c)
);
}
);
width = 831;
},
{
layerId = "F1A19D98-9E48-4F05-B6A0-CD51606DBCB8";
shapes = (
{
closed = 1;
nodes = (
(136,112,l),
(80,176,o),
(51,259,o),
(51,351,cs),
(51,555,o),
(206,719,o),
(419,719,cs),
(511,719,o),
(589,687,o),
(653,635,c),
(732,719,l),
(775,676,l),
(694,594,l),
(750,530,o),
(782,446,o),
(782,354,cs),
(782,151,o),
(628,-14,o),
(417,-14,cs),
(321,-14,o),
(242,18,o),
(178,71,c),
(102,-6,l),
(61,36,l)
);
},
{
closed = 1;
nodes = (
(595,577,l),
(546,619,o),
(483,642,o),
(418,642,cs),
(253,642,o),
(138,514,o),
(138,354,cs),
(138,282,o),
(159,221,o),
(195,172,c)
);
},
{
closed = 1;
nodes = (
(235,129,l),
(284,84,o),
(353,63,o),
(418,63,cs),
(581,63,o),
(695,191,o),
(695,350,cs),
(695,422,o),
(674,483,o),
(635,534,c)
);
}
);
width = 833;
}
);
unicode = 216;
},
{
glyphname = Thorn;
lastChange = "2024-01-25 14:19:30 +0000";
layers = (
{
layerId = "F6364453-91B0-4CE2-A857-F52B6F68B874";
shapes = (
{
closed = 1;
nodes = (
(250,706,l),
(250,603,l),
(314,603,ls),
(470,603,o),
(580,531,o),
(580,363,cs),
(580,216,o),
(494,135,o),
(350,135,cs),
(250,135,l),
(250,0,l),
(58,0,l),
(58,706,l)
);
},
{
closed = 1;
nodes = (
(277,281,ls),
(340,281,o),
(387,293,o),
(387,368,cs),
(387,441,o),
(335,449,o),
(275,449,cs),
(250,449,l),
(250,281,l)
);
}
);
width = 603;
},
{
layerId = "8AF3DB8E-7EC5-4D7D-A87A-6DF3FCB8CADF";
shapes = (
{
closed = 1;
nodes = (
(174,706,l),
(174,580,l),
(216,580,ls),
(353,580,o),
(473,533,o),
(473,374,cs),
(473,230,o),
(369,171,o),
(238,171,cs),
(174,171,l),
(174,0,l),
(76,0,l),
(76,706,l)
);
},
{
closed = 1;
nodes = (
(222,256,ls),
(306,256,o),
(375,281,o),
(375,376,cs),
(375,485,o),
(288,493,o),
(203,493,cs),
(174,493,l),
(174,256,l)
);
}
);
width = 501;
},
{
layerId = "F1A19D98-9E48-4F05-B6A0-CD51606DBCB8";
shapes = (
{
closed = 1;
nodes = (
(159,706,l),
(159,575,l),
(196,575,ls),
(329,575,o),
(451,533,o),
(451,376,cs),
(451,233,o),
(344,178,o),
(216,178,cs),
(159,178,l),
(159,0,l),
(80,0,l),
(80,706,l)
);
},
{
closed = 1;
nodes = (
(211,251,ls),
(298,251,o),
(372,277,o),
(372,378,cs),
(372,494,o),
(280,502,o),
(188,502,cs),
(159,502,l),
(159,251,l)
);
}
);
width = 481;
}
);
unicode = 222;
},
{
glyphname = germandbls;
lastChange = "2024-01-25 14:19:30 +0000";
layers = (
{
layerId = "F6364453-91B0-4CE2-A857-F52B6F68B874";
shapes = (
{
closed = 1;
nodes = (
(7,0,l),
(7,479,ls),
(7,635,o),
(102,739,o),
(279,739,cs),
(434,739,o),
(529,646,o),
(529,530,cs),
(529,446,o),
(484,393,o),
(424,364,c),
(492,343,o),
(564,290,o),
(564,194,cs),
(564,39,o),
(391,-16,o),
(263,-3,c),
(263,133,l),
(331,136,o),
(375,166,o),
(375,214,cs),
(375,262,o),
(331,292,o),
(263,297,c),
(263,398,l),
(307,419,o),
(345,455,o),
(345,505,cs),
(345,552,o),
(317,580,o),
(276,580,cs),
(231,580,o),
(196,546,o),
(196,483,cs),
(196,0,l)
);
}
);
width = 593;
},
{
layerId = "8AF3DB8E-7EC5-4D7D-A87A-6DF3FCB8CADF";
shapes = (
{
closed = 1;
nodes = (
(11,0,l),
(11,513,ls),
(11,643,o),
(82,751,o),
(242,751,cs),
(366,751,o),
(452,674,o),
(452,565,cs),
(452,480,o),
(401,424,o),
(332,393,c),
(420,377,o),
(497,308,o),
(497,207,cs),
(497,63,o),
(368,-6,o),
(211,-3,c),
(211,74,l),
(319,74,o),
(397,115,o),
(397,210,cs),
(397,303,o),
(327,334,o),
(220,350,c),
(220,418,l),
(293,447,o),
(353,478,o),
(353,554,cs),
(353,623,o),
(306,663,o),
(239,663,cs),
(148,663,o),
(109,590,o),
(109,513,cs),
(109,0,l)
);
}
);
width = 531;
},
{
layerId = "F1A19D98-9E48-4F05-B6A0-CD51606DBCB8";
shapes = (
{
closed = 1;
nodes = (
(12,0,l),
(12,520,ls),
(12,644,o),
(79,753,o),
(235,753,cs),
(352,753,o),
(437,680,o),
(437,572,cs),
(437,487,o),
(386,430,o),
(314,399,c),
(407,383,o),
(484,313,o),
(484,209,cs),
(484,67,o),
(362,-3,o),
(201,-3,c),
(201,62,l),
(317,62,o),
(401,105,o),
(401,209,cs),
(401,310,o),
(326,344,o),
(211,360,c),
(211,422,l),
(291,451,o),
(354,483,o),
(354,564,cs),
(354,637,o),
(303,680,o),
(231,680,cs),
(133,680,o),
(92,599,o),
(92,519,cs),
(92,0,l)
);
}
);
width = 519;
}
);
unicode = 223;
},
{
glyphname = ae;
lastChange = "2024-01-25 14:19:30 +0000";
layers = (
{
layerId = "F6364453-91B0-4CE2-A857-F52B6F68B874";
shapes = (
{
closed = 1;
nodes = (
(879,42,l),
(817,3,o),
(738,-17,o),
(664,-17,cs),
(588,-17,o),
(525,7,o),
(477,48,c),
(400,3,o),
(330,-12,o),
(241,-12,cs),
(126,-12,o),
(26,49,o),
(26,157,cs),
(26,281,o),
(126,327,o),
(238,327,cs),
(290,327,o),
(339,317,o),
(370,306,c),
(370,315,ls),
(370,378,o),
(326,404,o),
(237,404,cs),
(184,404,o),
(133,396,o),
(73,373,c),
(73,507,l),
(144,536,o),
(211,549,o),
(287,549,cs),
(379,549,o),
(445,530,o),
(488,491,c),
(535,527,o),
(595,548,o),
(664,548,cs),
(840,548,o),
(932,401,o),
(932,240,c),
(577,148,l),
(601,128,o),
(631,121,o),
(667,121,cs),
(734,121,o),
(830,146,o),
(879,190,c)
);
},
{
closed = 1;
nodes = (
(370,221,l),
(353,229,o),
(326,235,o),
(299,235,cs),
(243,235,o),
(211,206,o),
(211,170,cs),
(211,133,o),
(244,107,o),
(283,107,cs),
(314,107,o),
(343,116,o),
(370,139,c)
);
},
{
closed = 1;
nodes = (
(746,319,l),
(734,375,o),
(700,407,o),
(653,407,cs),
(583,407,o),
(557,332,o),
(562,272,c)
);
}
);
width = 962;
},
{
layerId = "8AF3DB8E-7EC5-4D7D-A87A-6DF3FCB8CADF";
shapes = (
{
closed = 1;
nodes = (
(828,44,l),
(785,11,o),
(727,-12,o),
(658,-12,cs),
(581,-12,o),
(507,13,o),
(457,75,c),
(399,17,o),
(316,-11,o),
(235,-11,cs),
(130,-11,o),
(31,51,o),
(31,165,cs),
(31,284,o),
(139,332,o),
(241,332,cs),
(298,332,o),
(349,323,o),
(390,300,c),
(390,318,ls),
(390,391,o),
(333,419,o),
(248,419,cs),
(185,419,o),
(119,404,o),
(65,372,c),
(65,460,l),
(112,480,o),
(178,501,o),
(253,501,cs),
(323,501,o),
(414,475,o),
(456,417,c),
(496,470,o),
(556,504,o),
(635,504,cs),
(778,504,o),
(861,393,o),
(874,262,c),
(502,171,l),
(525,111,o),
(575,69,o),
(655,69,cs),
(720,69,o),
(782,96,o),
(828,142,c)
);
},
{
closed = 1;
nodes = (
(390,227,l),
(359,244,o),
(319,261,o),
(262,261,cs),
(198,261,o),
(129,232,o),
(129,163,cs),
(129,96,o),
(188,65,o),
(255,65,cs),
(315,65,o),
(358,88,o),
(390,125,c)
);
},
{
closed = 1;
nodes = (
(774,317,l),
(757,377,o),
(708,422,o),
(636,422,cs),
(542,422,o),
(492,339,o),
(492,251,c)
);
}
);
width = 906;
},
{
layerId = "F1A19D98-9E48-4F05-B6A0-CD51606DBCB8";
shapes = (
{
closed = 1;
nodes = (
(818,44,l),
(778,12,o),
(720,-11,o),
(648,-11,cs),
(571,-11,o),
(501,18,o),
(453,80,c),
(394,19,o),
(316,-11,o),
(231,-11,cs),
(125,-11,o),
(31,60,o),
(31,171,cs),
(31,296,o),
(142,333,o),
(242,333,cs),
(299,333,o),
(351,324,o),
(394,299,c),
(394,318,ls),
(394,394,o),
(334,422,o),
(250,422,cs),
(185,422,o),
(119,407,o),
(63,372,c),
(63,450,l),
(108,470,o),
(177,492,o),
(253,492,cs),
(327,492,o),
(407,466,o),
(449,402,c),
(488,459,o),
(549,495,o),
(629,495,cs),
(767,495,o),
(846,390,o),
(862,266,c),
(487,175,l),
(510,107,o),
(565,59,o),
(653,59,cs),
(718,59,o),
(772,86,o),
(818,132,c)
);
},
{
closed = 1;
nodes = (
(394,228,l),
(361,247,o),
(318,266,o),
(254,266,cs),
(189,266,o),
(113,238,o),
(113,161,cs),
(113,90,o),
(177,57,o),
(249,57,cs),
(314,57,o),
(361,82,o),
(394,122,c)
);
},
{
closed = 1;
nodes = (
(779,316,l),
(762,377,o),
(708,425,o),
(632,425,cs),
(535,425,o),
(478,340,o),
(478,247,c)
);
}
);
width = 895;
}
);
unicode = 230;
},
{
glyphname = eth;
lastChange = "2024-01-25 14:19:30 +0000";
layers = (
{
layerId = "F6364453-91B0-4CE2-A857-F52B6F68B874";
shapes = (
{
closed = 1;
nodes = (
(224,787,l),
(260,766,o),
(288,744,o),
(323,714,c),
(437,780,l),
(493,722,l),
(385,659,l),
(510,545,o),
(573,414,o),
(573,268,cs),
(573,61,o),
(423,-13,o),
(301,-13,cs),
(170,-13,o),
(30,69,o),
(30,239,cs),
(30,394,o),
(147,483,o),
(272,483,cs),
(309,483,o),
(333,476,o),
(350,470,c),
(321,515,o),
(291,550,o),
(254,586,c),
(137,519,l),
(80,578,l),
(191,640,l),
(160,667,o),
(134,685,o),
(103,708,c)
);
},
{
closed = 1;
nodes = (
(214,186,o),
(250,140,o),
(302,140,cs),
(354,140,o),
(390,186,o),
(390,238,cs),
(390,289,o),
(356,339,o),
(302,339,cs),
(249,339,o),
(214,288,o),
(214,238,cs)
);
}
);
width = 603;
},
{
layerId = "8AF3DB8E-7EC5-4D7D-A87A-6DF3FCB8CADF";
shapes = (
{
closed = 1;
nodes = (
(147,780,l),
(206,745,o),
(229,728,o),
(271,691,c),
(397,773,l),
(437,732,l),
(315,652,l),
(373,594,o),
(509,455,o),
(509,245,cs),
(509,64,o),
(379,-11,o),
(272,-11,cs),
(143,-11,o),
(34,88,o),
(34,223,cs),
(34,347,o),
(129,456,o),
(261,456,cs),
(336,456,o),
(377,419,o),
(396,403,c),
(365,484,o),
(311,549,o),
(247,609,c),
(125,529,l),
(84,571,l),
(204,649,l),
(185,666,o),
(155,691,o),
(92,731,c)
);
},
{
closed = 1;
nodes = (
(350,87,o),
(403,148,o),
(403,225,cs),
(403,299,o),
(350,361,o),
(272,361,cs),
(198,361,o),
(142,302,o),
(142,226,cs),
(142,150,o),
(196,87,o),
(274,87,cs)
);
}
);
width = 543;
},
{
layerId = "F1A19D98-9E48-4F05-B6A0-CD51606DBCB8";
shapes = (
{
closed = 1;
nodes = (
(131,778,l),
(195,738,o),
(217,724,o),
(260,686,c),
(389,772,l),
(426,734,l),
(301,650,l),
(347,604,o),
(496,464,o),
(496,240,cs),
(496,64,o),
(369,-11,o),
(266,-11,cs),
(137,-11,o),
(35,92,o),
(35,220,cs),
(35,337,o),
(125,450,o),
(259,450,cs),
(341,450,o),
(387,408,o),
(405,390,c),
(374,478,o),
(314,550,o),
(246,614,c),
(122,531,l),
(85,569,l),
(207,651,l),
(191,666,o),
(158,692,o),
(90,735,c)
);
},
{
closed = 1;
nodes = (
(360,58,o),
(422,133,o),
(422,221,cs),
(422,306,o),
(361,384,o),
(268,384,cs),
(176,384,o),
(111,313,o),
(111,221,cs),
(111,133,o),
(175,58,o),
(267,58,cs)
);
}
);
width = 531;
}
);
unicode = 240;
},
{
glyphname = divide;
lastChange = "2024-01-25 14:19:30 +0000";
layers = (
{
layerId = "F6364453-91B0-4CE2-A857-F52B6F68B874";
shapes = (
{
closed = 1;
nodes = (
(81,302,l),
(81,402,l),
(604,402,l),
(604,302,l)
);
},
{
closed = 1;
nodes = (
(299,432,o),
(268,465,o),
(268,504,cs),
(268,543,o),
(299,577,o),
(343,577,cs),
(387,577,o),
(417,543,o),
(417,504,cs),
(417,462,o),
(384,432,o),
(343,432,cs)
);
},
{
closed = 1;
nodes = (
(299,128,o),
(268,162,o),
(268,202,cs),
(268,241,o),
(299,273,o),
(343,273,cs),
(387,273,o),
(417,241,o),
(417,202,cs),
(417,159,o),
(386,128,o),
(343,128,cs)
);
}
);
width = 685;
},
{
layerId = "8AF3DB8E-7EC5-4D7D-A87A-6DF3FCB8CADF";
shapes = (
{
closed = 1;
nodes = (
(53,317,l),
(53,389,l),
(565,389,l),
(565,317,l)
);
},
{
closed = 1;
nodes = (
(272,453,o),
(248,479,o),
(248,512,cs),
(248,544,o),
(272,572,o),
(308,572,cs),
(345,572,o),
(370,544,o),
(370,512,cs),
(370,476,o),
(343,453,o),
(308,453,cs)
);
},
{
closed = 1;
nodes = (
(272,135,o),
(248,163,o),
(248,195,cs),
(248,230,o),
(272,254,o),
(308,254,cs),
(345,254,o),
(370,230,o),
(370,195,cs),
(370,160,o),
(342,135,o),
(308,135,cs)
);
}
);
width = 618;
},
{
layerId = "F1A19D98-9E48-4F05-B6A0-CD51606DBCB8";
shapes = (
{
closed = 1;
nodes = (
(47,314,l),
(47,386,l),
(559,386,l),
(559,314,l)
);
},
{
closed = 1;
nodes = (
(266,457,o),
(244,482,o),
(244,513,cs),
(244,544,o),
(266,571,o),
(301,571,cs),
(336,571,o),
(360,544,o),
(360,513,cs),
(360,480,o),
(333,457,o),
(301,457,cs)
);
},
{
closed = 1;
nodes = (
(266,136,o),
(244,163,o),
(244,194,cs),
(244,227,o),
(266,250,o),
(301,250,cs),
(336,250,o),
(360,227,o),
(360,194,cs),
(360,160,o),
(335,136,o),
(301,136,cs)
);
}
);
width = 604;
}
);
unicode = 247;
},
{
glyphname = oslash;
lastChange = "2024-01-25 14:19:30 +0000";
layers = (
{
layerId = "F6364453-91B0-4CE2-A857-F52B6F68B874";
shapes = (
{
closed = 1;
nodes = (
(301,148,l),
(314,143,o),
(329,140,o),
(345,140,cs),
(418,140,o),
(466,199,o),
(466,270,cs),
(466,289,o),
(463,306,o),
(456,322,c)
);
},
{
closed = 1;
nodes = (
(388,391,l),
(375,398,o),
(359,400,o),
(343,400,cs),
(270,400,o),
(222,341,o),
(222,270,cs),
(222,251,o),
(225,234,o),
(232,218,c)
);
},
{
closed = 1;
nodes = (
(113,87,l),
(70,136,o),
(45,198,o),
(45,270,cs),
(45,425,o),
(172,553,o),
(345,553,cs),
(401,553,o),
(453,539,o),
(496,515,c),
(574,608,l),
(649,536,l),
(575,454,l),
(618,405,o),
(643,342,o),
(643,270,cs),
(643,115,o),
(516,-13,o),
(343,-13,cs),
(286,-13,o),
(235,1,o),
(191,25,c),
(103,-73,l),
(30,-5,l)
);
}
);
width = 687;
},
{
layerId = "8AF3DB8E-7EC5-4D7D-A87A-6DF3FCB8CADF";
shapes = (
{
closed = 1;
nodes = (
(194,98,l),
(221,78,o),
(249,68,o),
(288,68,cs),
(389,68,o),
(454,144,o),
(454,242,cs),
(454,281,o),
(444,312,o),
(427,340,c)
);
},
{
closed = 1;
nodes = (
(386,384,l),
(362,404,o),
(331,415,o),
(291,415,cs),
(191,415,o),
(128,338,o),
(128,242,cs),
(128,201,o),
(134,171,o),
(155,142,c)
);
},
{
closed = 1;
nodes = (
(91,76,l),
(52,124,o),
(32,177,o),
(32,242,cs),
(32,384,o),
(139,495,o),
(290,495,cs),
(350,495,o),
(402,483,o),
(445,448,c),
(504,509,l),
(546,467,l),
(492,407,l),
(528,363,o),
(551,310,o),
(551,242,cs),
(551,98,o),
(441,-12,o),
(290,-12,cs),
(226,-12,o),
(179,4,o),
(136,37,c),
(64,-41,l),
(20,3,l)
);
}
);
width = 573;
},
{
layerId = "F1A19D98-9E48-4F05-B6A0-CD51606DBCB8";
shapes = (
{
closed = 1;
nodes = (
(172,88,l),
(201,65,o),
(234,53,o),
(277,53,cs),
(383,53,o),
(452,133,o),
(452,236,cs),
(452,279,o),
(440,313,o),
(421,344,c)
);
},
{
closed = 1;
nodes = (
(386,382,l),
(359,405,o),
(325,418,o),
(280,418,cs),
(174,418,o),
(109,337,o),
(109,236,cs),
(109,191,o),
(116,158,o),
(139,127,c)
);
},
{
closed = 1;
nodes = (
(87,74,l),
(48,122,o),
(29,172,o),
(29,236,cs),
(29,376,o),
(132,483,o),
(279,483,cs),
(339,483,o),
(392,470,o),
(435,435,c),
(490,489,l),
(524,451,l),
(475,398,l),
(510,354,o),
(532,304,o),
(532,236,cs),
(532,95,o),
(426,-12,o),
(279,-12,cs),
(215,-12,o),
(168,4,o),
(125,39,c),
(57,-35,l),
(18,4,l)
);
}
);
width = 550;
}
);
unicode = 248;
},
{
glyphname = thorn;
lastChange = "2024-01-25 14:19:30 +0000";
layers = (
{
layerId = "F6364453-91B0-4CE2-A857-F52B6F68B874";
shapes = (
{
closed = 1;
nodes = (
(226,189,o),
(259,140,o),
(311,140,cs),
(362,140,o),
(397,190,o),
(397,241,cs),
(397,289,o),
(364,339,o),
(311,339,cs),
(259,339,o),
(226,288,o),
(226,240,cs)
);
},
{
closed = 1;
nodes = (
(238,776,l),
(238,571,l),
(235,542,o),
(235,511,o),
(235,480,c),
(234,459,o),
(233,438,o),
(232,418,c),
(232,418,l),
(251,441,o),
(287,470,o),
(330,485,c),
(345,489,o),
(359,492,o),
(374,492,cs),
(510,492,o),
(583,366,o),
(583,243,cs),
(583,121,o),
(508,-13,o),
(372,-13,cs),
(360,-13,o),
(348,-11,o),
(335,-8,cs),
(296,1,o),
(256,24,o),
(237,55,c),
(233,55,l),
(238,-20,l),
(238,-225,l),
(52,-225,l),
(52,776,l)
);
}
);
width = 612;
},
{
layerId = "8AF3DB8E-7EC5-4D7D-A87A-6DF3FCB8CADF";
shapes = (
{
closed = 1;
nodes = (
(154,147,o),
(203,71,o),
(288,71,cs),
(370,71,o),
(425,137,o),
(425,227,cs),
(425,308,o),
(372,376,o),
(287,376,cs),
(206,376,o),
(154,304,o),
(154,228,cs)
);
},
{
closed = 1;
nodes = (
(158,773,l),
(158,567,ls),
(158,539,o),
(158,511,o),
(158,483,c),
(157,450,o),
(157,416,o),
(157,384,c),
(159,384,l),
(194,429,o),
(243,455,o),
(302,458,c),
(318,458,o),
(332,458,o),
(347,455,cs),
(454,436,o),
(520,333,o),
(520,223,cs),
(520,111,o),
(456,11,o),
(347,-8,cs),
(332,-11,o),
(318,-12,o),
(302,-11,c),
(245,-10,o),
(193,16,o),
(160,61,c),
(157,61,l),
(158,-13,l),
(158,-243,l),
(65,-243,l),
(65,773,l)
);
}
);
width = 553;
},
{
layerId = "F1A19D98-9E48-4F05-B6A0-CD51606DBCB8";
shapes = (
{
closed = 1;
nodes = (
(139,139,o),
(190,57,o),
(283,57,cs),
(372,57,o),
(430,127,o),
(430,224,cs),
(430,312,o),
(375,383,o),
(282,383,cs),
(195,383,o),
(139,308,o),
(139,225,cs)
);
},
{
closed = 1;
nodes = (
(142,772,l),
(142,566,ls),
(142,538,o),
(142,511,o),
(142,483,cs),
(142,448,o),
(142,412,o),
(142,377,c),
(144,377,l),
(181,426,o),
(235,452,o),
(296,452,cs),
(312,452,o),
(327,450,o),
(342,447,c),
(443,423,o),
(507,327,o),
(507,219,cs),
(507,110,o),
(446,14,o),
(342,-7,cs),
(327,-10,o),
(312,-12,o),
(295,-12,cs),
(235,-12,o),
(180,14,o),
(144,62,c),
(142,62,l),
(142,-12,l),
(142,-247,l),
(67,-247,l),
(67,772,l)
);
}
);
width = 541;
}
);
unicode = 254;
},
{
glyphname = dcroat;
lastChange = "2024-01-25 14:19:30 +0000";
layers = (
{
layerId = "F6364453-91B0-4CE2-A857-F52B6F68B874";
shapes = (
{
closed = 1;
nodes = (
(434,72,l),
(397,27,o),
(350,-12,o),
(270,-12,cs),
(142,-12,o),
(30,95,o),
(30,270,cs),
(30,446,o),
(141,553,o),
(269,553,cs),
(350,553,o),
(398,516,o),
(434,475,c),
(434,730,l),
(624,730,l),
(624,-12,l)
);
},
{
closed = 1;
nodes = (
(388,147,o),
(437,197,o),
(437,272,cs),
(437,343,o),
(388,394,o),
(327,394,cs),
(268,394,o),
(217,344,o),
(217,270,cs),
(217,208,o),
(260,147,o),
(327,147,cs)
);
},
{
closed = 1;
nodes = (
(356,542,l),
(356,709,l),
(684,709,l),
(684,542,l)
);
}
);
width = 681;
},
{
layerId = "8AF3DB8E-7EC5-4D7D-A87A-6DF3FCB8CADF";
shapes = (
{
closed = 1;
nodes = (
(444,76,l),
(401,25,o),
(353,-10,o),
(273,-10,cs),
(142,-10,o),
(34,89,o),
(34,246,cs),
(34,403,o),
(143,504,o),
(271,504,cs),
(352,504,o),
(412,467,o),
(452,411,c),
(452,732,l),
(552,732,l),
(552,-1,l)
);
},
{
closed = 1;
nodes = (
(381,75,o),
(455,147,o),
(455,247,cs),
(455,346,o),
(378,419,o),
(291,419,cs),
(206,419,o),
(135,350,o),
(135,247,cs),
(135,157,o),
(194,75,o),
(291,75,cs)
);
},
{
closed = 1;
nodes = (
(324,577,l),
(324,669,l),
(604,669,l),
(604,577,l)
);
}
);
width = 599;
},
{
layerId = "F1A19D98-9E48-4F05-B6A0-CD51606DBCB8";
shapes = (
{
closed = 1;
nodes = (
(446,77,l),
(402,24,o),
(353,-10,o),
(274,-10,cs),
(143,-10,o),
(35,88,o),
(35,241,cs),
(35,394,o),
(143,494,o),
(271,494,cs),
(352,494,o),
(415,458,o),
(456,398,c),
(456,732,l),
(538,732,l),
(538,1,l)
);
},
{
closed = 1;
nodes = (
(379,60,o),
(459,137,o),
(459,242,cs),
(459,347,o),
(376,424,o),
(284,424,cs),
(192,424,o),
(118,351,o),
(118,242,cs),
(118,146,o),
(180,60,o),
(284,60,cs)
);
},
{
closed = 1;
nodes = (
(317,584,l),
(317,661,l),
(588,661,l),
(588,584,l)
);
}
);
width = 583;
}
);
unicode = 273;
},
{
glyphname = kgreenlandic;
lastChange = "2024-01-25 14:19:30 +0000";
layers = (
{
layerId = "F6364453-91B0-4CE2-A857-F52B6F68B874";
shapes = (
{
closed = 1;
nodes = (
(388,541,l),
(603,541,l),
(415,324,l),
(608,0,l),
(399,0,l),
(241,283,l),
(241,0,l),
(51,0,l),
(51,541,l),
(241,541,l),
(241,360,l)
);
}
);
width = 609;
},
{
layerId = "8AF3DB8E-7EC5-4D7D-A87A-6DF3FCB8CADF";
shapes = (
{
closed = 1;
nodes = (
(342,492,l),
(466,492,l),
(252,266,l),
(474,0,l),
(355,0,l),
(164,227,l),
(164,0,l),
(64,0,l),
(64,492,l),
(164,492,l),
(164,294,l)
);
}
);
width = 480;
},
{
layerId = "F1A19D98-9E48-4F05-B6A0-CD51606DBCB8";
shapes = (
{
closed = 1;
nodes = (
(333,482,l),
(438,482,l),
(219,254,l),
(447,0,l),
(346,0,l),
(149,216,l),
(149,0,l),
(67,0,l),
(67,482,l),
(149,482,l),
(149,281,l)
);
}
);
width = 454;
}
);
unicode = 312;
},
{
glyphname = Eng;
lastChange = "2024-01-25 14:19:30 +0000";
layers = (
{
layerId = "F6364453-91B0-4CE2-A857-F52B6F68B874";
shapes = (
{
closed = 1;
nodes = (
(239,700,l),
(527,330,l),
(527,700,l),
(719,700,l),
(719,81,l),
(719,24,ls),
(719,-113,o),
(649,-163,o),
(526,-163,cs),
(495,-163,o),
(471,-160,o),
(448,-156,c),
(448,-23,l),
(463,-28,o),
(474,-31,o),
(486,-31,cs),
(510,-31,o),
(529,-16,o),
(529,25,c),
(529,26,l),
(250,384,l),
(250,0,l),
(58,0,l),
(58,700,l)
);
}
);
width = 778;
},
{
layerId = "8AF3DB8E-7EC5-4D7D-A87A-6DF3FCB8CADF";
shapes = (
{
closed = 1;
nodes = (
(177,700,l),
(575,160,l),
(575,704,l),
(675,704,l),
(675,14,l),
(675,-27,ls),
(675,-121,o),
(652,-189,o),
(548,-189,cs),
(525,-189,o),
(509,-186,o),
(493,-182,c),
(493,-103,l),
(505,-107,o),
(516,-109,o),
(527,-109,cs),
(567,-109,o),
(576,-81,o),
(576,-48,cs),
(576,1,l),
(177,545,l),
(177,0,l),
(76,0,l),
(76,700,l)
);
}
);
width = 751;
},
{
layerId = "F1A19D98-9E48-4F05-B6A0-CD51606DBCB8";
shapes = (
{
closed = 1;
nodes = (
(165,700,l),
(584,126,l),
(584,705,l),
(666,705,l),
(666,0,l),
(666,-37,ls),
(666,-122,o),
(653,-194,o),
(552,-194,cs),
(532,-194,o),
(517,-191,o),
(502,-187,c),
(502,-119,l),
(513,-123,o),
(524,-125,o),
(535,-125,cs),
(578,-125,o),
(585,-94,o),
(585,-62,cs),
(585,-4,l),
(162,577,l),
(162,0,l),
(80,0,l),
(80,700,l)
);
}
);
width = 746;
}
);
unicode = 330;
},
{
glyphname = eng;
lastChange = "2024-01-25 14:19:30 +0000";
layers = (
{
layerId = "F6364453-91B0-4CE2-A857-F52B6F68B874";
shapes = (
{
closed = 1;
nodes = (
(241,465,l),
(276,510,o),
(326,553,o),
(403,553,cs),
(508,553,o),
(587,477,o),
(587,354,cs),
(587,24,ls),
(587,-113,o),
(517,-163,o),
(394,-163,cs),
(363,-163,o),
(339,-160,o),
(316,-156,c),
(316,-23,l),
(331,-28,o),
(342,-31,o),
(354,-31,cs),
(378,-31,o),
(397,-15,o),
(397,32,cs),
(397,293,ls),
(397,352,o),
(364,384,o),
(321,384,cs),
(278,384,o),
(241,352,o),
(241,293,cs),
(241,0,l),
(51,0,l),
(51,541,l)
);
}
);
width = 635;
},
{
layerId = "8AF3DB8E-7EC5-4D7D-A87A-6DF3FCB8CADF";
shapes = (
{
closed = 1;
nodes = (
(166,428,l),
(202,472,o),
(254,503,o),
(323,503,cs),
(430,503,o),
(499,436,o),
(499,312,cs),
(499,-27,ls),
(499,-121,o),
(475,-189,o),
(371,-189,cs),
(348,-189,o),
(332,-186,o),
(316,-182,c),
(316,-103,l),
(328,-107,o),
(339,-109,o),
(350,-109,cs),
(390,-109,o),
(399,-81,o),
(399,-46,cs),
(399,282,ls),
(399,382,o),
(342,415,o),
(288,415,cs),
(235,415,o),
(164,383,o),
(164,282,cs),
(164,0,l),
(64,0,l),
(64,492,l)
);
}
);
width = 558;
},
{
layerId = "F1A19D98-9E48-4F05-B6A0-CD51606DBCB8";
shapes = (
{
closed = 1;
nodes = (
(151,421,l),
(187,464,o),
(238,493,o),
(307,493,cs),
(413,493,o),
(481,428,o),
(481,303,cs),
(481,-37,ls),
(481,-122,o),
(466,-194,o),
(366,-194,cs),
(346,-194,o),
(331,-191,o),
(316,-187,c),
(316,-119,l),
(327,-123,o),
(338,-125,o),
(349,-125,cs),
(392,-125,o),
(399,-94,o),
(399,-62,cs),
(399,280,ls),
(399,388,o),
(338,421,o),
(281,421,cs),
(226,421,o),
(149,390,o),
(149,280,cs),
(149,0,l),
(67,0,l),
(67,482,l)
);
}
);
width = 542;
}
);
unicode = 331;
},
{
glyphname = OE;
lastChange = "2024-01-25 14:19:30 +0000";
layers = (
{
layerId = "F6364453-91B0-4CE2-A857-F52B6F68B874";
shapes = (
{
closed = 1;
nodes = (
(510,189,l),
(487,173,o),
(460,162,o),
(432,162,cs),
(321,162,o),
(236,248,o),
(236,352,cs),
(236,453,o),
(307,539,o),
(413,539,cs),
(448,539,o),
(481,529,o),
(510,510,c)
);
},
{
closed = 1;
nodes = (
(1038,276,l),
(1038,429,l),
(702,429,l),
(702,535,l),
(1073,535,l),
(1073,700,l),
(521,700,l),
(486,709,o),
(453,714,o),
(414,714,cs),
(198,714,o),
(37,551,o),
(37,350,cs),
(37,149,o),
(197,-14,o),
(413,-14,cs),
(446,-14,o),
(487,-10,o),
(519,0,c),
(1078,0,l),
(1078,165,l),
(702,165,l),
(702,276,l)
);
}
);
width = 1127;
},
{
layerId = "8AF3DB8E-7EC5-4D7D-A87A-6DF3FCB8CADF";
shapes = (
{
closed = 1;
nodes = (
(511,97,l),
(492,89,o),
(473,82,o),
(443,82,cs),
(282,82,o),
(154,178,o),
(154,354,cs),
(154,510,o),
(265,625,o),
(421,625,cs),
(453,625,o),
(483,618,o),
(511,607,c)
);
},
{
closed = 1;
nodes = (
(958,314,l),
(958,402,l),
(615,402,l),
(615,613,l),
(988,613,l),
(988,704,l),
(522,704,l),
(490,713,o),
(455,718,o),
(418,718,cs),
(205,718,o),
(49,554,o),
(49,351,cs),
(49,141,o),
(218,-13,o),
(426,-13,cs),
(460,-13,o),
(497,-8,o),
(530,0,c),
(998,0,l),
(998,91,l),
(615,91,l),
(615,314,l)
);
}
);
width = 1062;
},
{
layerId = "F1A19D98-9E48-4F05-B6A0-CD51606DBCB8";
shapes = (
{
closed = 1;
nodes = (
(511,78,l),
(485,69,o),
(446,63,o),
(418,63,cs),
(252,63,o),
(138,190,o),
(138,354,cs),
(138,517,o),
(254,642,o),
(418,642,cs),
(451,642,o),
(482,637,o),
(511,626,c)
);
},
{
closed = 1;
nodes = (
(942,321,l),
(942,397,l),
(597,397,l),
(597,629,l),
(971,629,l),
(971,705,l),
(522,705,l),
(490,714,o),
(455,719,o),
(419,719,cs),
(206,719,o),
(51,555,o),
(51,351,cs),
(51,142,o),
(212,-14,o),
(417,-14,cs),
(452,-14,o),
(489,-10,o),
(520,0,c),
(982,0,l),
(982,76,l),
(597,76,l),
(597,321,l)
);
}
);
width = 1049;
}
);
unicode = 338;
},
{
glyphname = oe;
lastChange = "2024-01-25 14:19:30 +0000";
layers = (
{
layerId = "F6364453-91B0-4CE2-A857-F52B6F68B874";
shapes = (
{
closed = 1;
nodes = (
(947,42,l),
(878,-3,o),
(791,-17,o),
(732,-17,cs),
(648,-17,o),
(581,11,o),
(533,62,c),
(480,15,o),
(409,-13,o),
(328,-13,cs),
(155,-13,o),
(30,115,o),
(30,270,cs),
(30,425,o),
(157,553,o),
(330,553,cs),
(414,553,o),
(487,523,o),
(539,475,c),
(587,522,o),
(652,548,o),
(732,548,cs),
(908,548,o),
(1000,401,o),
(1000,240,c),
(645,148,l),
(669,128,o),
(699,121,o),
(735,121,cs),
(802,121,o),
(898,146,o),
(947,190,c)
);
},
{
closed = 1;
nodes = (
(259,392,o),
(215,337,o),
(215,272,cs),
(215,205,o),
(263,148,o),
(330,148,cs),
(399,148,o),
(443,205,o),
(443,270,cs),
(443,334,o),
(396,392,o),
(328,392,cs)
);
},
{
closed = 1;
nodes = (
(814,319,l),
(802,375,o),
(768,407,o),
(721,407,cs),
(651,407,o),
(625,332,o),
(630,272,c)
);
}
);
width = 1030;
},
{
layerId = "8AF3DB8E-7EC5-4D7D-A87A-6DF3FCB8CADF";
shapes = (
{
closed = 1;
nodes = (
(917,44,l),
(873,10,o),
(809,-12,o),
(740,-12,cs),
(639,-12,o),
(564,35,o),
(525,115,c),
(480,39,o),
(398,-11,o),
(297,-11,cs),
(145,-11,o),
(34,102,o),
(34,245,cs),
(34,389,o),
(145,504,o),
(298,504,cs),
(399,504,o),
(481,455,o),
(526,379,c),
(561,455,o),
(628,504,o),
(724,504,cs),
(867,504,o),
(950,393,o),
(963,262,c),
(601,171,l),
(624,111,o),
(665,69,o),
(744,69,cs),
(809,69,o),
(871,96,o),
(917,142,c)
);
},
{
closed = 1;
nodes = (
(198,420,o),
(134,343,o),
(134,247,cs),
(134,149,o),
(205,74,o),
(298,74,cs),
(394,74,o),
(464,154,o),
(464,246,cs),
(464,340,o),
(396,420,o),
(297,420,cs)
);
},
{
closed = 1;
nodes = (
(848,317,l),
(832,377,o),
(782,422,o),
(710,422,cs),
(617,422,o),
(587,342,o),
(587,255,c)
);
}
);
width = 997;
},
{
layerId = "F1A19D98-9E48-4F05-B6A0-CD51606DBCB8";
shapes = (
{
closed = 1;
nodes = (
(911,44,l),
(871,12,o),
(812,-11,o),
(741,-11,cs),
(637,-11,o),
(559,41,o),
(523,126,c),
(480,45,o),
(396,-10,o),
(291,-10,cs),
(143,-10,o),
(35,99,o),
(35,240,cs),
(35,382,o),
(143,494,o),
(292,494,cs),
(396,494,o),
(480,440,o),
(523,360,c),
(556,441,o),
(622,495,o),
(722,495,cs),
(860,495,o),
(939,390,o),
(955,266,c),
(592,176,l),
(615,108,o),
(658,59,o),
(746,59,cs),
(811,59,o),
(865,86,o),
(911,132,c)
);
},
{
closed = 1;
nodes = (
(187,425,o),
(118,343,o),
(118,242,cs),
(118,138,o),
(193,59,o),
(292,59,cs),
(394,59,o),
(468,142,o),
(468,241,cs),
(468,341,o),
(396,425,o),
(291,425,cs)
);
},
{
closed = 1;
nodes = (
(855,316,l),
(838,377,o),
(784,425,o),
(708,425,cs),
(611,425,o),
(578,344,o),
(578,251,c)
);
}
);
width = 990;
}
);
unicode = 339;
},
